<svg xmlns="http://www.w3.org/2000/svg" viewBox="0 0 32 32"><g fill="currentColor" class="nc-icon-wrapper"><path d="M16 13.25c3.308 0 6-2.691 6-6s-2.692-6-6-6c-3.309 0-6 2.692-6 6s2.691 6 6 6zm0-10c2.206 0 4 1.795 4 4s-1.794 4-4 4-4-1.794-4-4 1.794-4 4-4z"></path><path d="M25.191 19.059a11.223 11.223 0 0 0-7.99-3.31h-2.402c-3.018 0-5.855 1.176-7.989 3.31s-3.309 4.972-3.309 7.991c0 .988.385 1.918 1.083 2.616S6.212 30.75 7.2 30.75h17.6c.989 0 1.918-.385 2.616-1.084a3.674 3.674 0 0 0 1.084-2.617c0-3.018-1.176-5.856-3.31-7.99zm.81 9.194c-.32.321-.747.497-1.201.497H7.2c-.455 0-.881-.177-1.202-.497s-.498-.748-.498-1.204c0-2.484.968-4.819 2.724-6.576s4.092-2.724 6.575-2.724h2.402c2.483 0 4.819.968 6.575 2.724S26.5 24.565 26.5 27.05c0 .454-.177.881-.499 1.202z"></path></g></svg>