<svg xmlns="http://www.w3.org/2000/svg" viewBox="0 0 32 32"><g fill="currentColor" class="nc-icon-wrapper"><path d="M.46 16.582L15.947 1.095c.375-.377.894-.61 1.468-.61h10.511a3.13 3.13 0 0 1 3.125 3.125v10.487c0 .598-.252 1.136-.654 1.517l-.001.001-.001.001L13.92 31.092a1.54 1.54 0 0 1-1.064.424h-.005l-.058-.001a1.55 1.55 0 0 1-1.091-.501l-.001-.001-.001-.001L.416 18.746a1.543 1.543 0 0 1-.414-1.055v-.004c0-.432.175-.822.459-1.104zm12.416 12.631l16.091-15.117V3.609a1.04 1.04 0 0 0-1.04-1.04H17.42L2.286 17.703l10.59 11.51z"></path><path d="M22.456 5.693h.007a3.38 3.38 0 0 1 3.38 3.38v.007a3.384 3.384 0 0 1-2.683 3.31l-.022.004-.022.004a3.388 3.388 0 0 1-3.46-1.417l-.008-.012-.008-.012a3.325 3.325 0 0 1-.57-1.87v-.009c0-.935.38-1.782.993-2.394a3.375 3.375 0 0 1 2.392-.993zm0 4.688a1.307 1.307 0 0 0 1.196-.787l.003-.008.003-.009a1.286 1.286 0 0 0-.283-1.419 1.295 1.295 0 0 0-1.428-.279l.009-.003a1.303 1.303 0 0 0-.807 1.201c.001.72.585 1.303 1.305 1.304z"></path></g></svg>