<svg xmlns="http://www.w3.org/2000/svg" viewBox="0 0 32 32"><g fill="currentColor" class="nc-icon-wrapper"><path d="M20 19.067L16.933 16 20 12.933c.533-.533.533-1.333 0-1.867s-1.333-.533-1.867 0l-4 4a1.29 1.29 0 0 0 0 1.867l4 4c.267.267.533.4.933.4s.667-.133.933-.4c.4-.533.4-1.333 0-1.867zM9.6 16l3.067-3.067c.533-.533.533-1.333 0-1.867s-1.333-.533-1.867 0l-4 4a1.29 1.29 0 0 0 0 1.867l4 4c.267.267.533.4.933.4s.667-.133.933-.4a1.29 1.29 0 0 0 0-1.867l-3.067-3.067z" fill="currentColor" class="nc-icon-wrapper"></path></g></svg>