<svg xmlns="http://www.w3.org/2000/svg" viewBox="0 0 32 32"><g fill="currentColor" class="nc-icon-wrapper"><path d="M11.333 11.067c-.533-.533-1.333-.533-1.867 0s-.533 1.333 0 1.867l2.933 3.067-3.067 3.067c-.267.267-.4.533-.4.933 0 .8.533 1.333 1.333 1.333.4 0 .667-.133.933-.4l4-4a1.29 1.29 0 0 0 0-1.867l-3.867-4zm11.334 4l-4-4c-.533-.533-1.333-.533-1.867 0s-.533 1.333 0 1.867l3.067 3.067-3.067 3.067c-.267.267-.4.533-.4.933 0 .8.533 1.333 1.333 1.333.4 0 .667-.133.933-.4l4-4c.4-.533.4-1.333 0-1.867z" fill="currentColor" class="nc-icon-wrapper"></path></g></svg>