<svg xmlns="http://www.w3.org/2000/svg" viewBox="0 0 32 32"><g fill="currentColor" class="nc-icon-wrapper"><path d="M11.589 8.821H9.538C8.688 8.821 8 9.51 8 10.359v1.538H3.385a1.534 1.534 0 0 0-.491 2.989 8.722 8.722 0 0 0 8.696 8.293h1.538v1.538c.003.65.413 1.228 1.026 1.444v3.171a2.05 2.05 0 1 0 4.102 0v-3.171a1.538 1.538 0 0 0 1.026-1.444v-1.538h1.538a8.72 8.72 0 0 0 8.696-8.293 1.535 1.535 0 0 0-.491-2.989H24.41v-1.538c0-.85-.689-1.538-1.538-1.538h-2.051c-.85 0-1.538.689-1.538 1.538v1.538h-1.538V4.718A4.109 4.109 0 0 0 13.104.65a4.177 4.177 0 0 0-3.565 4.193v.388c0 .566.459 1.026 1.026 1.026h1.026c.566 0 1.026-.459 1.026-1.026v-.513a1.027 1.027 0 0 1 1.234-1.005c.489.12.828.563.817 1.066v7.119H13.13V10.36c0-.85-.689-1.538-1.538-1.538zm-2.564 1.538c0-.283.23-.513.513-.513h2.051c.283 0 .513.23.513.513v1.538H9.025v-1.538zm8.205 18.974a1.026 1.026 0 0 1-2.052 0v-3.077h2.051v3.077zm1.026-4.615c0 .283-.23.513-.513.513h-3.077a.513.513 0 0 1-.513-.513V23.18h4.103v1.538zm2.564-2.564h-9.231a7.703 7.703 0 0 1-7.675-7.179h24.581a7.702 7.702 0 0 1-7.675 7.179zm8.718-8.718c0 .283-.23.513-.513.513H3.384a.513.513 0 0 1 0-1.026h25.641c.283 0 .513.23.513.513zm-9.231-3.077c0-.283.23-.513.513-.513h2.051c.283 0 .513.23.513.513v1.538h-3.077v-1.538zm-6.262-7.652a2.05 2.05 0 0 0-2.455 2.012v.513h-1.026v-.388a3.15 3.15 0 0 1 2.67-3.176 3.084 3.084 0 0 1 3.484 3.051v7.179h-1.026V4.779a2.084 2.084 0 0 0-1.647-2.072z" fill="currentColor" class="nc-icon-wrapper"></path></g></svg>