<svg xmlns="http://www.w3.org/2000/svg" viewBox="0 0 32 32"><g fill="currentColor" class="nc-icon-wrapper"><path d="M30.4 17.067h-.533v-11.2a4.78 4.78 0 0 0-4.8-4.8c-2.361 0-4.058 1.75-4.248 4.315A2.636 2.636 0 0 0 18.667 8c0 .32.213.533.533.533h4.267c.32 0 .533-.213.533-.533a2.635 2.635 0 0 0-2.11-2.61c.159-1.695 1.177-3.256 3.177-3.256A3.71 3.71 0 0 1 28.8 5.867v11.2H12.748a2.636 2.636 0 0 0-2.615-2.133c-.533-.64-1.28-1.067-2.133-1.067-1.013 0-1.92.587-2.347 1.44-.427-.213-.907-.373-1.387-.373-1.31 0-2.374.903-2.615 2.133h-.052c-.907 0-1.6.693-1.6 1.6s.693 1.6 1.6 1.6h.641l1.439 5.707a3.764 3.764 0 0 0 3.627 2.827h.427l-.693 1.387c-.16.267-.053.587.213.693.053.053.16.053.213.053a.561.561 0 0 0 .48-.267l.933-1.867h14.8l.907 1.813c.107.213.267.32.48.32.107 0 .16 0 .213-.107.213-.107.32-.427.213-.693l-.668-1.336c1.651-.059 3.079-1.212 3.495-2.77l1.453-5.76h.627c.907 0 1.6-.693 1.6-1.6s-.693-1.6-1.6-1.6zm-7.52-9.6h-3.04c.213-.64.853-1.067 1.547-1.067s1.28.427 1.493 1.067zM4.267 16c.48 0 .907.213 1.28.587.107.16.32.213.533.16s.32-.213.373-.427c.16-.8.8-1.387 1.6-1.387.587 0 1.12.267 1.387.8.107.213.373.32.587.267h.16c.693 0 1.28.427 1.493 1.067H2.773c.213-.64.8-1.067 1.493-1.067zm23.093 9.707c-.32 1.173-1.387 2.027-2.613 2.027H7.36c-1.227 0-2.293-.853-2.613-2.027l-1.387-5.44h25.28l-1.28 5.44zM30.4 19.2H1.6c-.32 0-.533-.213-.533-.533s.213-.533.533-.533h28.8c.32 0 .533.213.533.533s-.213.533-.533.533z"></path><path d="M19.2 10.933c.32 0 .533-.213.533-.533v-.267c0-.32-.213-.533-.533-.533s-.533.213-.533.533v.267c0 .32.213.533.533.533z"></path><path d="M19.2 13.387c.32 0 .533-.267.533-.533v-.587c0-.32-.213-.533-.533-.533s-.533.213-.533.533v.587c0 .32.213.533.533.533z"></path><path d="M19.2 15.467c.32 0 .533-.213.533-.533v-.267c0-.32-.213-.533-.533-.533s-.533.213-.533.533v.267c0 .32.213.533.533.533z"></path><path d="M21.333 10.933c.32 0 .533-.213.533-.533v-.267c0-.32-.213-.533-.533-.533s-.533.213-.533.533v.267c0 .32.213.533.533.533z"></path><path d="M20.8 12.853c0 .32.213.533.533.533s.533-.267.533-.533v-.587c0-.32-.213-.533-.533-.533s-.533.213-.533.533v.587z"></path><path d="M20.8 14.933c0 .32.213.533.533.533s.533-.213.533-.533v-.267c0-.32-.213-.533-.533-.533s-.533.213-.533.533v.267z"></path><path d="M23.467 10.933c.32 0 .533-.213.533-.533v-.267c0-.32-.213-.533-.533-.533s-.533.213-.533.533v.267c0 .32.213.533.533.533z"></path><path d="M22.933 12.853c0 .32.213.533.533.533s.533-.267.533-.533v-.587c0-.32-.213-.533-.533-.533s-.533.213-.533.533v.587z"></path><path d="M22.933 14.933c0 .32.213.533.533.533s.533-.213.533-.533v-.267c0-.32-.213-.533-.533-.533s-.533.213-.533.533v.267z"></path></g></svg>