<svg xmlns="http://www.w3.org/2000/svg" viewBox="0 0 32 32"><g fill="currentColor" class="nc-icon-wrapper"><path d="M29.846 15.994V4.717A4.102 4.102 0 0 0 25.743.616h-1.538a.513.513 0 0 0-.513.513v2.614a2.563 2.563 0 0 0-2.051 2.512c0 .283.23.513.513.513h4.103a.513.513 0 0 0 .513-.513 2.564 2.564 0 0 0-2.051-2.512V1.641h1.026a3.077 3.077 0 0 1 3.077 3.076v11.277H2.155a1.538 1.538 0 1 0 0 3.076c.138 3.732 1.738 7.689 4.133 8.863a2.05 2.05 0 1 0 3.266.364h12.887a2.057 2.057 0 0 0-.287 1.025 2.051 2.051 0 1 0 3.548-1.388c2.395-1.174 3.995-5.131 4.144-8.863a1.539 1.539 0 0 0 .001-3.076zM25.657 5.742h-2.903a1.538 1.538 0 0 1 2.903 0zM7.795 30.347a1.026 1.026 0 1 1 0-2.052 1.026 1.026 0 0 1 0 2.052zm16.41 0a1.026 1.026 0 1 1 0-2.052 1.026 1.026 0 0 1 0 2.052zm0-3.076H7.795c-2.282 0-4.436-3.916-4.615-8.202h25.641c-.18 4.285-2.333 8.202-4.615 8.202zm5.641-9.227H2.154a.513.513 0 1 1 0-1.026h27.692a.513.513 0 0 1 0 1.026z"></path><path d="M24.205 9.33a.513.513 0 0 0 .513-.513v-.513a.513.513 0 0 0-1.026 0v.513c0 .283.23.513.513.513z"></path><path d="M23.692 11.38a.513.513 0 0 0 1.026 0v-.513a.513.513 0 0 0-1.026 0v.513z"></path><path d="M23.692 13.943a.513.513 0 0 0 1.026 0v-.513a.513.513 0 0 0-1.026 0v.513z"></path><path d="M22.154 9.33a.513.513 0 0 0 .513-.513v-.513a.513.513 0 0 0-1.026 0v.513c0 .283.23.513.513.513z"></path><path d="M22.154 11.893a.513.513 0 0 0 .513-.513v-.513a.513.513 0 0 0-1.026 0v.513c0 .283.23.513.513.513z"></path><path d="M22.154 14.456a.513.513 0 0 0 .513-.513v-.513a.513.513 0 0 0-1.026 0v.513c0 .283.23.513.513.513z"></path><path d="M26.256 9.33a.513.513 0 0 0 .513-.513v-.513a.513.513 0 0 0-1.026 0v.513c0 .283.23.513.513.513z"></path><path d="M25.744 11.38a.513.513 0 0 0 1.026 0v-.513a.513.513 0 0 0-1.026 0v.513z"></path><path d="M25.744 13.943a.513.513 0 0 0 1.026 0v-.513a.513.513 0 0 0-1.026 0v.513z"></path></g></svg>