<svg xmlns="http://www.w3.org/2000/svg" viewBox="0 0 32 32"><g fill="currentColor" class="nc-icon-wrapper"><path d="M30 .5H16A1.503 1.503 0 0 0 14.5 2v26.5h-3.623l-.8-2.792A4.5 4.5 0 0 0 13 21.5v-1.39a1.49 1.49 0 0 0 .135-2.089 1.481 1.481 0 0 0-.634-.428v-4.184a1.495 1.495 0 0 0 .465-2.557 1.493 1.493 0 0 0-.966-.351H2a1.497 1.497 0 0 0-.501 2.908v4.184a1.49 1.49 0 0 0-.971 1.115A1.48 1.48 0 0 0 1 20.11v1.39a4.506 4.506 0 0 0 2.921 4.209l-.797 2.792H1.001a.498.498 0 0 0-.5.5v2a.498.498 0 0 0 .5.5h30a.498.498 0 0 0 .5-.5v-29a1.503 1.503 0 0 0-1.5-1.5zm-7 5A2.503 2.503 0 0 1 25.5 8h-5A2.503 2.503 0 0 1 23 5.5zm0-1a3.498 3.498 0 0 0-.5.04V3.5h1v1.04a3.498 3.498 0 0 0-.5-.04zm-1.5.343A3.5 3.5 0 0 0 19.5 8v.5a.498.498 0 0 0 .5.5h6a.498.498 0 0 0 .5-.5V8a3.5 3.5 0 0 0-2-3.157V3.5h6v23h-15v-23h6v1.343zM16 1.5h14a.498.498 0 0 1 .5.5v.5h-15V2a.498.498 0 0 1 .5-.5zm-.5 26h15v1h-15v-1zm-4-14v4h-9v-4h9zm-9.5-2h10a.498.498 0 0 1 .5.5.498.498 0 0 1-.5.5H2a.498.498 0 0 1-.5-.5.498.498 0 0 1 .5-.5zm0 7h10a.498.498 0 0 1 .5.5.498.498 0 0 1-.5.5H2a.498.498 0 0 1-.5-.5.498.498 0 0 1 .5-.5zm0 3v-1h10v1A3.504 3.504 0 0 1 8.5 25h-3A3.504 3.504 0 0 1 2 21.5zm2.891 4.453c.202.029.405.045.609.047h3a4.45 4.45 0 0 0 .61-.047l.728 2.547H4.164l.728-2.547zM30.5 30.5h-29v-1h29v1z"></path><path d="M10.5 15h-2v1h2v-1z"></path><path d="M18 17.5a1.495 1.495 0 0 0 1.385-.926 1.504 1.504 0 0 0-.326-1.635 1.5 1.5 0 1 0-1.061 2.559zm0-2a.5.5 0 1 1 .002.998A.5.5 0 0 1 18 15.5z"></path><path d="M26.646 12.646l-7 7 .707.707 7-7-.707-.707z"></path><path d="M25.647 17.146l-2 2 .707.707 2-2-.707-.707z"></path></g></svg>