<svg xmlns="http://www.w3.org/2000/svg" viewBox="0 0 32 32"><g fill="currentColor" class="nc-icon-wrapper"><path d="M30.4 12.8h-1.067V6.4c0-3.535-2.865-6.4-6.4-6.4s-6.4 2.865-6.4 6.4v6.4h-1.067a1.6 1.6 0 1 0 0 3.2v1.067a7.473 7.473 0 0 0 4.8 6.966v6.901H9.599v-2.247a5.866 5.866 0 0 0 3.2-5.219c.589 0 1.067-.478 1.067-1.067v-2.133c0-.589-.478-1.067-1.067-1.067h-.533v-4.267a2.133 2.133 0 0 0-2.133-2.133H7.466v-.533a.533.533 0 1 0-1.066 0v.533H3.733A2.133 2.133 0 0 0 1.6 14.934v4.267h-.533c-.589 0-1.067.478-1.067 1.067v2.133c0 .589.478 1.067 1.067 1.067a5.865 5.865 0 0 0 3.2 5.219v2.247H2.134a.533.533 0 1 0 0 1.066h27.733a.533.533 0 1 0 0-1.066H25.6v-6.901a7.473 7.473 0 0 0 4.8-6.966V16a1.6 1.6 0 1 0 0-3.2zM17.6 6.4a5.333 5.333 0 1 1 10.666 0v6.4h-2.667v-.533a.533.533 0 1 0-1.066 0v.533h-1.067v-2.667a.533.533 0 1 1 1.066 0v.533a.533.533 0 1 0 1.066 0v-.533a1.6 1.6 0 1 0-3.2 0V12.8h-1.067v-.533a.533.533 0 1 0-1.066 0v.533h-2.667V6.4zM2.667 14.933c0-.589.478-1.067 1.067-1.067h6.4c.589 0 1.067.478 1.067 1.067V19.2H2.668v-4.267zm-1.6 5.334H12.8V22.4H1.067v-2.133zm1.066 3.2h9.6a4.8 4.8 0 1 1-9.6 0zm3.2 7.466v-1.827a5.746 5.746 0 0 0 3.2 0v1.827h-3.2zm19.2 0h-3.2v-6.577a7.32 7.32 0 0 0 3.2 0v6.577zm4.8-13.866c0 3.535-2.865 6.4-6.4 6.4s-6.4-2.865-6.4-6.4V16h12.8v1.067zm1.067-2.134H15.467a.533.533 0 1 1 0-1.066H30.4a.533.533 0 1 1 0 1.066z"></path><path d="M19.733 4.267a.534.534 0 0 0 .377-.156l.533-.533a.532.532 0 0 0-.236-.9.535.535 0 0 0-.519.145l-.533.533a.533.533 0 0 0 .377.91z"></path><path d="M23.31 3.577a.532.532 0 0 0-.236-.9.535.535 0 0 0-.519.145l-3.2 3.2a.532.532 0 0 0 .236.9.535.535 0 0 0 .519-.145l3.2-3.2z"></path></g></svg>