<svg xmlns="http://www.w3.org/2000/svg" viewBox="0 0 32 32"><g fill="currentColor" class="nc-icon-wrapper"><path d="M14.197 3.56a4.698 4.698 0 0 1 3.607 0l9.598 3.986A2.295 2.295 0 0 1 28.8 9.672v12.656c0 .934-.553 1.775-1.398 2.126l-9.598 3.986c-1.157.48-2.45.48-3.607 0l-9.598-3.986a2.295 2.295 0 0 1-1.398-2.126V9.672c0-.934.553-1.775 1.398-2.126l9.598-3.986zm2.885 1.823a2.818 2.818 0 0 0-2.164 0L12.468 6.4l9.634 3.838 3.417-1.351-8.437-3.504zm2.363 5.906l-9.57-3.812-3.359 1.395 9.486 3.779 3.443-1.362zM5.12 22.328c0 .133.079.254.2.304l9.598 3.986c.04.017.081.033.122.048V14.379l-9.92-3.952v11.902zm11.962 4.289l9.598-3.986c.121-.05.2-.17.2-.304V10.456l-9.92 3.923v12.285l.122-.047z" fill="currentColor" class="nc-icon-wrapper"></path></g></svg>