<svg xmlns="http://www.w3.org/2000/svg" viewBox="0 0 32 32"><g fill="currentColor" class="nc-icon-wrapper"><path d="M4.631 11.072a1.778 1.778 0 1 0 0-3.556 1.778 1.778 0 0 0 0 3.556z"></path><path d="M4.631 18.183a1.778 1.778 0 1 0 0-3.556 1.778 1.778 0 0 0 0 3.556z"></path><path d="M4.631 25.294a1.778 1.778 0 1 0 0-3.556 1.778 1.778 0 0 0 0 3.556z"></path><path d="M28.818 9.143a.887.887 0 0 0-.889-.889H8.889v1.778h19.04a.887.887 0 0 0 .889-.889z"></path><path d="M27.929 15.365H8.889v1.778h19.04a.887.887 0 0 0 .629-1.518.887.887 0 0 0-.629-.26z"></path><path d="M27.929 22.476H8.889v1.778h19.04a.887.887 0 0 0 .629-1.518.887.887 0 0 0-.629-.26z"></path></g></svg>