<svg xmlns="http://www.w3.org/2000/svg" viewBox="0 0 32 32"><g fill="currentColor" class="nc-icon-wrapper"><path d="M15.29 25.6a1.422 1.422 0 0 0 0-2.844 1.422 1.422 0 0 0 0 2.844zm7.11 0a1.422 1.422 0 0 0 0-2.844 1.422 1.422 0 0 0 0 2.844zm0-5.69a1.423 1.423 0 1 0 .052-2.845l-.058.001h.006a1.424 1.424 0 0 0-.006 2.844h.006zm-7.11 0a1.423 1.423 0 1 0 .052-2.845l-.058.001h.006a1.424 1.424 0 0 0-.006 2.844h.006zm9.954-17.066h-1.421V1.423a1.423 1.423 0 1 0-2.846 0v1.421H9.6V1.423a1.424 1.424 0 0 0-2.844-.006v1.427H5.333a4.266 4.266 0 0 0-4.267 4.267v19.913a4.266 4.266 0 0 0 4.267 4.267h19.91a4.266 4.266 0 0 0 4.267-4.267V7.111a4.266 4.266 0 0 0-4.267-4.267zm1.423 24.179a1.423 1.423 0 0 1-1.423 1.421H5.334a1.423 1.423 0 0 1-1.423-1.421v-12.8h22.756v12.8zm0-15.646H3.911V7.11a1.423 1.423 0 0 1 1.423-1.421h1.423V7.11l-.001.055a1.423 1.423 0 1 0 2.846 0l-.001-.058v.003-1.421h11.377V7.11a1.423 1.423 0 1 0 2.846 0V5.689h1.421c.785 0 1.422.636 1.423 1.421v4.267zM8.177 19.91a1.423 1.423 0 1 0 .052-2.845l-.058.001h.006a1.424 1.424 0 0 0-.006 2.844h.006zm0 5.69a1.422 1.422 0 0 0 0-2.844 1.422 1.422 0 0 0 0 2.844z" fill="currentColor" class="nc-icon-wrapper"></path></g></svg>