<svg xmlns="http://www.w3.org/2000/svg" viewBox="0 0 32 32"><g fill="currentColor" class="nc-icon-wrapper"><path d="M30.667 12h-2.432L27.1 10.025a3.318 3.318 0 0 0-1.464-1.352l-4.658-2.206a4.815 4.815 0 0 0-2.929-.391L5.925 8.245a1.998 1.998 0 0 0-1.926-1.471h-2a2.005 2.005 0 0 0-2 2v8.69a2.005 2.005 0 0 0 2 2h2a2 2 0 0 0 1.98-1.737l3.054 1.41c.098.045.199.079.298.119v5.412a1.331 1.331 0 0 0 1.333 1.333h20a1.333 1.333 0 0 0 1.333-1.333V13.335a1.331 1.331 0 0 0-1.333-1.333zm-26 5.463A.666.666 0 0 1 4 18.13H2a.666.666 0 0 1-.667-.667v-8.69A.666.666 0 0 1 2 8.107h2a.665.665 0 0 1 .667.666v8.69zM6 16.267V9.586l12.285-2.198a3.49 3.49 0 0 1 2.123.284l4.658 2.206c.369.174.675.457.878.811L26.697 12H13.213a.662.662 0 0 0-.584.346.66.66 0 0 0 .022.678l.768 1.209a3.349 3.349 0 0 0 2.217 1.492l5.271.958a.852.852 0 0 1 .423 1.469.85.85 0 0 1-.575.223h-9.107a4.881 4.881 0 0 1-2.053-.45l-3.593-1.659zm16.5-.048a3.332 3.332 0 1 1-5.091 3.489h3.343a2.177 2.177 0 0 0 1.747-3.49zm8.167 8.448h-20v-5.044c.324.054.651.083.98.086h.354v1.504a.665.665 0 0 0 .666.666.79.79 0 0 1 .787.787.665.665 0 0 0 .666.666h1.212a.664.664 0 0 0 .672-.667.67.67 0 0 0-.415-.618.667.667 0 0 0-.257-.049h-.653c-.105-.314-.281-.599-.515-.832s-.519-.41-.832-.515v-.944h2.726c.345 2.234 2.286 3.958 4.607 3.958a4.672 4.672 0 0 0 3.64-1.748 4.663 4.663 0 0 0 .026-5.804 4.667 4.667 0 0 0-5.646-1.341.66.66 0 0 0-.171.12l-2.641-.48a2.017 2.017 0 0 1-1.331-.895l-.117-.185h16.241v11.333z"></path><path d="M27.212 14.667H26a.667.667 0 1 0 0 1.334h.653c.105.314.281.599.515.832s.519.41.832.515v3.306A2.133 2.133 0 0 0 26.653 22H26a.667.667 0 1 0 0 1.334h1.212a.665.665 0 0 0 .666-.666.79.79 0 0 1 .787-.787.665.665 0 0 0 .666-.666V16.79a.665.665 0 0 0-.666-.666.79.79 0 0 1-.787-.787.665.665 0 0 0-.666-.666z"></path></g></svg>