<svg xmlns="http://www.w3.org/2000/svg" viewBox="0 0 46 32"><g fill="currentColor" class="nc-icon-wrapper"><path d="M38.61 1.019a4.508 4.508 0 0 1 2.865-1.02h.064-.003.009c1.111 0 2.128.401 2.914 1.066l-.007-.006c.777.672 1.234 1.582 1.262 2.542l.001.062a3.444 3.444 0 0 1-1.105 2.533l-.002.002-22.373 24.617a4.21 4.21 0 0 1-1.343.849l-.029.01a4.609 4.609 0 0 1-1.717.325 4.678 4.678 0 0 1-1.603-.281l.033.01a4.317 4.317 0 0 1-1.404-.818l.005.004L1.338 17.858a3.774 3.774 0 0 1-.964-1.177l-.01-.021a3.281 3.281 0 0 1-.361-1.508c0-.502.111-.979.31-1.406l-.009.021c.228-.484.539-.893.919-1.226l.004-.004a4.264 4.264 0 0 1 1.369-.804l.03-.009a4.63 4.63 0 0 1 1.578-.272c.616 0 1.205.118 1.745.333l-.032-.011c.528.209.98.5 1.364.861l-.002-.002 11.744 10.322L38.607 1.017z" fill="currentColor" class="nc-icon-wrapper"></path></g></svg>