<svg xmlns="http://www.w3.org/2000/svg" viewBox="0 0 32 32"><g fill="currentColor" class="nc-icon-wrapper"><path d="M22.087 12.843a1.065 1.065 0 1 0-1.508-1.508l-6.357 6.357-2.096-2.096a1.065 1.065 0 1 0-1.508 1.508l2.85 2.85a1.065 1.065 0 0 0 1.508 0l7.111-7.111zM7.822 3.2A4.622 4.622 0 0 0 3.2 7.822v16.356A4.622 4.622 0 0 0 7.822 28.8h16.356a4.622 4.622 0 0 0 4.622-4.622V7.822A4.622 4.622 0 0 0 24.178 3.2H7.822zM5.333 7.822a2.489 2.489 0 0 1 2.489-2.489h16.356a2.489 2.489 0 0 1 2.489 2.489v16.356a2.489 2.489 0 0 1-2.489 2.489H7.822a2.489 2.489 0 0 1-2.489-2.489V7.822z" fill="currentColor" class="nc-icon-wrapper"></path></g></svg>