<svg xmlns="http://www.w3.org/2000/svg" viewBox="0 0 32 32"><g fill="currentColor" class="nc-icon-wrapper"><path d="M4.521 4.586C7.578 1.529 11.238 0 15.5 0s7.901 1.529 10.915 4.586c3.057 3.013 4.586 6.652 4.586 10.914s-1.529 7.922-4.587 10.979C23.401 29.493 19.762 31 15.5 31s-7.922-1.506-10.979-4.521C1.508 23.422 0 19.762 0 15.5S1.507 7.599 4.521 4.587zm1.485 20.408c2.626 2.626 5.791 3.939 9.493 3.939 3.703 0 6.867-1.313 9.493-3.939 2.627-2.627 3.94-5.792 3.94-9.493 0-3.703-1.313-6.868-3.939-9.494-2.627-2.626-5.792-3.94-9.493-3.94-3.703 0-6.868 1.314-9.494 3.94s-3.94 5.791-3.94 9.493c0 3.703 1.314 6.867 3.94 9.493zm10.527-9.947l4.844 4.909c.516.474.516.947 0 1.421-.172.215-.409.323-.71.323s-.539-.108-.71-.323L14.79 16.21c-.215-.172-.323-.409-.323-.71V7.233c0-.301.086-.538.259-.71.192-.199.462-.323.76-.323h.015-.001c.302 0 .539.108.71.323.215.173.323.41.323.71v7.814z" fill="currentColor" class="nc-icon-wrapper"></path></g></svg>