<svg xmlns="http://www.w3.org/2000/svg" viewBox="0 0 32 32"><g fill="currentColor" class="nc-icon-wrapper"><path d="M16 3.2C8.931 3.2 3.2 8.931 3.2 16S8.931 28.8 16 28.8c7.069 0 12.8-5.731 12.8-12.8S23.069 3.2 16 3.2zM0 16C0 7.163 7.163 0 16 0s16 7.163 16 16-7.163 16-16 16S0 24.837 0 16zm11.669-4.331c.29-.289.689-.468 1.131-.468s.842.179 1.131.468L16 13.738l2.069-2.069a1.6 1.6 0 1 1 2.263 2.262L18.263 16l2.069 2.069a1.6 1.6 0 0 1-2.263 2.262l-2.068-2.068-2.069 2.069a1.6 1.6 0 0 1-2.262-2.263l2.068-2.068-2.069-2.069c-.289-.29-.468-.689-.468-1.131s.179-.842.468-1.131z" fill="currentColor" class="nc-icon-wrapper"></path></g></svg>