<svg xmlns="http://www.w3.org/2000/svg" viewBox="0 0 32 32"><g fill="currentColor" class="nc-icon-wrapper"><path d="M31.701 17.199l-2.562-5.635A2.675 2.675 0 0 0 26.712 10H22V8a1.997 1.997 0 0 0-2-2H3.333a2.005 2.005 0 0 0-2 2v8a.667.667 0 1 0 1.334 0V8a.666.666 0 0 1 .667-.667h16.667a.666.666 0 0 1 .666.667v10.667a.666.666 0 0 1-.667.666h-8a.665.665 0 0 0-.467 1.136.67.67 0 0 0 .467.198h8a1.997 1.997 0 0 0 2-2v-7.333h4.712a1.333 1.333 0 0 1 1.214.782l.251.552h-2.844A1.331 1.331 0 0 0 24 14.001v2.667a1.333 1.333 0 0 0 1.333 1.333h5.246c.057.187.087.382.087.578v2.756a.666.666 0 0 1-.667.667h-2.067a3.335 3.335 0 0 0-5.374-1.915 3.338 3.338 0 0 0-1.158 1.915H10.599a3.335 3.335 0 0 0-5.374-1.915 3.338 3.338 0 0 0-1.158 1.915h-.734a.666.666 0 0 1-.667-.667v-.667a.665.665 0 0 0 .467-1.136.67.67 0 0 0-.467-.198h-2a.665.665 0 0 0-.467 1.136.67.67 0 0 0 .467.198h.667v.667a2.005 2.005 0 0 0 2 2h.734a3.335 3.335 0 0 0 5.374 1.915 3.338 3.338 0 0 0 1.158-1.915H21.4a3.335 3.335 0 0 0 5.374 1.915 3.338 3.338 0 0 0 1.158-1.915h2.067a2.005 2.005 0 0 0 2-2v-2.756A3.298 3.298 0 0 0 31.7 17.2zM7.333 24.667a1.997 1.997 0 0 1-1.848-1.235 2.006 2.006 0 0 1 .433-2.18 1.998 1.998 0 0 1 3.415 1.415 2.005 2.005 0 0 1-2 2zm17.334 0a1.997 1.997 0 0 1-1.848-1.235 2.006 2.006 0 0 1 .433-2.18 1.997 1.997 0 0 1 2.18-.433 2.003 2.003 0 0 1 1.235 1.848 2.005 2.005 0 0 1-2 2zM25.333 14h3.45l1.212 2.667h-4.662V14z"></path><path d="M.667 18.667H4a.665.665 0 0 0 .467-1.136.67.67 0 0 0-.467-.198H.667A.665.665 0 0 0 .2 18.469a.67.67 0 0 0 .467.198z"></path></g></svg>