<svg xmlns="http://www.w3.org/2000/svg" viewBox="0 0 32 32"><g fill="currentColor" class="nc-icon-wrapper"><path d="M29.277 2.697c-.505.089-1.22.324-2.367.707L11.159 8.655c-3.176 1.059-5.424 1.811-6.893 2.525-1.581.769-1.601 1.187-1.601 1.267s.02.497 1.601 1.267c1.469.713 3.717 1.467 6.893 2.525l.291.097.213.069c1.027.341 1.94.644 2.613 1.317s.976 1.587 1.317 2.613l.069.213.097.291c1.059 3.176 1.812 5.424 2.527 6.893.769 1.581 1.187 1.601 1.267 1.601s.496-.02 1.265-1.601c.715-1.469 1.467-3.717 2.525-6.893l5.251-15.751c.383-1.147.617-1.861.707-2.367l.004-.019.002-.011-.059.01.028-.004zm.346-.03zm-.287-.278v.001zM28.811.073c.733-.131 1.74-.169 2.512.604.773.773.733 1.777.604 2.512-.128.721-.431 1.627-.771 2.647l-5.319 15.955c-1.013 3.044-1.82 5.461-2.621 7.108C22.46 30.454 21.395 32 19.553 32c-1.84 0-2.907-1.547-3.663-3.101-.8-1.647-1.607-4.064-2.621-7.108l-.133-.4c-.455-1.367-.573-1.613-.743-1.784-.171-.171-.417-.288-1.785-.743l-.399-.133c-3.044-1.015-5.461-1.821-7.108-2.621C1.546 15.354 0 14.287 0 12.447S1.547 9.54 3.101 8.784c1.647-.801 4.064-1.607 7.108-2.621L26.162.844c1.021-.34 1.927-.643 2.648-.771z" fill="currentColor" class="nc-icon-wrapper"></path></g></svg>