<svg xmlns="http://www.w3.org/2000/svg" viewBox="0 0 32 32"><g fill="currentColor" class="nc-icon-wrapper"><path d="M25.907 11.262H12.984V7.816c0-.714.579-1.292 1.292-1.292h9.046a1.729 1.729 0 0 0 1.723-1.816 1.761 1.761 0 0 0-1.796-1.631H7.384a3.019 3.019 0 0 0-3.015 3.015v20.36a1.284 1.284 0 0 0-.623.6l-.624 1.247a.429.429 0 0 0 .386.623h10.338a.432.432 0 0 0 .386-.623l-.624-1.247a1.288 1.288 0 0 0-.623-.6V16.43h9.477v.861c0 .476.386.862.861.862h4.308a.862.862 0 0 0 .862-.862v-.981a.858.858 0 0 0 .431-.742v-1.292a3.019 3.019 0 0 0-3.015-3.015zm-20.676-.431h6.892v15.507H5.231V10.831zm0-4.738a2.157 2.157 0 0 1 2.154-2.154H23.25a.913.913 0 0 1 .935.815.861.861 0 0 1-.861.909h-9.046a2.157 2.157 0 0 0-2.154 2.154v2.154H5.232V6.094zM4.205 28.062l.312-.623a.427.427 0 0 1 .385-.238h7.55a.427.427 0 0 1 .385.238l.312.623H4.205zm23.426-10.769h-4.308v-.861h4.308v.861zm.43-1.724H12.984v-3.446h12.923a2.157 2.157 0 0 1 2.154 2.154v1.292z"></path><path d="M6.523 11.693a.431.431 0 0 0-.431.431v.862a.431.431 0 0 0 .862 0v-.862a.431.431 0 0 0-.431-.431z"></path><path d="M6.523 14.277a.431.431 0 0 0-.431.431v6.461a.431.431 0 0 0 .862 0v-6.461a.431.431 0 0 0-.431-.431z"></path><path d="M25.172 19.573c-.126.128-3.142 3.173-3.142 5.904a3.446 3.446 0 0 0 6.892 0c0-2.731-3.013-5.776-3.142-5.904a.43.43 0 0 0-.609 0zm.305 8.489a2.588 2.588 0 0 1-2.585-2.585c0-1.905 1.842-4.144 2.585-4.969.743.825 2.585 3.064 2.585 4.969a2.588 2.588 0 0 1-2.585 2.585z"></path></g></svg>