<svg xmlns="http://www.w3.org/2000/svg" viewBox="0 0 32 32"><g fill="currentColor" class="nc-icon-wrapper"><path d="M4.684 4.87h17.518c.371 0 .749 0 1.076.031.376.035.796.118 1.223.346s.728.532.966.826c.207.255.417.57.623.879l4.305 6.457c.255.381.511.765.694 1.117.209.403.393.888.393 1.475s-.184 1.073-.393 1.475c-.183.352-.44.736-.694 1.117L26.09 25.05c-.206.308-.415.623-.623.879-.238.293-.539.597-.966.825s-.847.311-1.223.346c-.328.031-.705.031-1.076.031H4.684c-.674 0-1.329 0-1.87-.072-.609-.082-1.304-.282-1.882-.859s-.777-1.273-.859-1.882c-.072-.541-.072-1.196-.072-1.87V9.555c0-.674 0-1.329.072-1.87.082-.609.282-1.304.859-1.882s1.273-.777 1.882-.859c.541-.072 1.196-.072 1.87-.072zM3.226 8.095l-.001.012c-.04.303-.044.738-.044 1.533v12.721c0 .794.003 1.231.044 1.533l.001.012.012.001c.303.04.738.044 1.533.044H22.15c.446 0 .672-.001.833-.017l.008-.001.005-.006c.102-.126.229-.314.477-.685l4.24-6.36c.304-.456.46-.694.554-.874l.004-.008-.004-.008c-.093-.179-.25-.417-.554-.874l-4.24-6.36a10.366 10.366 0 0 0-.494-.709l.017.024-.005-.006-.008-.001a10.124 10.124 0 0 0-.629-.019l-.215.002h.011H4.771c-.794 0-1.231.003-1.533.044l-.012.001z"></path><path d="M22.261 16a1.59 1.59 0 0 1-3.18 0 1.59 1.59 0 0 1 3.18 0z"></path><path d="M17.491 16a3.18 3.18 0 0 1 6.36 0 3.18 3.18 0 0 1-6.36 0z"></path></g></svg>