<svg xmlns="http://www.w3.org/2000/svg" viewBox="0 0 32 32"><g fill="currentColor" class="nc-icon-wrapper"><path d="M29.474 0H2.527C1.597 0 .843.754.843 1.684v4.362c0 .881.359 1.747.982 2.37l9.123 9.123v12.776a1.686 1.686 0 0 0 2.456 1.498l-.009.004-.01.004 6.737-3.368c.571-.286.931-.869.931-1.507v-9.408l9.123-9.123a3.368 3.368 0 0 0 .982-2.369V1.683c0-.93-.754-1.684-1.684-1.684zM18.178 15.651a1.664 1.664 0 0 0-.493 1.185v9.07l-3.368 1.684V16.839c0-.464-.189-.885-.493-1.188L4.212 6.046V3.368h23.581l.003 2.666-9.617 9.617z" fill="currentColor" class="nc-icon-wrapper"></path></g></svg>