<svg xmlns="http://www.w3.org/2000/svg" viewBox="0 0 32 32"><g fill="currentColor" class="nc-icon-wrapper"><path d="M11.117 10.35a2.358 2.358 0 0 1 2.352-2.364h5.725a2.358 2.358 0 0 1 2.352 2.364v10.515c0 .78-.629 1.412-1.405 1.412h-5.715a1.408 1.408 0 0 1-1.405-1.412v-5.351h-.499a1.408 1.408 0 0 1-1.405-1.412v-.863c0-.239.193-.433.431-.433s.431.194.431.433v.863c0 .302.244.547.544.547h.929c.238 0 .431.194.431.433v5.783c0 .302.244.547.544.547h5.715c.3 0 .544-.245.544-.547V10.35c0-.828-.668-1.498-1.491-1.498H13.47c-.823 0-1.491.671-1.491 1.498v.47c0 .239-.193.433-.431.433s-.431-.194-.431-.433v-.47z"></path><path d="M5.586 4.681c0-.239.193-.433.431-.433h4.576a.432.432 0 0 1 0 .866H6.447v1.211h19.096V5.114H12.602a.432.432 0 0 1 0-.866h13.372c.238 0 .431.194.431.433v2.076a.432.432 0 0 1-.431.433H6.016a.432.432 0 0 1-.431-.433V4.681z"></path><path d="M25.975 10.73c.238 0 .431.194.431.433v2.076a.432.432 0 0 1-.431.433h-4.859a.432.432 0 0 1-.431-.433v-2.076c0-.239.193-.433.431-.433h4.859zm-.431.866h-3.998v1.211h3.998v-1.211z"></path><path d="M13.451 17.212c.238 0 .431.194.431.433v2.076a.432.432 0 0 1-.431.433H6.017a.432.432 0 0 1-.431-.433v-2.076c0-.239.193-.433.431-.433h7.434zm-.43.866H6.448v1.211h6.573v-1.211z"></path><path d="M25.975 17.212c.238 0 .431.194.431.433v2.076a.432.432 0 0 1-.431.433h-4.859a.432.432 0 0 1-.431-.433v-2.076c0-.239.193-.433.431-.433h4.859zm-.431.866h-3.998v1.211h3.998v-1.211z"></path><path d="M5.586 24.127c0-.239.193-.433.431-.433h19.958c.238 0 .431.194.431.433v2.076a.432.432 0 0 1-.431.433h-8.942a.432.432 0 0 1 0-.866h8.512v-1.211H6.449v1.211h8.576a.432.432 0 0 1 0 .866H6.019a.432.432 0 0 1-.431-.433v-2.076z"></path><path d="M3.938 3.735v24.53h1.657V3.735H3.938zm1.657 24.543zM3.077 3.722a.85.85 0 0 1 .848-.852h1.683a.85.85 0 0 1 .848.852v24.557a.85.85 0 0 1-.848.852H3.925a.85.85 0 0 1-.848-.852V3.722z"></path><path d="M4.425 2.098v.772h.742v-.773h-.741v.001zm-.862 0c0-.479.386-.867.862-.867h.739c.476 0 .862.388.862.867v1.205a.432.432 0 0 1-.431.433H3.992a.432.432 0 0 1-.431-.433V2.098z"></path><path d="M3.631 28.392a.43.43 0 0 1 .304-.127h1.603c.238 0 .431.194.431.433v1.205a.864.864 0 0 1-.862.867h-.739a.864.864 0 0 1-.862-.867v-1.205c0-.115.045-.225.126-.306zm.736.738v.773h.74v-.773h-.742z"></path><path d="M26.405 3.735v24.53h1.657V3.735h-1.657zm-.861-.013a.85.85 0 0 1 .848-.852h1.683a.85.85 0 0 1 .848.852v24.557a.85.85 0 0 1-.848.852h-1.683a.85.85 0 0 1-.848-.852V3.722z"></path><path d="M26.892 2.098v.772h.742v-.773h-.741v.001zm-.861 0c0-.479.386-.867.863-.867h.739c.476 0 .863.388.863.867v1.205a.432.432 0 0 1-.431.433h-1.603a.432.432 0 0 1-.431-.433V2.098z"></path><path d="M25.973 28.698c0-.239.193-.433.431-.433h1.603c.238 0 .431.194.431.433v1.205a.865.865 0 0 1-.863.867h-.739a.865.865 0 0 1-.863-.867V28.698zm.861.432v.773h.741v-.773h-.742z"></path><path d="M13.451 10.014c.238 0 .431.194.431.433v4.634c0 .239-.193.433-.431.433s-.431-.194-.431-.433v-4.634c0-.239.193-.433.431-.433z"></path><path d="M13.451 10.73c.238 0 .431.194.431.433v2.076a.432.432 0 0 1-.431.433H6.017a.432.432 0 0 1-.431-.433v-2.076c0-.239.193-.433.431-.433h7.434zm-.43.866H6.448v1.211h6.573v-1.211z"></path></g></svg>