<svg xmlns="http://www.w3.org/2000/svg" viewBox="0 0 34 32"><g fill="currentColor" class="nc-icon-wrapper"><path d="M33.035 11.511c.625.491 1.099 1.461 1.099 2.257v1.472c0 .94-.76 1.703-1.7 1.707h-2.379a.495.495 0 0 0-.495.495v10.135c0 2.359-1.911 4.279-4.262 4.279H8.837c-2.351 0-4.262-1.92-4.262-4.279V17.442a.497.497 0 0 0-.495-.497H1.703a1.706 1.706 0 0 1-1.702-1.707v-1.47c0-.796.474-1.766 1.099-2.257L14.965.686c.567-.444 1.314-.687 2.103-.687h-.002.049c.776 0 1.491.258 2.057.687l13.865 10.825zM13.461 30.645h7.209v-7.106c0-1.997-1.619-3.618-3.605-3.618s-3.603 1.621-3.603 3.618v7.106zm18.968-14.912a.495.495 0 0 0 .495-.495v-1.47a1.958 1.958 0 0 0-.632-1.298l-.002-.001L18.428 1.642a2.232 2.232 0 0 0-1.323-.431h-.04.002c-.516 0-1.011.158-1.363.431L1.842 12.469a1.947 1.947 0 0 0-.633 1.295v1.475c0 .273.222.497.493.497h2.379c.94.004 1.7.766 1.7 1.707v10.135a3.066 3.066 0 0 0 3.055 3.068h3.422v-7.112a4.826 4.826 0 0 1 4.81-4.826h.001a4.826 4.826 0 0 1 4.811 4.826v7.113h3.42a3.064 3.064 0 0 0 3.055-3.066V17.443c0-.941.762-1.704 1.702-1.707h2.377z" fill="currentColor" class="nc-icon-wrapper"></path></g></svg>