<svg xmlns="http://www.w3.org/2000/svg" viewBox="0 0 32 32"><g fill="currentColor" class="nc-icon-wrapper"><path d="M2.667 16a13.327 13.327 0 0 1 7.516-11.998 13.33 13.33 0 0 1 14.074 1.531h-2.028a.665.665 0 0 0-.467 1.136.67.67 0 0 0 .467.198H26a.665.665 0 0 0 .666-.666V2.43a.665.665 0 0 0-1.136-.467.67.67 0 0 0-.198.467v2.257A14.668 14.668 0 0 0 5.627 26.372a.664.664 0 0 0 .938-.005.668.668 0 0 0 .005-.938 13.242 13.242 0 0 1-3.905-9.428z"></path><path d="M10.173 27.997a13.452 13.452 0 0 1-1.112-.608.665.665 0 0 0-.995.726c.042.172.15.32.301.412.396.242.808.467 1.225.669a.668.668 0 0 0 .791-1.041.66.66 0 0 0-.207-.157z"></path><path d="M28.003 10.186a.664.664 0 0 0 .639.375c.088-.005.173-.027.252-.066s.149-.092.208-.157a.677.677 0 0 0 .168-.482.654.654 0 0 0-.066-.252 14.7 14.7 0 0 0-.667-1.225.672.672 0 0 0-.412-.302.665.665 0 0 0-.727.994c.22.362.424.736.607 1.113z"></path><path d="M17.582 29.24c-.421.05-.847.08-1.266.09a.665.665 0 0 0-.641.674.669.669 0 0 0 .656.659h.016c.461-.011.929-.044 1.391-.098a.661.661 0 0 0 .583-.74.664.664 0 0 0-.74-.584z"></path><path d="M13.787 29.149c-.415-.069-.832-.16-1.239-.269a.663.663 0 0 0-.816.472.663.663 0 0 0 .472.816c.449.12.908.219 1.364.295a.67.67 0 0 0 .675-.305.672.672 0 0 0-.023-.74.659.659 0 0 0-.433-.27z"></path><path d="M30.012 15.679a.667.667 0 0 0-.683.65c-.011.422-.041.847-.091 1.266a.667.667 0 0 0 1.324.159c.055-.46.089-.928.1-1.391a.674.674 0 0 0-.183-.476.68.68 0 0 0-.467-.207z"></path><path d="M27.966 23.304a.67.67 0 0 0-.927.177c-.237.349-.493.69-.762 1.015a.67.67 0 0 0 .083.946.655.655 0 0 0 .231.124c.084.026.173.034.261.026a.655.655 0 0 0 .452-.245c.296-.357.578-.732.838-1.116.049-.072.084-.154.101-.24s.018-.174.002-.26a.66.66 0 0 0-.28-.426z"></path><path d="M28.884 12.561c.108.406.198.823.267 1.24a.667.667 0 1 0 1.315-.219 14.64 14.64 0 0 0-.294-1.364.666.666 0 0 0-1.221-.162.673.673 0 0 0-.068.506z"></path><path d="M24.484 26.287c-.326.27-.667.526-1.015.761a.66.66 0 0 0-.279.686.679.679 0 0 0 .286.423.678.678 0 0 0 .501.096.679.679 0 0 0 .24-.101c.382-.259.758-.54 1.116-.837a.67.67 0 0 0 .089-.939.67.67 0 0 0-.939-.089z"></path><path d="M29.536 19.638a.665.665 0 0 0-.837.433c-.128.4-.277.799-.443 1.188a.655.655 0 0 0 .128.736.678.678 0 0 0 .474.203.655.655 0 0 0 .477-.196.654.654 0 0 0 .145-.219c.184-.427.348-.868.488-1.308.027-.083.037-.171.029-.258s-.032-.172-.072-.25a.652.652 0 0 0-.39-.329z"></path><path d="M21.246 28.261c-.384.165-.784.314-1.188.442a.672.672 0 0 0-.462.579.682.682 0 0 0 .155.486.676.676 0 0 0 .453.234.682.682 0 0 0 .258-.029c.444-.142.884-.305 1.308-.487a.669.669 0 0 0 .351-.875.663.663 0 0 0-.875-.351z"></path><path d="M10.362 14.638c0-1.093-.718-1.968-1.83-2.231a2.775 2.775 0 0 0-3.128 1.471.65.65 0 0 0-.038.51.665.665 0 0 0 1.231.086 1.433 1.433 0 0 1 1.629-.769c.188.044.803.243.803.933 0 .695-.803 1.232-1.653 1.8-.957.639-2.042 1.363-2.042 2.562a.665.665 0 0 0 .666.666h3.695a.665.665 0 0 0 .467-1.136.67.67 0 0 0-.467-.198H7.054c.279-.265.674-.528 1.062-.787 1.053-.703 2.246-1.5 2.246-2.908z"></path><path d="M16.667 16.833a.665.665 0 0 0-.666-.666h-.542v-3.542a.663.663 0 0 0-.446-.629.664.664 0 0 0-.741.212l-3.375 4.208a.66.66 0 0 0-.081.705.67.67 0 0 0 .601.378h2.708v1.875a.667.667 0 1 0 1.334 0v-1.875h.542a.665.665 0 0 0 .666-.666zm-2.542-.666h-1.319l1.319-1.645v1.645z"></path><path d="M20.079 11.596a.67.67 0 0 0-.685.282.664.664 0 0 0-.099.24l-1.5 7.5a.664.664 0 0 0 .654.797.669.669 0 0 0 .653-.535l1.5-7.5a.67.67 0 0 0-.523-.784z"></path><path d="M23.5 19.667a.668.668 0 0 0 .616-.41l2.5-6a.663.663 0 0 0-.061-.627.67.67 0 0 0-.555-.297h-3.375a.665.665 0 0 0-.467 1.136.67.67 0 0 0 .467.198H25l-2.115 5.077a.663.663 0 0 0 .301.844.665.665 0 0 0 .314.079z"></path></g></svg>