<svg xmlns="http://www.w3.org/2000/svg" viewBox="0 0 27 32"><g fill="currentColor" class="nc-icon-wrapper"><path d="M19.56 7.414a1.116 1.116 0 1 1 1.356-1.774l-.002-.002c3.133 2.403 5.132 6.149 5.132 10.361 0 6.816-5.236 12.409-11.905 12.977l-.048.003 1.118 1.115.107.125a1.117 1.117 0 0 1-1.687 1.455l-2.976-2.976-.109-.126a1.115 1.115 0 0 1 .109-1.453l.496-.496c.561.103 1.207.162 1.866.162.42 0 .835-.024 1.243-.07l-.05.005-.008.008c5.43-.616 9.609-5.183 9.609-10.727 0-3.49-1.657-6.593-4.227-8.566l-.026-.019zm-8.725-5.51a1.117 1.117 0 1 1 1.58-1.578l2.976 2.976c.202.202.327.481.327.79s-.125.588-.327.79l-.496.496a10.537 10.537 0 0 0-1.867-.162c-.421 0-.835.024-1.244.07l.05-.005.008-.008C6.414 5.89 2.235 10.457 2.235 16c0 3.342 1.519 6.329 3.904 8.309l.018.014a1.116 1.116 0 0 1-.712 1.978c-.271 0-.52-.097-.714-.258l.002.001C1.833 23.638 0 20.033 0 16 0 9.185 5.234 3.593 11.901 3.024l.048-.003-1.114-1.115zm6.698 12.651a1.117 1.117 0 1 0-1.577-1.58l-.001.001-4.421 4.421-1.443-1.443a1.117 1.117 0 0 0-1.577 1.579l-.001-.001 2.232 2.234c.202.202.481.327.79.327s.588-.125.79-.327l5.208-5.21zM13.024 24.93c4.932 0 8.93-3.998 8.93-8.93s-3.998-8.93-8.93-8.93c-4.932 0-8.93 3.998-8.93 8.93s3.998 8.93 8.93 8.93zm0-2.232a6.698 6.698 0 0 1 0-13.396 6.698 6.698 0 0 1 0 13.396z" fill="currentColor" class="nc-icon-wrapper"></path></g></svg>