<svg xmlns="http://www.w3.org/2000/svg" viewBox="0 0 32 32"><g fill="currentColor" class="nc-icon-wrapper"><path d="M10.325 10.601a7.408 7.408 0 0 1 5.478-2.268h-.013c2.133 0 3.934.755 5.402 2.268 1.51 1.466 2.266 3.266 2.266 5.399s-.755 3.955-2.266 5.468c-1.468 1.466-3.268 2.197-5.402 2.197s-3.955-.732-5.466-2.197C8.856 19.955 8.125 18.134 8.125 16s.732-3.934 2.197-5.399zm1.933 8.932c.977.979 2.155 1.468 3.533 1.468s2.556-.491 3.535-1.468c.977-.977 1.466-2.155 1.466-3.533s-.491-2.556-1.466-3.533a4.789 4.789 0 0 0-3.456-1.468h-.007l-.072.001c-1.376 0-2.556.491-3.533 1.468a4.795 4.795 0 0 0-1.463 3.542v-.008c0 1.378.489 2.556 1.466 3.533zM24.992 6.799c.356.311.533.713.533 1.201 0 .491-.177.911-.533 1.267-.28.328-.694.534-1.156.534h-.001l-.044-.001h-.016c-.491 0-.934-.204-1.249-.533l-.001-.001a1.72 1.72 0 0 1-.533-1.247v-.02c0-.491.177-.89.533-1.201a1.72 1.72 0 0 1 1.247-.533h.017c.491 0 .89.179 1.201.533zm5.666 3.068c.043 1.201.066 3.243.066 6.133 0 2.889-.021 4.934-.064 6.133-.134 2.709-.958 4.821-2.468 6.334-1.468 1.466-3.556 2.244-6.268 2.334-1.199.087-3.243.132-6.133.132-2.889 0-4.932-.043-6.133-.134-2.709-.132-4.8-.932-6.266-2.398a6.407 6.407 0 0 1-1.382-1.832l-.017-.037c-.3-.565-.566-1.225-.763-1.914l-.018-.074-.019-.077a11.389 11.389 0 0 1-.201-2.161l.001-.19v.018c-.09-1.201-.134-3.243-.134-6.133 0-2.889.045-4.956.134-6.199.132-2.667.932-4.734 2.4-6.202 1.466-1.508 3.556-2.33 6.266-2.464 1.201-.045 3.245-.068 6.133-.068 2.891 0 4.934.021 6.133.066 2.711.134 4.8.956 6.268 2.468 1.51 1.466 2.334 3.554 2.466 6.266zm-3.2 14.933c.14-.38.256-.829.328-1.293l.005-.041c.09-.576.156-1.244.201-2.001.036-.562.06-1.237.066-1.915v-7.084c0-.491-.021-1.111-.064-1.867a18.966 18.966 0 0 0-.232-2.219l.015.11.014.108a7.204 7.204 0 0 0-.364-1.5l.016.05.016.05a4.862 4.862 0 0 0-2.801-2.845l-.033-.011-.033-.011a6.622 6.622 0 0 0-1.325-.325l-.037-.004-.038-.004a16.823 16.823 0 0 0-1.916-.198l-.04-.002-.043-.002a32.711 32.711 0 0 0-1.852-.066h-7.083a36.59 36.59 0 0 0-2.036.071l.103-.005c-.755.045-1.423.111-2.001.201a7.46 7.46 0 0 0-1.385.349l.052-.016a4.867 4.867 0 0 0-2.843 2.801l-.011.033-.011.033c-.143.39-.259.849-.327 1.324l-.004.037-.004.038a17.57 17.57 0 0 0-.196 1.959l-.002.042a30.976 30.976 0 0 0-.068 1.853v8.014c.045.666.09 1.244.134 1.732.103.982.268 1.866.495 2.724l-.028-.123c.576 1.378 1.532 2.334 2.865 2.867.356.132.8.243 1.333.333.578.09 1.246.156 2.001.201.8.043 1.423.066 1.867.066h7.134c.489 0 1.109-.021 1.867-.066.742-.035 1.43-.107 2.106-.215l-.107.014c.576-.09 1.045-.201 1.399-.333 1.378-.578 2.334-1.534 2.867-2.867z" fill="currentColor" class="nc-icon-wrapper"></path></g></svg>