<svg xmlns="http://www.w3.org/2000/svg" viewBox="0 0 32 32"><g fill="currentColor" class="nc-icon-wrapper"><path d="M12.477 29.432a.498.498 0 1 1-.997 0v-6.29c0-.424.184-.806.481-1.082.29-.269.68-.431 1.111-.431h5.851c.431 0 .828.163 1.11.431.297.276.482.658.482 1.082v6.29a.498.498 0 1 1-.997 0v-6.29a.48.48 0 0 0-.156-.353.655.655 0 0 0-.438-.163h-2.427v6.806a.498.498 0 1 1-.997 0v-6.807h-2.427a.646.646 0 0 0-.431.163.489.489 0 0 0-.163.353v6.29z"></path><path d="M11.07 14.921h3.268c.276 0 .495.22.495.495v3.043a.492.492 0 0 1-.495.495H11.07a.492.492 0 0 1-.495-.495v-3.043c0-.276.219-.495.495-.495zm0-6.049h3.268c.276 0 .495.219.495.495v3.042a.492.492 0 0 1-.495.495H11.07a.492.492 0 0 1-.495-.495V9.367c0-.276.219-.495.495-.495zm2.766.998h-2.264v2.037h2.264V9.87zm5.462 2.037c.276 0 .495.226.495.503s-.219.495-.495.495h-1.634a.499.499 0 0 1-.503-.495V9.368c0-.276.226-.495.503-.495s.495.219.495.495v2.54h1.139zm-1.634 3.014h3.261c.276 0 .502.22.502.495v3.043a.498.498 0 0 1-.502.495h-3.261a.499.499 0 0 1-.503-.495v-3.043c0-.276.227-.495.503-.495zm2.767.998H18.16v2.038h2.271V15.92zm-6.595 0h-2.264v2.038h2.264V15.92z"></path><path d="M24.407 15.324a.497.497 0 0 1-.863-.007l-4.287-7.266a5.423 5.423 0 0 1-.516-1.28 5.379 5.379 0 0 1-.17-1.359c0-1.493.602-2.844 1.585-3.828a5.398 5.398 0 0 1 3.828-1.585c1.493 0 2.844.609 3.827 1.585a5.423 5.423 0 0 1 1.585 3.828c0 .467-.064.92-.177 1.359a5.302 5.302 0 0 1-.509 1.273l-4.302 7.28zm-.424-1.231l3.863-6.545a4.387 4.387 0 0 0 .551-2.137c0-1.217-.495-2.321-1.294-3.12S25.2.996 23.983.996a4.402 4.402 0 0 0-3.127 1.295 4.423 4.423 0 0 0-1.288 3.12c0 .389.049.757.135 1.111.092.353.233.693.403 1.012l3.877 6.559z"></path><path d="M23.982 2.526c.793 0 1.514.326 2.037.849a2.85 2.85 0 0 1 .849 2.037 2.887 2.887 0 0 1-2.886 2.887 2.906 2.906 0 0 1-2.045-.842c-.524-.524-.842-1.245-.842-2.045s.318-1.521.842-2.038a2.883 2.883 0 0 1 2.045-.849zm1.329 1.549a1.883 1.883 0 0 0-2.667 0 1.9 1.9 0 0 0 0 2.674 1.885 1.885 0 0 0 2.667 0 1.876 1.876 0 0 0 0-2.674z"></path><path d="M26.288 24.303c-.276 0-.495-.226-.495-.502s.219-.495.495-.495h1.811a1.52 1.52 0 0 1 1.415.934l2.342 5.702c.099.241.134.481.106.722-.049.488-.375.941-.807 1.167-.219.113-.46.17-.714.17H1.561c-.255 0-.495-.057-.715-.17a1.545 1.545 0 0 1-.814-1.167 1.608 1.608 0 0 1 .106-.722l2.349-5.702a1.52 1.52 0 0 1 1.415-.934h1.797c.276 0 .495.22.495.495s-.219.502-.495.502H3.902a.507.507 0 0 0-.495.318l-2.342 5.702a.443.443 0 0 0-.042.234.543.543 0 0 0 .276.389.611.611 0 0 0 .262.057h28.88a.558.558 0 0 0 .255-.057.506.506 0 0 0 .276-.389.458.458 0 0 0-.035-.234l-2.342-5.702a.507.507 0 0 0-.495-.318h-1.812z"></path><path d="M23.479 17.468a.499.499 0 0 1 .997 0v11.964a.498.498 0 0 1-.495.502H8.02a.498.498 0 0 1-.495-.502V7.563c0-.425.184-.807.481-1.082a1.616 1.616 0 0 1 1.111-.439h7.874c.276 0 .495.226.495.502s-.22.502-.495.502H9.117a.62.62 0 0 0-.438.163.482.482 0 0 0-.156.354v21.373H23.48V17.468z"></path></g></svg>