<svg xmlns="http://www.w3.org/2000/svg" viewBox="0 0 32 32"><g fill="currentColor" class="nc-icon-wrapper"><path d="M1.455 15.769A3.245 3.245 0 0 0 4.7 19.014h1.153v-1.878H4.7a1.367 1.367 0 0 1-1.367-1.367V4.699c0-.755.612-1.367 1.367-1.367h22.6c.755 0 1.367.612 1.367 1.367v11.07c0 .755-.612 1.367-1.367 1.367h-1.153v1.878H27.3a3.245 3.245 0 0 0 3.245-3.245V4.699A3.245 3.245 0 0 0 27.3 1.454H4.7a3.245 3.245 0 0 0-3.245 3.245v11.07z"></path><path d="M13.966 9.134L3.74 2.163 2.682 3.715l10.238 6.98a5.552 5.552 0 0 0 6.159 0l.008-.005 10.231-6.974-1.058-1.552-10.226 6.971a3.673 3.673 0 0 1-4.067 0z"></path><path d="M12.755 22.688c0 1.79 1.455 3.245 3.245 3.245s3.245-1.455 3.245-3.245S17.79 19.443 16 19.443s-3.245 1.455-3.245 3.245zM16 24.055c-.753 0-1.367-.614-1.367-1.367s.614-1.367 1.367-1.367 1.367.614 1.367 1.367-.614 1.367-1.367 1.367z"></path><path d="M16 28.667a5.98 5.98 0 1 1 5.979-5.979 1.367 1.367 0 1 1-2.734 0h-1.878a3.245 3.245 0 0 0 6.49 0 7.858 7.858 0 1 0-15.716 0 7.858 7.858 0 0 0 10.48 7.41l-.627-1.771a5.979 5.979 0 0 1-1.995.341z"></path></g></svg>