<svg xmlns="http://www.w3.org/2000/svg" viewBox="0 0 32 32"><g fill="currentColor" class="nc-icon-wrapper"><path d="M25.24 8c.821 0 1.506.289 2.053.867.578.547.867 1.232.867 2.053V22.6a2.86 2.86 0 0 1-.867 2.099c-.548.548-1.232.821-2.053.821H7.72c-.821 0-1.521-.274-2.099-.821-.548-.578-.821-1.277-.821-2.099V10.92c0-.821.274-1.506.821-2.053A2.858 2.858 0 0 1 7.72 8h17.52zM7.72 10.19a.75.75 0 0 0-.548.228c-.122.122-.183.289-.183.502v1.004l7.619 6.342c.517.456 1.141.684 1.871.684s1.354-.228 1.871-.684l7.62-6.342V10.92a.608.608 0 0 0-.228-.502.608.608 0 0 0-.502-.228H7.72zm17.52 13.14c.213 0 .38-.061.502-.182a.748.748 0 0 0 .228-.548v-7.802l-6.205 5.156c-.943.791-2.038 1.186-3.285 1.186s-2.342-.395-3.285-1.186L6.99 14.798V22.6a.85.85 0 0 0 .183.548.848.848 0 0 0 .548.182h17.52z" fill="currentColor" class="nc-icon-wrapper"></path></g></svg>