<svg xmlns="http://www.w3.org/2000/svg" viewBox="0 0 25 32"><g fill="currentColor" class="nc-icon-wrapper"><path d="M3.499 3.499C5.834 1.166 8.668 0 12.001 0c3.334 0 6.167 1.166 8.5 3.499 2.333 2.334 3.5 5.167 3.5 8.501 0 .708-.041 1.334-.125 1.875-.041.501-.209 1.105-.501 1.813-.25.709-.5 1.292-.749 1.751-.209.458-.667 1.249-1.375 2.374a67.465 67.465 0 0 1-2.022 2.965l.148-.215c-.542.75-1.459 2.042-2.751 3.875a1889.617 1889.617 0 0 1-3.375 4.938c-.291.416-.707.625-1.249.625s-.958-.209-1.249-.625a281.652 281.652 0 0 0-4.435-6.411l.997 1.473a157.88 157.88 0 0 0-3.099-4.477l.411.602a61.397 61.397 0 0 1-1.704-2.472l-.171-.277c-.708-1.125-1.187-1.916-1.438-2.374a22.828 22.828 0 0 1-.616-1.389l-.133-.361c-.251-.708-.419-1.312-.502-1.813a25.11 25.11 0 0 1-.062-1.875c0-3.334 1.166-6.167 3.499-8.5zM12 29.626a146.68 146.68 0 0 1 3.275-4.672l-.338.485 2.374-3.375c.501-.75 1.063-1.583 1.688-2.5.349-.49.782-1.142 1.199-1.805l.114-.195c.25-.458.52-.959.812-1.501.291-.583.479-1.062.563-1.437.083-.375.146-.771.187-1.187.084-.417.126-.896.126-1.438 0-2.75-.981-5.105-2.938-7.063C17.104 2.98 14.749 2 11.999 2s-5.105.981-7.063 2.938c-1.958 1.958-2.938 4.313-2.938 7.063 0 .542.021 1.021.063 1.438.083.416.167.812.25 1.187.084.375.271.854.563 1.438l.812 1.5c.25.416.687 1.084 1.313 1.999.625.917 1.187 1.75 1.688 2.5.541.708 1.333 1.833 2.374 3.375a118.31 118.31 0 0 1 2.561 3.607l.377.58zM8.438 8.499c1-.999 2.187-1.5 3.562-1.5s2.541.501 3.499 1.5C16.5 9.458 17 10.624 17 11.999s-.501 2.562-1.5 3.562c-.959.959-2.125 1.438-3.5 1.438s-2.562-.479-3.562-1.438C7.479 14.561 7 13.374 7 11.999S7.479 9.458 8.438 8.5zm1.437 5.625c.526.54 1.26.875 2.073.875l.055-.001H12c.833 0 1.541-.291 2.125-.874.54-.526.875-1.26.875-2.073l-.001-.055v.003c0-.833-.291-1.541-.874-2.125a2.884 2.884 0 0 0-2.073-.875L11.997 9H12c-.833 0-1.541.291-2.125.874a2.884 2.884 0 0 0-.874 2.128v-.003c0 .833.291 1.541.874 2.125z" fill="currentColor" class="nc-icon-wrapper"></path></g></svg>