<svg xmlns="http://www.w3.org/2000/svg" viewBox="0 0 32 32"><g fill="currentColor" class="nc-icon-wrapper"><path d="M18.8 4A5.2 5.2 0 0 1 24 9.2v.277l6.182-3.709A1.2 1.2 0 0 1 32 6.797V25.2a1.2 1.2 0 0 1-1.828 1.023l.005.003L24 22.52v.28a5.2 5.2 0 0 1-5.2 5.2H5.2A5.2 5.2 0 0 1 0 22.8V9.2A5.2 5.2 0 0 1 5.2 4h13.6zm0 2.4H5.2a2.8 2.8 0 0 0-2.8 2.8v13.6a2.8 2.8 0 0 0 2.8 2.8h13.6a2.8 2.8 0 0 0 2.8-2.8V9.2a2.8 2.8 0 0 0-2.8-2.8zm10.8 2.517L24 12.279v7.442l5.6 3.36V8.917z" fill="currentColor" class="nc-icon-wrapper"></path></g></svg>