<svg xmlns="http://www.w3.org/2000/svg" viewBox="0 0 32 32"><g fill="currentColor" class="nc-icon-wrapper"><path d="M17.339 3.2v1.764c5.347 0 9.698 4.352 9.698 9.701H28.8C28.8 8.343 23.658 3.2 17.339 3.2zM8.214 5.851a2.07 2.07 0 0 0-1.301.454l-.043.035-2.773 2.861.059-.056a2.782 2.782 0 0 0-.777 3.088c.743 2.143 2.636 6.287 6.373 10.02 3.743 3.75 7.929 5.563 10 6.372l.021.007.02.007a3.172 3.172 0 0 0 3.056-.607l.026-.022 2.754-2.756c.732-.732.732-2.014 0-2.745l-3.612-3.618c-.733-.734-2.015-.734-2.749 0l-1.749 1.75c-.626-.299-2.167-1.074-3.632-2.471-1.444-1.379-2.182-2.972-2.449-3.589l1.763-1.764c.773-.773.817-2.103-.074-2.813l.08.075L9.555 6.34l-.041-.035a2.067 2.067 0 0 0-1.302-.454zm9.125.877v1.764a6.18 6.18 0 0 1 6.171 6.174h1.763c0-4.376-3.559-7.937-7.935-7.937zm-9.123.882c.063 0 .125.024.186.071l3.586 3.672.043.035c-.011-.009.034.076-.074.183L9.35 14.18l.201.533s.995 2.706 3.122 4.735c2.091 1.995 4.67 3.085 4.67 3.085l.549.235 2.625-2.627c.149-.148.107-.148.256 0l3.612 3.618c.15.15.15.101 0 .251l-2.686 2.687c-.409.348-.831.438-1.34.27-1.993-.78-5.895-2.487-9.359-5.958-3.489-3.486-5.298-7.447-5.961-9.366l-.004-.011-.005-.012c-.133-.353-.035-.865.278-1.135l.029-.026 2.692-2.777a.314.314 0 0 1 .188-.071zm9.123 2.645v1.764a2.649 2.649 0 0 1 2.645 2.646h1.763a4.414 4.414 0 0 0-4.408-4.41z" fill="currentColor" class="nc-icon-wrapper"></path></g></svg>