<svg xmlns="http://www.w3.org/2000/svg" viewBox="0 0 32 32"><g fill="currentColor" class="nc-icon-wrapper"><path d="M24.424 19.475c-.596-.62-1.314-.952-2.075-.952-.755 0-1.48.325-2.1.946l-1.94 1.934c-.16-.086-.319-.166-.473-.246-.221-.111-.43-.215-.608-.325-1.817-1.154-3.469-2.659-5.053-4.605-.767-.97-1.283-1.787-1.658-2.616.503-.46.97-.939 1.424-1.4.172-.172.344-.35.516-.522 1.289-1.289 1.289-2.959 0-4.249l-1.676-1.676c-.19-.19-.387-.387-.571-.583a28.306 28.306 0 0 0-1.154-1.142c-.596-.589-1.308-.903-2.057-.903s-1.474.313-2.088.903l-.012.012-2.088 2.106a4.49 4.49 0 0 0-1.332 2.855c-.147 1.793.381 3.463.786 4.556.995 2.683 2.481 5.17 4.697 7.834 2.689 3.211 5.925 5.747 9.621 7.534 1.412.669 3.297 1.461 5.403 1.596.129.006.264.012.387.012 1.418 0 2.609-.51 3.543-1.523.006-.012.018-.018.025-.031.319-.387.688-.737 1.074-1.111.264-.252.534-.516.798-.792.608-.632.927-1.369.927-2.124 0-.761-.325-1.492-.945-2.106l-3.371-3.383zm2.198 6.466c-.006 0-.006.006 0 0-.239.258-.485.491-.749.749-.399.381-.804.78-1.185 1.228-.62.663-1.351.976-2.309.976-.092 0-.19 0-.282-.006-1.824-.117-3.518-.829-4.789-1.437-3.475-1.682-6.527-4.071-9.062-7.098-2.094-2.523-3.494-4.857-4.421-7.362-.571-1.529-.78-2.72-.688-3.844a2.822 2.822 0 0 1 .847-1.824l2.094-2.094c.301-.282.62-.436.933-.436.387 0 .7.233.896.43l.018.018c.375.35.731.712 1.105 1.099.19.196.387.393.583.596l1.676 1.676c.651.651.651 1.253 0 1.903-.178.178-.35.356-.528.528a32.296 32.296 0 0 1-1.541 1.498c-.012.012-.025.018-.031.031-.528.528-.43 1.044-.319 1.394l.018.055c.436 1.056 1.05 2.051 1.983 3.236l.006.006c1.695 2.088 3.481 3.715 5.452 4.961.252.16.51.289.755.411.221.111.43.215.608.325.025.012.049.031.074.043.209.104.405.154.608.154.51 0 .829-.319.933-.424l2.1-2.1c.209-.209.54-.46.927-.46.381 0 .694.239.884.448l.012.012 3.383 3.383c.632.626.632 1.271.006 1.922z"></path><path d="M17.155 8.374c1.609.27 3.07 1.031 4.236 2.198s1.922 2.628 2.198 4.236a.824.824 0 0 0 .817.688c.049 0 .092-.006.141-.012a.83.83 0 0 0 .681-.958c-.331-1.946-1.253-3.721-2.658-5.127s-3.18-2.327-5.127-2.659c-.454-.074-.878.227-.958.675s.215.884.669.958z"></path><path d="M30.491 14.287c-.546-3.205-2.057-6.121-4.378-8.442s-5.237-3.831-8.442-4.378a.826.826 0 0 0-.952.675.833.833 0 0 0 .682.958 13.95 13.95 0 0 1 7.546 3.911 13.91 13.91 0 0 1 3.911 7.546.825.825 0 0 0 .817.688c.049 0 .092-.006.141-.012a.813.813 0 0 0 .675-.946z"></path></g></svg>