<svg xmlns="http://www.w3.org/2000/svg" viewBox="0 0 32 32"><g fill="currentColor" class="nc-icon-wrapper"><path d="M16 4.465c-4.174 0-7.57 3.396-7.57 7.57s3.396 7.57 7.57 7.57c4.175 0 7.571-3.396 7.571-7.57S20.175 4.465 16 4.465zm0 14.14c-3.622 0-6.57-2.948-6.57-6.57s2.948-6.57 6.57-6.57c3.623 0 6.571 2.947 6.571 6.57s-2.948 6.57-6.571 6.57z"></path><path d="M18.45 10.612l-2.828 2.828-1.768-1.768a.5.5 0 1 0-.707.707l2.121 2.122a.502.502 0 0 0 .707 0l3.182-3.182a.5.5 0 0 0-.707-.707z"></path><path d="M29.239 25.465l-3.35-5.801a.5.5 0 0 0-.866.5l2.956 5.119-3.58.301-2.727-4.726c2.899-1.87 4.828-5.122 4.828-8.823 0-5.79-4.711-10.5-10.5-10.5s-10.5 4.71-10.5 10.5c0 3.7 1.929 6.953 4.829 8.823l-2.728 4.725-3.579-.301 2.956-5.119a.5.5 0 1 0-.866-.5l-3.351 5.802a.498.498 0 0 0 .391.748l4.446.373 2.547 3.664a.499.499 0 0 0 .41.214l.021-.001a.499.499 0 0 0 .412-.249l3.349-5.801a.5.5 0 0 0-.866-.5l-2.955 5.118-2.05-2.949 2.727-4.724a10.426 10.426 0 0 0 9.612 0l2.727 4.724-2.05 2.949-2.954-5.118a.5.5 0 1 0-.866.5l3.348 5.8a.501.501 0 0 0 .412.25h.021c.164 0 .317-.08.411-.214l2.546-3.664 4.447-.373a.501.501 0 0 0 .392-.748zM6.5 12.035c0-5.239 4.262-9.5 9.5-9.5s9.5 4.261 9.5 9.5c0 5.238-4.261 9.5-9.5 9.5s-9.5-4.262-9.5-9.5z"></path></g></svg>