<svg xmlns="http://www.w3.org/2000/svg" viewBox="0 0 32 32"><g fill="currentColor" class="nc-icon-wrapper"><path d="M13.333 5.973L9.92 13.546l-.64 1.387 1.28.853c1.707 1.067 2.453 2.347 2.453 4.16 0 1.92-.533 3.307-1.6 4.373s-2.347 1.493-4.053 1.493c-1.707 0-2.987-.533-4.053-1.493s-1.6-2.24-1.6-3.84c0-1.813.533-3.52 1.813-5.227l6.293-9.173h3.52v-.107zM16 4.267H8.96l-6.827 9.92C.746 16.214 0 18.24 0 20.374s.747 3.84 2.133 5.227c1.387 1.28 3.2 2.027 5.333 2.027s3.84-.64 5.227-2.027c1.387-1.387 2.133-3.2 2.133-5.547s-1.067-4.267-3.307-5.653l4.48-10.133z"></path><path d="M29.013 5.973L25.6 13.546l-.64 1.387 1.28.853c1.707 1.067 2.453 2.347 2.453 4.16 0 1.92-.533 3.307-1.6 4.373s-2.347 1.493-4.053 1.493c-1.707 0-2.987-.533-4.053-1.493s-1.6-2.24-1.6-3.84c0-1.813.533-3.52 1.813-5.227l6.4-9.28h3.413zm2.774-1.706H24.64l-6.827 9.92c-1.387 2.027-2.133 4.053-2.133 6.187s.747 3.84 2.133 5.227c1.387 1.28 3.2 2.027 5.333 2.027s3.84-.64 5.227-2.027c1.387-1.387 2.133-3.2 2.133-5.547s-1.067-4.267-3.307-5.653l4.587-10.133z"></path></g></svg>