<svg xmlns="http://www.w3.org/2000/svg" viewBox="0 0 32 32"><g fill="currentColor" class="nc-icon-wrapper"><path d="M24.292 2H7.707a1.997 1.997 0 0 0-2 2v24a1.997 1.997 0 0 0 2 2h16.585a1.997 1.997 0 0 0 2-2V4a1.997 1.997 0 0 0-2-2zm1 26a1.003 1.003 0 0 1-1 1H7.707a1.003 1.003 0 0 1-1-1V4a1.003 1.003 0 0 1 1-1h16.585a1.003 1.003 0 0 1 1 1v24z"></path><path d="M22.413 4.38H9.587a1.5 1.5 0 0 0-1.5 1.5v20.239a1.5 1.5 0 0 0 1.5 1.5h12.826a1.5 1.5 0 0 0 1.5-1.5V5.88a1.5 1.5 0 0 0-1.5-1.5zm.5 21.74c0 .133-.053.26-.147.353s-.221.146-.353.147H9.587c-.133 0-.26-.053-.353-.147s-.146-.221-.147-.353V5.881c0-.133.053-.26.147-.353s.221-.146.353-.147h12.826c.133 0 .26.053.353.147s.146.221.147.353V26.12z"></path></g></svg>