<svg xmlns="http://www.w3.org/2000/svg" viewBox="0 0 32 32"><g fill="currentColor" class="nc-icon-wrapper"><path d="M29.345 14.357a13.122 13.122 0 0 0-12.802-11.48l.9-.893a.703.703 0 0 0 .208-.489.695.695 0 0 0-.425-.643.689.689 0 0 0-.755.151l-2.188 2.17a.704.704 0 0 0-.205.487.69.69 0 0 0 .2.49l2.188 2.206a.703.703 0 0 0 .489.208.695.695 0 0 0 .643-.425.689.689 0 0 0-.151-.755l-1.116-1.125a11.742 11.742 0 0 1 7.331 20.91.691.691 0 0 0 .355 1.224.69.69 0 0 0 .508-.148c3.593-2.881 5.394-7.326 4.819-11.89z"></path><path d="M16.184 25.643a.703.703 0 0 0-.489-.208.692.692 0 0 0-.492 1.181l1.116 1.125a11.74 11.74 0 0 1-11.073-7.857A11.741 11.741 0 0 1 8.987 6.832a.69.69 0 0 0-.358-1.226.69.69 0 0 0-.508.148C4.53 8.635 2.73 13.08 3.305 17.642a13.122 13.122 0 0 0 12.802 11.48l-.901.893a.703.703 0 0 0-.208.489.695.695 0 0 0 .425.643.689.689 0 0 0 .756-.151l2.188-2.17a.704.704 0 0 0 .205-.487.69.69 0 0 0-.2-.49l-2.188-2.206z"></path><path d="M16.874 15.454c-.098-.038-.19-.072-.269-.107a7.512 7.512 0 0 0-.306-.122c-.654-.248-1.009-.445-1.009-.77 0-.144.153-.366.446-.514.207-.105.955-.392 1.908.309a.695.695 0 0 0 .514.129.686.686 0 0 0 .569-.519.701.701 0 0 0-.081-.524.685.685 0 0 0-.184-.199 3.72 3.72 0 0 0-1.445-.656v-.625a.689.689 0 0 0-.691-.684.69.69 0 0 0-.691.684v.658a2.76 2.76 0 0 0-.523.194c-.742.376-1.203 1.045-1.203 1.747 0 1.34 1.283 1.827 1.9 2.061.089.034.171.064.239.094.099.044.212.087.334.134.678.259.981.43.981.758 0 .143-.153.366-.446.514-.207.105-.955.392-1.908-.309a.69.69 0 0 0-.817 1.113c.429.321.922.546 1.445.66v.664a.689.689 0 0 0 .691.684.69.69 0 0 0 .691-.684v-.698a2.77 2.77 0 0 0 .523-.197c.742-.376 1.203-1.045 1.203-1.747 0-1.334-1.216-1.799-1.869-2.048z"></path><path d="M16.326 8.402a7.595 7.595 0 0 0-7.019 4.691 7.591 7.591 0 0 0 1.648 8.28 7.6 7.6 0 0 0 11.69-1.151 7.599 7.599 0 0 0 1.28-4.221 7.607 7.607 0 0 0-7.598-7.598zm0 13.815a6.216 6.216 0 1 1 6.216-6.216 6.228 6.228 0 0 1-6.217 6.217z"></path></g></svg>