<svg xmlns="http://www.w3.org/2000/svg" viewBox="0 0 32 32"><g fill="currentColor" class="nc-icon-wrapper"><path d="M20.23 6.692l-.012-.001h-6.5l1.504-1.504a1.165 1.165 0 0 0-1.646-1.646l-3.491 3.491a1.23 1.23 0 0 0-.077.085l-.031.041-.037.05c-.012.017-.021.034-.031.051l-.028.047-.025.053c-.008.018-.016.033-.023.051l-.019.052a.527.527 0 0 0-.019.056l-.014.053-.014.058c-.004.02-.006.041-.009.061-.002.017-.006.034-.007.051a1.088 1.088 0 0 0-.006.114v.002c0 .038.002.076.006.114l.007.051c.003.02.005.041.009.061a.984.984 0 0 0 .028.111l.019.056.019.052.023.051.025.053a1.161 1.161 0 0 0 .059.098.586.586 0 0 0 .037.05l.031.041c.024.03.05.058.077.085l3.491 3.491a1.165 1.165 0 0 0 1.646-1.646l-1.504-1.504h6.49l.009.001a6.976 6.976 0 0 1 6.982 6.982 6.313 6.313 0 0 1-1.861 4.474 1.164 1.164 0 0 0 1.647 1.645 8.642 8.642 0 0 0 2.542-6.119 9.303 9.303 0 0 0-9.296-9.309z"></path><path d="M21.148 24.841l.037-.05c.012-.017.021-.034.031-.051l.028-.047a.86.86 0 0 0 .025-.053l.023-.05.019-.052c.007-.018.014-.036.019-.055l.014-.053.014-.058c.004-.02.006-.041.009-.062.002-.017.006-.034.007-.051a1.105 1.105 0 0 0 0-.23l-.007-.051-.009-.062c-.004-.021-.009-.038-.014-.058a.518.518 0 0 0-.014-.053l-.019-.055a.797.797 0 0 0-.019-.052l-.023-.05a.432.432 0 0 0-.026-.053c-.008-.016-.018-.031-.028-.047l-.031-.051c-.011-.017-.024-.033-.037-.05a1.2 1.2 0 0 0-.107-.126l-.001-.001-3.491-3.491a1.165 1.165 0 0 0-1.646 1.646l1.504 1.504h-6.499a6.976 6.976 0 0 1-6.982-6.982c0-1.695.677-3.289 1.861-4.474a1.164 1.164 0 0 0-1.647-1.645 8.64 8.64 0 0 0-2.542 6.119 9.303 9.303 0 0 0 9.296 9.309l.012.001h6.5l-1.504 1.504a1.165 1.165 0 0 0 1.646 1.646l3.491-3.491a1.23 1.23 0 0 0 .108-.127z"></path></g></svg>