<svg xmlns="http://www.w3.org/2000/svg" viewBox="0 0 32 32"><g fill="currentColor" class="nc-icon-wrapper"><path d="M12.75 2A10.755 10.755 0 0 0 2.207 14.847a10.754 10.754 0 0 0 8.446 8.446 10.745 10.745 0 0 0 11.035-4.571A10.752 10.752 0 0 0 23.5 12.75 10.762 10.762 0 0 0 12.75 2zm0 19.5a8.744 8.744 0 0 1-8.084-5.402 8.75 8.75 0 1 1 16.835-3.349 8.758 8.758 0 0 1-8.75 8.75z"></path><path d="M29.707 28.293l-7.272-7.272c-.434.507-.907.98-1.414 1.414l7.272 7.272a1.002 1.002 0 0 0 1.401-.012c.185-.185.29-.436.293-.698s-.098-.515-.281-.703z"></path></g></svg>