<svg xmlns="http://www.w3.org/2000/svg" viewBox="0 0 32 32"><g fill="currentColor" class="nc-icon-wrapper"><path d="M7.111 18.889v-1.778H4.889v1.798a8.204 8.204 0 0 0 8.203 8.203h1.798V24.89h-1.801a5.977 5.977 0 0 1-5.977-5.977v-.023zm22.222-.667h-8.889a2.231 2.231 0 0 0-2.222 2.222v8.889a2.231 2.231 0 0 0 2.222 2.222h8.889a2.231 2.231 0 0 0 2.222-2.222v-8.889a2.231 2.231 0 0 0-2.222-2.222zm-8.889 11.111v-8.889h8.889v8.889h-8.889zm4.445-16.222v1.778h2.222v-1.798a8.204 8.204 0 0 0-8.203-8.203H17.11V7.11h1.802c3.3 0 5.976 2.676 5.976 5.976v.024zM11.556.444H2.667A2.227 2.227 0 0 0 .445 2.666v8.889a2.231 2.231 0 0 0 2.222 2.222h8.889a2.231 2.231 0 0 0 2.222-2.222V2.666A2.231 2.231 0 0 0 11.556.444zM2.667 11.556V2.667h8.889v8.889H2.667z" fill="currentColor" class="nc-icon-wrapper"></path></g></svg>