<svg xmlns="http://www.w3.org/2000/svg" viewBox="0 0 32 32"><g fill="currentColor" class="nc-icon-wrapper"><path d="M16.046 10.39A5.61 5.61 0 1 0 21.657 16v-.001a5.613 5.613 0 0 0-5.61-5.611zM12.306 16a3.74 3.74 0 1 1 7.48 0 3.74 3.74 0 1 1-7.48 0zm13.351 10.466l-2.154-.945c-.616-.27-1.34-.231-1.922.107s-.954.932-1.028 1.602l-.259 2.343a1.153 1.153 0 0 1-.86.989l-.008.002-.008.002c-1.013.252-2.177.397-3.374.397s-2.361-.145-3.474-.417l.1.021a1.156 1.156 0 0 1-.875-.983l-.001-.006v-.005l-.259-2.339c-.076-.669-.464-1.261-1.046-1.598s-1.288-.375-1.902-.107l-2.154.946a1.142 1.142 0 0 1-1.299-.267l-.001-.001-.001-.001a15.014 15.014 0 0 1-3.316-5.612l-.03-.106-.029-.107a1.145 1.145 0 0 1 .41-1.262l.003-.002.003-.002 1.904-1.405a2.122 2.122 0 0 0 .011-3.408l-.006-.004-.006-.004-1.903-1.403a1.152 1.152 0 0 1-.412-1.284l-.002.008-.002.008A15.115 15.115 0 0 1 5.15 5.788l-.008.008-.008.008a1.146 1.146 0 0 1 1.314-.261l-.007-.003-.007-.003 2.145.944c.617.271 1.327.23 1.912-.112.57-.336.966-.917 1.044-1.594l.001-.01.26-2.341c.055-.489.413-.889.892-.996a15.39 15.39 0 0 1 3.355-.388h.016c1.124.013 2.244.143 3.341.388.479.107.837.507.892.996l.261 2.343a2.125 2.125 0 0 0 2.105 1.892c.29 0 .578-.06.846-.179l2.145-.944a1.141 1.141 0 0 1 1.299.266l.001.001.001.001a14.99 14.99 0 0 1 3.318 5.607l.03.106.029.107a1.145 1.145 0 0 1-.41 1.262l-.003.002-.003.002-1.901 1.404c-.542.399-.87 1.033-.87 1.708s.328 1.308.871 1.708l1.903 1.405c.394.291.561.799.416 1.267a15.127 15.127 0 0 1-3.391 5.834l.008-.008.008-.009a1.139 1.139 0 0 1-1.315.263l.007.003.007.003zm-6.79-.247a3.99 3.99 0 0 1 1.741-2.19l.036-.02a3.923 3.923 0 0 1 1.992-.536h.013-.001.008a3.96 3.96 0 0 1 1.648.356l-.025-.01-.026-.01 1.676.736a13.12 13.12 0 0 0 2.398-4.053l.029-.091.029-.092-1.483-1.095c-1.011-.744-1.631-1.932-1.631-3.214s.62-2.468 1.63-3.213l.001-.001 1.48-1.093a13.22 13.22 0 0 0-2.485-4.268l.014.016.014.016-1.664.733a3.803 3.803 0 0 1-1.582.338h-.021A3.994 3.994 0 0 1 18.7 5.009l-.002-.019-.002-.018V4.97l-.202-1.82a13.337 13.337 0 0 0-2.414-.24h-.018c-.878.011-1.728.098-2.554.255l.091-.014-.203 1.822a4.003 4.003 0 0 1-5.619 3.199l.025.01.025.01-1.666-.733a13.098 13.098 0 0 0-2.399 4.052l-.029.091-.029.092 1.483 1.094a3.992 3.992 0 0 1 .022 6.41l-.01.007-.011.008-1.485 1.096a13.239 13.239 0 0 0 2.485 4.274l-.014-.016-.014-.016 1.677-.736c1.159-.507 2.491-.432 3.587.201s1.826 1.749 1.969 3.006l.001.006.202 1.825c1.616.318 3.279.318 4.895 0l.202-1.829c.03-.274.088-.544.172-.804z" fill="currentColor" class="nc-icon-wrapper"></path></g></svg>