<svg xmlns="http://www.w3.org/2000/svg" viewBox="0 0 32 32"><g fill="currentColor" class="nc-icon-wrapper"><path d="M30.09 7.041a2.663 2.663 0 0 0-2.108-1.043H8.531l-.212-.73a3.629 3.629 0 0 0-3.467-2.603H2.367a1 1 0 0 0 0 2h2.485c.712 0 1.348.478 1.546 1.162l3.906 13.458a3.63 3.63 0 0 0 3.467 2.604h13.095a1 1 0 0 0 0-2H13.771a1.618 1.618 0 0 1-1.546-1.161L9.111 8h18.871a.652.652 0 0 1 .627.822l-1.39 5.069a1.36 1.36 0 0 1-1.309.998H14.256a1 1 0 0 0 0 2H25.91a3.366 3.366 0 0 0 3.238-2.469l1.39-5.069a2.668 2.668 0 0 0-.448-2.309z"></path><path d="M15.146 22.891c-1.777 0-3.223 1.446-3.223 3.222s1.445 3.223 3.223 3.223c1.776 0 3.222-1.446 3.222-3.223s-1.446-3.222-3.222-3.222zm0 4.444c-.674 0-1.223-.549-1.223-1.222s.549-1.222 1.223-1.222a1.223 1.223 0 0 1 0 2.444z"></path><path d="M24.034 22.891c-1.777 0-3.222 1.446-3.222 3.222s1.446 3.223 3.222 3.223c1.777 0 3.222-1.446 3.222-3.223s-1.445-3.222-3.222-3.222zm0 4.444c-.674 0-1.222-.549-1.222-1.222s.548-1.222 1.222-1.222a1.223 1.223 0 0 1 0 2.444z"></path></g></svg>