<svg xmlns="http://www.w3.org/2000/svg" viewBox="0 0 32 32"><g fill="currentColor" class="nc-icon-wrapper"><path d="M12.845 22.349a3.879 3.879 0 0 0-3.579 2.392 3.873 3.873 0 0 0 2.824 5.283 3.873 3.873 0 0 0 3.495-6.539 3.885 3.885 0 0 0-2.74-1.136zm0 5.751a1.872 1.872 0 0 1-1.837-2.241 1.872 1.872 0 0 1 3.397-.675 1.877 1.877 0 0 1-.234 2.368 1.875 1.875 0 0 1-1.326.549z"></path><path d="M23.456 22.349a3.879 3.879 0 0 0-3.579 2.392 3.873 3.873 0 0 0 2.824 5.283 3.876 3.876 0 0 0 3.495-6.539 3.885 3.885 0 0 0-2.74-1.136zm0 5.751a1.872 1.872 0 0 1-1.837-2.241 1.872 1.872 0 0 1 3.397-.675 1.875 1.875 0 0 1-1.56 2.917z"></path><path d="M15.07 16.7v-5a.997.997 0 0 0-1-1 .997.997 0 0 0-1 1v5a.997.997 0 0 0 1 1 .997.997 0 0 0 1-1z"></path><path d="M19.57 16.7v-5a.997.997 0 0 0-1-1 .997.997 0 0 0-1 1v5a.997.997 0 0 0 1 1 .997.997 0 0 0 1-1z"></path><path d="M24.07 16.7v-5a.997.997 0 0 0-1-1 .997.997 0 0 0-1 1v5a.997.997 0 0 0 1 1 .997.997 0 0 0 1-1z"></path><path d="M30.63 8.479a2.948 2.948 0 0 0-2.5-1.4H10.538a.997.997 0 0 0-1 1 .997.997 0 0 0 1 1h17.588a.95.95 0 0 1 .803.447.948.948 0 0 1 .041.918c-1.069 2.138-2.586 6.905-3.344 8.423a.944.944 0 0 1-.844.521H11.834a.944.944 0 0 1-.879-.6L8.045 5.725A4.888 4.888 0 0 0 3.275 1.9h-1.2a1.01 1.01 0 0 0-1.045.584 1.005 1.005 0 0 0 .252 1.171 1.003 1.003 0 0 0 .793.243h1.2a2.885 2.885 0 0 1 2.818 2.26l2.921 13.121c.008.034.017.067.028.1a2.94 2.94 0 0 0 2.792 2.013h12.948a2.94 2.94 0 0 0 2.633-1.628c.759-1.517 2.276-6.285 3.345-8.423a2.945 2.945 0 0 0-.129-2.865z"></path></g></svg>