<svg xmlns="http://www.w3.org/2000/svg" viewBox="0 0 32 32"><g fill="currentColor" class="nc-icon-wrapper"><path d="M27.735 0a2.667 2.667 0 0 0-2.667 2.667v1.067h-11.2a3.2 3.2 0 0 0-3.2 3.2v2.133a2.665 2.665 0 0 0-1.067 2.101 7.466 7.466 0 0 0-4.8 6.523 1.599 1.599 0 0 0 .534 3.109h13.867a1.6 1.6 0 0 0 .533-3.11 7.468 7.468 0 0 0-4.8-6.523 2.665 2.665 0 0 0-1.067-2.101v-1.6c0-.295.239-.533.533-.533h10.667V8a2.667 2.667 0 0 0 2.667 2.667.533.533 0 0 0 .533-.533v-9.6a.533.533 0 0 0-.533-.533zM12.657 9.669a1.6 1.6 0 0 1 1.163 1.163 7.425 7.425 0 0 0-3.104 0 1.6 1.6 0 0 1 1.941-1.163zm7.078 9.531a.533.533 0 0 1-.533.533H5.335a.533.533 0 1 1 0-1.066h13.867c.295 0 .533.239.533.533zm-1.094-1.6H5.894a6.4 6.4 0 0 1 12.747 0zm6.427-11.733H14.401a1.6 1.6 0 0 0-1.6 1.6v1.12a2.662 2.662 0 0 0-1.067 0V6.934c0-1.178.955-2.133 2.133-2.133h11.2v1.067zm2.133 3.642A1.6 1.6 0 0 1 26.134 8V2.667a1.6 1.6 0 0 1 1.067-1.509V9.51z"></path><path d="M6.935 24.533A.533.533 0 0 0 7.468 24v-1.6a.533.533 0 1 0-1.066 0V24c0 .295.239.533.533.533z"></path><path d="M9.068 24.533A.533.533 0 0 0 9.601 24v-1.6a.533.533 0 1 0-1.066 0V24c0 .295.239.533.533.533z"></path><path d="M11.201 24.533a.533.533 0 0 0 .533-.533v-1.6a.533.533 0 1 0-1.066 0V24c0 .295.239.533.533.533z"></path><path d="M13.335 24.533a.533.533 0 0 0 .533-.533v-1.6a.533.533 0 1 0-1.066 0V24c0 .295.239.533.533.533z"></path><path d="M15.468 24.533a.533.533 0 0 0 .533-.533v-1.6a.533.533 0 1 0-1.066 0V24c0 .295.239.533.533.533z"></path><path d="M17.601 24.533a.533.533 0 0 0 .533-.533v-1.6a.533.533 0 1 0-1.066 0V24c0 .295.239.533.533.533z"></path><path d="M6.401 26.133a.533.533 0 1 0-1.066 0v1.6a.533.533 0 1 0 1.066 0v-1.6z"></path><path d="M8.535 26.133a.533.533 0 1 0-1.066 0v1.6a.533.533 0 1 0 1.066 0v-1.6z"></path><path d="M10.668 26.133a.533.533 0 1 0-1.066 0v1.6a.533.533 0 1 0 1.066 0v-1.6z"></path><path d="M12.801 26.133a.533.533 0 1 0-1.066 0v1.6a.533.533 0 1 0 1.066 0v-1.6z"></path><path d="M14.935 26.133a.533.533 0 1 0-1.066 0v1.6a.533.533 0 1 0 1.066 0v-1.6z"></path><path d="M17.068 26.133a.533.533 0 1 0-1.066 0v1.6a.533.533 0 1 0 1.066 0v-1.6z"></path><path d="M19.201 26.133a.533.533 0 1 0-1.066 0v1.6a.533.533 0 1 0 1.066 0v-1.6z"></path><path d="M4.801 29.333a.533.533 0 0 0-.533.533v1.6a.533.533 0 1 0 1.066 0v-1.6a.533.533 0 0 0-.533-.533z"></path><path d="M6.935 29.333a.533.533 0 0 0-.533.533v1.6a.533.533 0 1 0 1.066 0v-1.6a.533.533 0 0 0-.533-.533z"></path><path d="M9.068 29.333a.533.533 0 0 0-.533.533v1.6a.533.533 0 1 0 1.066 0v-1.6a.533.533 0 0 0-.533-.533z"></path><path d="M11.201 29.333a.533.533 0 0 0-.533.533v1.6a.533.533 0 1 0 1.066 0v-1.6a.533.533 0 0 0-.533-.533z"></path><path d="M13.335 29.333a.533.533 0 0 0-.533.533v1.6a.533.533 0 1 0 1.066 0v-1.6a.533.533 0 0 0-.533-.533z"></path><path d="M15.468 29.333a.533.533 0 0 0-.533.533v1.6a.533.533 0 1 0 1.066 0v-1.6a.533.533 0 0 0-.533-.533z"></path><path d="M17.601 29.333a.533.533 0 0 0-.533.533v1.6a.533.533 0 1 0 1.066 0v-1.6a.533.533 0 0 0-.533-.533z"></path><path d="M19.735 29.333a.533.533 0 0 0-.533.533v1.6a.533.533 0 1 0 1.066 0v-1.6a.533.533 0 0 0-.533-.533z"></path></g></svg>