<svg xmlns="http://www.w3.org/2000/svg" viewBox="0 0 32 32"><g fill="currentColor" class="nc-icon-wrapper"><path d="M29.682 27.323h-.472v-1.415a.472.472 0 0 0-.472-.472h-.472V2.318a.472.472 0 0 0-.472-.472H4.204a.472.472 0 0 0-.472.472v23.118H3.26a.472.472 0 0 0-.472.472v1.415h-.472a.472.472 0 0 0-.472.472v1.887c0 .261.211.472.472.472H29.68a.472.472 0 0 0 .472-.472v-1.887a.472.472 0 0 0-.472-.472zm-5.661-12.738h.944V16h-.944v-1.415zm0 2.359h1.415a.472.472 0 0 0 .472-.472v-2.359a.472.472 0 0 0-.472-.472h-1.415V2.79h3.303v22.646h-3.303v-8.492zM8.923 2.79h6.605v1.458c-1.599.264-2.831 1.845-2.831 3.732 0 .261.211.472.472.472h5.662a.472.472 0 0 0 .472-.472c0-1.887-1.231-3.468-2.831-3.732V2.79h6.605v22.646H8.923V2.79zM16 5.149c1.165 0 2.137 1.024 2.326 2.359h-4.652c.189-1.335 1.161-2.359 2.326-2.359zM4.677 2.79H7.98v10.851H6.565a.472.472 0 0 0-.472.472v2.359c0 .261.211.472.472.472H7.98v8.492H4.677V2.79zm3.302 11.795V16h-.944v-1.415h.944zM3.733 26.379h24.533v.944H3.733v-.944zM29.21 29.21H2.79v-.944h26.421v.944z"></path><path d="M15.056 9.395a.472.472 0 0 0-.472.472v.472a.472.472 0 1 0 .944 0v-.472a.472.472 0 0 0-.472-.472z"></path><path d="M15.056 11.754a.472.472 0 0 0-.472.472v.472a.472.472 0 1 0 .944 0v-.472a.472.472 0 0 0-.472-.472z"></path><path d="M15.056 14.113a.472.472 0 0 0-.472.472v.472a.472.472 0 1 0 .944 0v-.472a.472.472 0 0 0-.472-.472z"></path><path d="M15.056 16.472a.472.472 0 0 0-.472.472v.472a.472.472 0 1 0 .944 0v-.472a.472.472 0 0 0-.472-.472z"></path><path d="M13.169 9.395a.472.472 0 0 0-.472.472v.472a.472.472 0 1 0 .944 0v-.472a.472.472 0 0 0-.472-.472z"></path><path d="M13.169 11.754a.472.472 0 0 0-.472.472v.472a.472.472 0 1 0 .944 0v-.472a.472.472 0 0 0-.472-.472z"></path><path d="M13.169 14.113a.472.472 0 0 0-.472.472v.472a.472.472 0 1 0 .944 0v-.472a.472.472 0 0 0-.472-.472z"></path><path d="M13.169 16.472a.472.472 0 0 0-.472.472v.472a.472.472 0 1 0 .944 0v-.472a.472.472 0 0 0-.472-.472z"></path><path d="M16.944 9.395a.472.472 0 0 0-.472.472v.472a.472.472 0 1 0 .944 0v-.472a.472.472 0 0 0-.472-.472z"></path><path d="M16.944 11.754a.472.472 0 0 0-.472.472v.472a.472.472 0 1 0 .944 0v-.472a.472.472 0 0 0-.472-.472z"></path><path d="M16.944 14.113a.472.472 0 0 0-.472.472v.472a.472.472 0 1 0 .944 0v-.472a.472.472 0 0 0-.472-.472z"></path><path d="M16.944 16.472a.472.472 0 0 0-.472.472v.472a.472.472 0 1 0 .944 0v-.472a.472.472 0 0 0-.472-.472z"></path><path d="M18.831 9.395a.472.472 0 0 0-.472.472v.472a.472.472 0 1 0 .944 0v-.472a.472.472 0 0 0-.472-.472z"></path><path d="M18.831 11.754a.472.472 0 0 0-.472.472v.472a.472.472 0 1 0 .944 0v-.472a.472.472 0 0 0-.472-.472z"></path><path d="M18.831 14.113a.472.472 0 0 0-.472.472v.472a.472.472 0 1 0 .944 0v-.472a.472.472 0 0 0-.472-.472z"></path><path d="M18.831 16.472a.472.472 0 0 0-.472.472v.472a.472.472 0 1 0 .944 0v-.472a.472.472 0 0 0-.472-.472z"></path></g></svg>