<svg xmlns="http://www.w3.org/2000/svg" viewBox="0 0 32 32"><g fill="currentColor" class="nc-icon-wrapper"><path d="M26.667 11.733h-4.066a6.887 6.887 0 0 0 1.933-4.8.533.533 0 0 0-.533-.533h-3.733V5.333a.533.533 0 0 0-.533-.533h-2.133a.533.533 0 0 0-.533.533V6.4h-.533V2.667a1.6 1.6 0 1 1 3.2 0 .533.533 0 1 0 1.066 0 2.667 2.667 0 1 0-5.334 0V6.4h-.533V5.333a.533.533 0 0 0-.533-.533h-2.133a.533.533 0 0 0-.533.533V6.4H8.003a.533.533 0 0 0-.533.533 6.901 6.901 0 0 0 1.94 4.8H5.336a.533.533 0 0 0-.533.533v13.867c0 .295.239.533.533.533h.533v4.8c0 .295.239.533.533.533h1.6a.534.534 0 0 0 .526-.446l.385-2.309a.533.533 0 0 1 .526-.445h13.126c.261 0 .483.188.526.445l.385 2.309a.534.534 0 0 0 .526.446h1.6a.533.533 0 0 0 .533-.533v-4.8h.533a.533.533 0 0 0 .533-.533V12.266a.533.533 0 0 0-.533-.533zm-8.534-5.866H19.2V6.4h-1.067v-.533zm-5.333 0h1.067V6.4H12.8v-.533zm-4.243 1.6h14.886a5.846 5.846 0 0 1-2.466 4.267h-9.949a5.834 5.834 0 0 1-2.471-4.267zM5.867 25.6V12.8h9.6v12.8h-9.6zm19.2 5.333h-.615l-.31-1.863a1.595 1.595 0 0 0-1.578-1.337H9.438A1.595 1.595 0 0 0 7.86 29.07l-.31 1.863h-.615v-4.267h18.133v4.267zm1.066-5.333h-9.6V12.8h9.6v12.8z"></path><path d="M17.6 20.8a.533.533 0 0 0 .533-.533v-2.133a.533.533 0 1 0-1.066 0v2.133c0 .295.239.533.533.533z"></path><path d="M14.4 17.6a.533.533 0 0 0-.533.533v2.133a.533.533 0 1 0 1.066 0v-2.133a.533.533 0 0 0-.533-.533z"></path></g></svg>