<svg xmlns="http://www.w3.org/2000/svg" viewBox="0 0 32 32"><g fill="currentColor" class="nc-icon-wrapper"><path d="M10.667 10.996A3.555 3.555 0 0 0 8 7.539V4.446a.887.887 0 0 0-1.518-.629.887.887 0 0 0-.26.629v3.093a3.554 3.554 0 0 0-1.964 5.66 3.559 3.559 0 0 0 1.964 1.256v13.102a.887.887 0 0 0 1.518.629.888.888 0 0 0 .26-.629V14.455a3.558 3.558 0 0 0 2.667-3.457zm-3.556 1.777a1.775 1.775 0 0 1-1.643-1.098 1.77 1.77 0 0 1 .386-1.937 1.779 1.779 0 0 1 3.035 1.257 1.767 1.767 0 0 1-.512 1.275 1.776 1.776 0 0 1-1.267.53v-.027z"></path><path d="M28.444 14.071a3.555 3.555 0 0 0-2.667-3.457V4.445a.887.887 0 0 0-1.518-.629.887.887 0 0 0-.26.629v6.169a3.562 3.562 0 0 0-2.727 3.458 3.554 3.554 0 0 0 2.727 3.458v10.027a.887.887 0 0 0 1.518.629.888.888 0 0 0 .26-.629V17.53a3.558 3.558 0 0 0 2.667-3.458zm-3.555 1.778a1.775 1.775 0 0 1-1.643-1.098 1.77 1.77 0 0 1 .386-1.937 1.778 1.778 0 0 1 3.035 1.257 1.778 1.778 0 0 1-1.778 1.814v-.036z"></path><path d="M19.556 21.778a3.555 3.555 0 0 0-2.667-3.457V4.445a.887.887 0 0 0-1.518-.629.887.887 0 0 0-.26.629v13.876a3.562 3.562 0 0 0-2.727 3.458 3.554 3.554 0 0 0 2.727 3.458v2.32a.887.887 0 0 0 1.518.629.888.888 0 0 0 .26-.629v-2.32a3.558 3.558 0 0 0 2.667-3.458zM16 23.556a1.775 1.775 0 0 1-1.643-1.098 1.77 1.77 0 0 1 .386-1.937 1.778 1.778 0 0 1 3.035 1.257 1.786 1.786 0 0 1-1.091 1.667 1.778 1.778 0 0 1-.687.138v-.027z"></path></g></svg>