<svg xmlns="http://www.w3.org/2000/svg" viewBox="0 0 32 32"><g fill="currentColor" class="nc-icon-wrapper"><path d="M2.928 20.934a.47.47 0 0 0 .268-.606 13.698 13.698 0 0 1-.921-4.952c0-4.485 2.151-8.468 5.48-10.973a.469.469 0 0 0-.563-.749 14.641 14.641 0 0 0-5.854 11.722c0 1.865.348 3.649.984 5.291a.47.47 0 0 0 .606.268z"></path><path d="M14.714 29.981c.424.037.853.056 1.286.056 8.098 0 14.662-6.564 14.662-14.662 0-4.728-2.238-8.933-5.71-11.613a.468.468 0 1 0-.572.742 13.703 13.703 0 0 1 5.346 10.871c0 7.58-6.145 13.725-13.725 13.725a14.12 14.12 0 0 1-2.366-.203.47.47 0 0 0-.16.924c.408.071.821.125 1.24.161z"></path><path d="M11.571 24.305a.468.468 0 0 0 .652-.121c.936-1.36 1.184-3.149.825-4.754-.338-1.511-1.228-2.917-2.668-3.657v-5.375c0-1.082-.873-1.962-1.955-1.962s-1.955.88-1.955 1.962V21.39l-1.129 1.135a.468.468 0 1 0 .665.662l1.266-1.272a.472.472 0 0 0 .137-.331V10.399c0-.568.458-1.025 1.018-1.025s1.018.457 1.018 1.025v5.672c0 .187.111.356.283.43 1.269.549 2.098 1.748 2.408 3.135.31 1.39.084 2.903-.683 4.018a.468.468 0 0 0 .121.652z"></path><path d="M10.51 28.322c.184.183.48.182.663-.002l1.141-1.146.46.021h.022a6.323 6.323 0 0 0 5.69-3.575.468.468 0 1 0-.843-.409 5.385 5.385 0 0 1-4.836 3.047l-.656-.031a.468.468 0 0 0-.354.138l-1.287 1.293a.468.468 0 0 0 .002.663z"></path><path d="M11.765 23.221c0 .259.21.469.469.469h8.808a1.879 1.879 0 0 0 1.879-1.879v-4.96a.469.469 0 0 0-.938 0v4.96c0 .52-.422.942-.942.942h-8.808a.469.469 0 0 0-.469.469z"></path><path d="M22.451 6.35c.259 0 .469-.21.469-.469V1.878a1.879 1.879 0 0 0-1.879-1.879h-5.939a.469.469 0 0 0 0 .938h5.939c.52 0 .942.422.942.942v4.003c0 .259.21.469.469.469z"></path><path d="M9.94 16.539c.259 0 .469-.21.469-.469V1.879c0-.52.422-.942.942-.942h1.19a.469.469 0 0 0 0-.938h-1.19a1.879 1.879 0 0 0-1.879 1.879v14.191c0 .259.21.469.469.469z"></path><path d="M12.292 20.123c0 .259.21.469.469.469h9.69a.469.469 0 0 0 0-.938h-9.69a.469.469 0 0 0-.469.469z"></path><path d="M9.471 2.596c0 .259.21.469.469.469h12.511a.469.469 0 0 0 0-.938H9.94a.469.469 0 0 0-.469.469z"></path><path d="M20.035 7.254c0 1.013.822 1.835 1.835 1.835h.818a1.836 1.836 0 0 0 1.835-1.835v-.006a1.836 1.836 0 0 0-1.835-1.835h-.818a1.836 1.836 0 0 0-1.835 1.835v.006zm1.835.898a.898.898 0 0 1-.898-.898v-.006c0-.496.402-.897.898-.897h.818c.496 0 .898.402.898.897v.006a.898.898 0 0 1-.898.898h-.818z"></path><path d="M20.035 9.993c0 1.013.822 1.835 1.835 1.835h.818a1.836 1.836 0 0 0 1.835-1.835v-.006a1.835 1.835 0 0 0-1.835-1.835h-.818a1.835 1.835 0 0 0-1.835 1.835v.006zm1.835.898a.898.898 0 0 1-.898-.898v-.006c0-.496.402-.898.898-.898h.818c.496 0 .898.402.898.898v.006a.898.898 0 0 1-.898.898h-.818z"></path><path d="M20.035 12.732c0 1.014.822 1.835 1.835 1.835h.818a1.836 1.836 0 0 0 1.835-1.835v-.006a1.835 1.835 0 0 0-1.835-1.835h-.818a1.835 1.835 0 0 0-1.835 1.835v.006zm1.835.898a.898.898 0 0 1-.898-.898v-.006c0-.496.402-.898.898-.898h.818c.496 0 .898.402.898.898v.006a.898.898 0 0 1-.898.898h-.818z"></path><path d="M20.035 15.471c0 1.013.822 1.835 1.835 1.835h.818a1.836 1.836 0 0 0 1.835-1.835v-.006a1.835 1.835 0 0 0-1.835-1.835h-.818a1.835 1.835 0 0 0-1.835 1.835v.006zm1.835.897a.898.898 0 0 1-.898-.898v-.006c0-.496.402-.898.898-.898h.818c.496 0 .898.402.898.898v.006a.898.898 0 0 1-.898.898h-.818z"></path><path d="M10.495 30.59c-.627.63-1.644.63-2.272 0l-.184-.184a.469.469 0 0 0-.664.662l.184.184a2.539 2.539 0 0 0 3.6 0 2.557 2.557 0 0 0 0-3.606L6.32 22.785a2.539 2.539 0 0 0-3.6 0 2.557 2.557 0 0 0 0 3.606l2.901 2.915a.47.47 0 0 0 .665-.661L3.385 25.73c-.627-.63-.627-1.653 0-2.283s1.644-.63 2.272 0l4.839 4.861a1.62 1.62 0 0 1 0 2.283z"></path><path d="M11.748 6.617a.468.468 0 0 0 .663-.009L13.783 5.2a.468.468 0 1 0-.672-.654l-1.372 1.408a.468.468 0 0 0 .009.663z"></path><path d="M11.748 9.631a.468.468 0 0 0 .663-.009L16.719 5.2a.468.468 0 1 0-.672-.654l-4.308 4.422a.468.468 0 0 0 .009.663z"></path></g></svg>