<svg xmlns="http://www.w3.org/2000/svg" viewBox="0 0 22 22"><g fill="currentColor" class="nc-icon-wrapper"><path d="M15.807 20.19c-.24 0-.475-.06-.686-.177l-3.927-2.152a.204.204 0 0 0-.198 0L7.07 20.013a1.423 1.423 0 0 1-1.552-.117 1.528 1.528 0 0 1-.498-.664 1.596 1.596 0 0 1-.088-.838l.75-4.558a.23.23 0 0 0-.063-.197l-3.174-3.23a1.553 1.553 0 0 1-.402-.732 1.598 1.598 0 0 1 .03-.843 1.54 1.54 0 0 1 .452-.7 1.45 1.45 0 0 1 .74-.344l4.386-.664a.208.208 0 0 0 .094-.04.22.22 0 0 0 .066-.082l1.961-4.147c.122-.257.31-.474.543-.625a1.428 1.428 0 0 1 1.556 0c.233.151.421.368.543.625l1.962 4.146a.22.22 0 0 0 .066.081.21.21 0 0 0 .094.04l4.39.665c.273.041.529.16.74.345.21.185.366.427.451.7a1.6 1.6 0 0 1 .03.843 1.552 1.552 0 0 1-.401.732l-3.177 3.228a.225.225 0 0 0-.063.197l.75 4.557a1.6 1.6 0 0 1-.031.662 1.562 1.562 0 0 1-.295.586c-.138.171-.31.309-.504.404a1.425 1.425 0 0 1-.62.144v.003zm-4.712-3.669c.239 0 .474.061.685.177l3.927 2.151a.196.196 0 0 0 .224-.016.22.22 0 0 0 .085-.217l-.75-4.558a1.602 1.602 0 0 1 .05-.734 1.55 1.55 0 0 1 .373-.625l3.177-3.228a.232.232 0 0 0-.012-.328.209.209 0 0 0-.106-.05l-4.39-.666a1.438 1.438 0 0 1-.654-.277 1.52 1.52 0 0 1-.455-.563L11.284 3.44a.218.218 0 0 0-.079-.09.206.206 0 0 0-.224 0 .22.22 0 0 0-.079.09l-1.96 4.146a1.52 1.52 0 0 1-.456.563 1.439 1.439 0 0 1-.654.277l-4.39.666a.208.208 0 0 0-.106.05.23.23 0 0 0-.011.329L6.5 12.699c.17.174.298.388.372.625.074.236.091.488.051.734l-.75 4.558a.23.23 0 0 0 .085.217.208.208 0 0 0 .225.017l3.926-2.152c.21-.116.446-.177.685-.177z" fill="currentColor" class="nc-icon-wrapper"></path></g></svg>