<svg xmlns="http://www.w3.org/2000/svg" viewBox="0 0 32 32"><g fill="currentColor" class="nc-icon-wrapper"><path d="M25.791 18.804c.525.233.904.598 1.137 1.093.262.496.335 1.006.219 1.531l-.918 3.979a2.373 2.373 0 0 1-.831 1.268c-.408.35-.875.525-1.399.525-2.595 0-5.087-.51-7.478-1.531-2.361-1.02-4.402-2.376-6.122-4.067-1.691-1.72-3.047-3.761-4.067-6.122a18.866 18.866 0 0 1-1.531-7.478c0-.525.16-.991.481-1.399.35-.437.787-.714 1.312-.831l3.979-.918a2.168 2.168 0 0 1 1.531.219c.496.233.86.612 1.093 1.137l1.837 4.286c.204.466.233.947.087 1.443a2.227 2.227 0 0 1-.743 1.224l-1.487 1.224a13.095 13.095 0 0 0 4.723 4.723l1.224-1.487a2.228 2.228 0 0 1 1.224-.743 2.05 2.05 0 0 1 1.443.087l4.286 1.837zm-.7 2.143c.029-.088-.015-.16-.131-.219l-4.286-1.837c-.088-.029-.16-.015-.219.044l-1.749 2.143c-.35.437-.773.539-1.268.306-3.032-1.516-5.306-3.79-6.822-6.822-.233-.496-.131-.918.306-1.268l2.143-1.749c.058-.058.073-.131.044-.219L11.272 7.04c-.029-.087-.087-.131-.175-.131h-.044l-4.023.918c-.087.029-.131.087-.131.175 0 3.09.758 5.947 2.274 8.571a17.376 17.376 0 0 0 6.253 6.253c2.624 1.516 5.481 2.274 8.571 2.274.088 0 .146-.044.175-.131l.918-4.023z" fill="currentColor" class="nc-icon-wrapper"></path></g></svg>