<svg xmlns="http://www.w3.org/2000/svg" viewBox="0 0 32 32"><g fill="currentColor" class="nc-icon-wrapper"><path d="M11.273 17.455a3.273 3.273 0 0 1 3.273 3.273v8a3.273 3.273 0 0 1-3.273 3.273h-8A3.273 3.273 0 0 1 0 28.728v-8a3.273 3.273 0 0 1 3.273-3.273h8zm17.454 0A3.273 3.273 0 0 1 32 20.728v8a3.273 3.273 0 0 1-3.273 3.273h-8a3.273 3.273 0 0 1-3.273-3.273v-8a3.273 3.273 0 0 1 3.273-3.273h8zm-17.454 2.181H3.272a1.09 1.09 0 0 0-1.09 1.09v8.001c0 .602.489 1.091 1.091 1.091h8c.602 0 1.091-.488 1.091-1.091v-8c0-.602-.488-1.091-1.091-1.091zm17.454 0h-8c-.602 0-1.091.488-1.091 1.091v8c0 .602.489 1.091 1.091 1.091h8c.602 0 1.091-.488 1.091-1.091v-8c0-.602-.488-1.091-1.091-1.091zM11.273 0a3.273 3.273 0 0 1 3.273 3.273v8a3.273 3.273 0 0 1-3.273 3.273h-8A3.273 3.273 0 0 1 0 11.273v-8A3.273 3.273 0 0 1 3.273 0h8zm17.454 0A3.273 3.273 0 0 1 32 3.273v8a3.273 3.273 0 0 1-3.273 3.273h-8a3.273 3.273 0 0 1-3.273-3.273v-8A3.273 3.273 0 0 1 20.727 0h8zM11.273 2.182H3.272a1.09 1.09 0 0 0-1.09 1.09v8.001c0 .602.489 1.091 1.091 1.091h8c.602 0 1.091-.488 1.091-1.091V3.272a1.09 1.09 0 0 0-1.09-1.09h-.001zm17.454 0h-8c-.602 0-1.091.488-1.091 1.091v8c0 .602.489 1.091 1.091 1.091h8c.602 0 1.091-.488 1.091-1.091V3.272a1.09 1.09 0 0 0-1.09-1.09h-.001z" fill="currentColor" class="nc-icon-wrapper"></path></g></svg>