<svg xmlns="http://www.w3.org/2000/svg" viewBox="0 0 32 32"><g fill="currentColor" class="nc-icon-wrapper"><path d="M28.506 3.077H3.494a.417.417 0 0 0-.417.417v25.012a.417.417 0 0 0 .417.417h25.012a.417.417 0 0 0 .417-.417V3.494a.417.417 0 0 0-.417-.417zm-3.09 22.928l2.084 2.084h-3.006l-2.382-2.084h3.303zm.589-.589v-3.303l2.084 2.382v3.006l-2.084-2.084zm-.103-4.688a.42.42 0 0 0-.46-.116.417.417 0 0 0-.27.39v4.169h-4.169a.416.416 0 0 0-.274.73l2.501 2.188h-6.223L28.09 17.006v6.222l-2.188-2.5zM6.585 5.995L4.501 3.911h3.006l2.382 2.084H6.586zm-.59.59v3.303L3.911 7.506V4.5l2.084 2.084zm.103 4.687a.42.42 0 0 0 .46.116.417.417 0 0 0 .27-.39V6.829h4.169a.416.416 0 0 0 .274-.73l-2.5-2.188h6.222L3.91 14.994V8.772l2.188 2.5zM16 4.083L27.917 16 16 27.917 4.083 16 16 4.083zM3.911 24.494l2.084-2.382v3.303l-2.084 2.084v-3.006zm2.674 1.511h3.303l-2.382 2.084H4.5l2.084-2.084zm4.687-.103a.42.42 0 0 0 .116-.46.417.417 0 0 0-.39-.27H6.829v-4.169a.416.416 0 0 0-.73-.274l-2.188 2.5v-6.222L14.994 28.09H8.772l2.5-2.188zm16.817-10.908L17.006 3.911h6.222l-2.501 2.188a.42.42 0 0 0-.116.46.417.417 0 0 0 .391.27h4.169v4.169a.416.416 0 0 0 .73.274l2.188-2.501v6.223zm-2.084-8.409l2.084-2.084v3.006l-2.084 2.382V6.586zm-.589-.59h-3.303l2.382-2.084h3.006l-2.084 2.084z"></path><path d="M16 20.802l2.605 2.977a.42.42 0 0 0 .46.116.417.417 0 0 0 .27-.39v-4.169h4.169a.416.416 0 0 0 .274-.73l-2.977-2.605 2.977-2.605a.42.42 0 0 0 .116-.46.417.417 0 0 0-.39-.27h-4.169V8.497a.416.416 0 0 0-.73-.274L16 11.199l-2.605-2.976a.42.42 0 0 0-.46-.116.417.417 0 0 0-.27.39v4.169H8.496a.416.416 0 0 0-.274.73l2.976 2.605-2.976 2.605a.42.42 0 0 0-.116.46.417.417 0 0 0 .39.27h4.169v4.169a.416.416 0 0 0 .73.274L16 20.802zm-2.501-1.709l2.084-2.084v3.006l-2.084 2.382v-3.303zm5.002 3.303l-2.084-2.382v-3.006l2.084 2.084v3.303zm3.893-3.895h-3.303l-2.084-2.084h3.006l2.382 2.084zm-2.382-2.918h-3.006l2.084-2.084h3.303l-2.382 2.084zm-1.511-2.674l-2.084 2.084v-3.006l2.084-2.382v3.303zm-5.002-3.303l2.084 2.382v3.006l-2.084-2.084V9.607zm-3.893 3.893h3.303l2.084 2.084h-3.006l-2.382-2.084zm2.382 2.918h3.006l-2.084 2.084H9.607l2.382-2.084z"></path></g></svg>