<svg xmlns="http://www.w3.org/2000/svg" viewBox="0 0 32 32"><g fill="currentColor" class="nc-icon-wrapper"><path d="M25.068 8a1.6 1.6 0 1 0 0-3.2h-1.067V3.2h.533a.533.533 0 0 0 .533-.533V.534a.533.533 0 0 0-.533-.533H6.401a.533.533 0 0 0-.533.533v2.133c0 .295.239.533.533.533h.533c0 3.317.069 6.731 1.344 10.133H6.934a1.6 1.6 0 0 0-.533 3.11c.181 2.864 2.059 5.333 4.8 6.613 0 3.136 0 5.632-1.525 8.139a.533.533 0 0 0 .459.806h10.667a.533.533 0 0 0 .458-.805c-1.525-2.512-1.525-5.003-1.525-8.139 2.715-1.285 4.597-3.733 4.8-6.613a1.599 1.599 0 0 0-.534-3.109h-1.344a20.442 20.442 0 0 0 1.168-5.333h1.243zm0-2.133a.533.533 0 1 1 0 1.066h-3.2a.533.533 0 1 1 0-1.066h3.2zm-18.133-4.8h17.067v1.067H6.935V1.067zm12.97 29.866H11.03c1.157-2.368 1.237-4.768 1.237-7.467 2.076.699 4.324.699 6.4 0 0 2.699.08 5.099 1.237 7.467zm-4.437-8c-4.203 0-7.653-2.827-7.968-6.4h15.936c-.315 3.573-3.765 6.4-7.968 6.4zm8.533-8.533a.533.533 0 1 1 0 1.066H6.934a.533.533 0 1 1 0-1.066h17.067zm-2.496-1.067H9.425C8.076 9.984 8.001 6.677 8.001 3.2h14.933v1.6h-1.067a1.6 1.6 0 1 0 0 3.2h.885a19 19 0 0 1-1.248 5.333z" fill="currentColor" class="nc-icon-wrapper"></path></g></svg>