<svg xmlns="http://www.w3.org/2000/svg" viewBox="0 0 32 32"><g fill="currentColor" class="nc-icon-wrapper"><path d="M26.521 5.623c0-.259.21-.469.469-.469h3.125a1.73 1.73 0 0 1 0 3.458H26.99a.469.469 0 0 1 0-.938h3.125a.791.791 0 0 0 0-1.583H26.99a.469.469 0 0 1-.469-.469z"></path><path d="M1.885 6.092a.792.792 0 1 0 0 1.584h11.944a.469.469 0 0 1 0 .938H1.885a1.729 1.729 0 1 1 0-3.458h11.88a.469.469 0 0 1 0 .938H1.885z"></path><path d="M10.21 3.102c0-.259.21-.469.469-.469H25.1a2.36 2.36 0 0 1 2.359 2.359v22.015a2.36 2.36 0 0 1-2.359 2.359h-9.38a2.36 2.36 0 0 1-2.359-2.359v-2.521a.469.469 0 0 1 .938 0v2.521a1.42 1.42 0 0 0 1.421 1.421h9.38c.785 0 1.421-.637 1.421-1.421V4.992A1.42 1.42 0 0 0 25.1 3.571H10.679a.469.469 0 0 1-.469-.469z"></path><path d="M10.679 3.571c-.74 0-1.41.3-1.896.786a2.674 2.674 0 0 0-.732 1.359.469.469 0 0 1-.919-.185c.144-.71.496-1.344.988-1.836zm-2.559.123a3.619 3.619 0 0 1 6.178 2.559v18.234c0 .259-.21.469-.469.469H9.418a2.359 2.359 0 0 1-2.359-2.359V8.144a.469.469 0 0 1 .938 0v14.453c0 .785.636 1.422 1.422 1.422h3.942V6.254c0-.185-.018-.364-.054-.535v-.002a2.682 2.682 0 0 0-2.627-2.145z"></path><path d="M13.36 25.747c0-.259.21-.469.469-.469H26.99a.469.469 0 0 1 0 .938H13.829a.469.469 0 0 1-.469-.469z"></path><path d="M7.059 21.336c0-.259.21-.469.469-.469h6.301a.469.469 0 0 1 0 .938H7.528a.469.469 0 0 1-.469-.469z"></path><path d="M13.36 22.609c0-.259.21-.469.469-.469H26.99a.469.469 0 0 1 0 .938H13.829a.469.469 0 0 1-.469-.469z"></path><path d="M7.059 18.198c0-.259.21-.469.469-.469h6.301a.469.469 0 0 1 0 .938H7.528a.469.469 0 0 1-.469-.469z"></path><path d="M18.983 16.316c0-.259.21-.469.469-.469h4.393c.259 0 .469.21.469.469v3.138c0 .259-.21.469-.469.469h-4.393a.469.469 0 0 1-.469-.469v-3.138zm.937.468v2.2h3.455v-2.2H19.92z"></path></g></svg>