<svg xmlns="http://www.w3.org/2000/svg" viewBox="0 0 32 32"><g fill="currentColor" class="nc-icon-wrapper"><path d="M6.08 3.2A2.88 2.88 0 0 0 3.2 6.08v15.36c0 1.5 1.147 2.732 2.611 2.868a3.841 3.841 0 0 0 7.576.012h2.666a3.841 3.841 0 0 0 7.574 0h2.293a2.88 2.88 0 0 0 2.88-2.88v-6.928c0-.426-.095-.848-.277-1.233l-2.175-4.592a2.88 2.88 0 0 0-2.603-1.647H21.76v-.96a2.88 2.88 0 0 0-2.88-2.88H6.08zm17.381 19.2a3.851 3.851 0 0 0-1.701-2.046V15.36h5.12v3.84h-1.6a.96.96 0 0 0 0 1.92h1.6v.32c0 .53-.43.96-.96.96h-2.459zm-3.621-2.56a3.84 3.84 0 0 0-3.621 2.56h-2.997a3.841 3.841 0 0 0-7.241-.005.96.96 0 0 1-.86-.955V6.08c0-.53.43-.96.96-.96h12.8c.53 0 .96.43.96.96v13.76zm1.92-10.88h1.985c.371 0 .709.214.868.549l1.862 3.931H21.76V8.96zM9.6 25.6a1.92 1.92 0 1 1 .001-3.841A1.92 1.92 0 0 1 9.6 25.6zm12.16-1.92a1.92 1.92 0 1 1-3.841-.001 1.92 1.92 0 0 1 3.841.001z" fill="currentColor" class="nc-icon-wrapper"></path></g></svg>