<svg xmlns="http://www.w3.org/2000/svg" viewBox="0 0 32 32"><g fill="currentColor" class="nc-icon-wrapper"><path d="M26.805 9.267c.038.156.058.407.058.757a17.306 17.306 0 0 1-1.25 6.42l.041-.117.041-.118a19.706 19.706 0 0 1-3.372 5.655l.023-.027.023-.028c-1.399 1.673-3.228 3.031-5.483 4.083-2.255 1.05-4.745 1.574-7.467 1.574l-.135.001h-.028a16.832 16.832 0 0 1-9.354-2.821l.126.079c.427.038.913.058 1.457.058 2.839 0 5.387-.875 7.642-2.624l-.087.001h-.01a5.86 5.86 0 0 1-3.549-1.19l.015.011.015.011a6.37 6.37 0 0 1-2.074-2.944l-.013-.045-.013-.045c.388.038.757.058 1.109.058.542 0 1.088-.058 1.632-.175a5.95 5.95 0 0 1-2.533-1.185l.012.009.012.009a6.568 6.568 0 0 1-1.715-2.03l-.017-.034-.017-.035a5.976 5.976 0 0 1-.642-2.715v-.028.001-.117a5.682 5.682 0 0 0 2.73.817h.011C2.165 11.289 1.252 9.578 1.252 7.4c0-1.088.292-2.121.875-3.093 2.994 3.753 7.491 6.198 12.564 6.416l.035.001a8.076 8.076 0 0 1-.115-1.376v-.02.001-.005c0-1.673.582-3.11 1.749-4.316 1.205-1.205 2.645-1.809 4.316-1.809 1.79 0 3.285.64 4.493 1.924a12.41 12.41 0 0 0 4.022-1.518l-.057.031-.059.032a6.159 6.159 0 0 1-2.629 3.353l-.027.015-.027.015a13.086 13.086 0 0 0 3.664-1.059l-.082.034-.083.033a13.675 13.675 0 0 1-3.02 3.158l-.034.025-.035.025z" fill="currentColor" class="nc-icon-wrapper"></path></g></svg>