<svg xmlns="http://www.w3.org/2000/svg" viewBox="0 0 32 32"><g fill="currentColor" class="nc-icon-wrapper"><path d="M19 7.62h-.04C18 7.54 17.025 7.5 16 7.5a.498.498 0 0 1-.5-.5.498.498 0 0 1 .5-.5c1.055 0 2.075.04 3.04.12a.5.5 0 0 1-.04 1z"></path><path d="M22 10h-.095A32.562 32.562 0 0 0 16 9.5a.498.498 0 0 1-.5-.5.498.498 0 0 1 .5-.5 33.304 33.304 0 0 1 6.095.525.501.501 0 0 1 .207.83.498.498 0 0 1-.303.145z"></path><path d="M22 12h-.095A32.562 32.562 0 0 0 16 11.5a.498.498 0 0 1-.5-.5.498.498 0 0 1 .5-.5 33.304 33.304 0 0 1 6.095.525.501.501 0 0 1 .207.83.498.498 0 0 1-.303.145z"></path><path d="M22 14h-.095A32.562 32.562 0 0 0 16 13.5a.498.498 0 0 1-.5-.5.498.498 0 0 1 .5-.5 33.304 33.304 0 0 1 6.095.525.501.501 0 0 1 .207.83.498.498 0 0 1-.303.145z"></path><path d="M13.265 10.23a2.368 2.368 0 0 0-.37-.3 1.993 1.993 0 0 0 .57-1.804 2.006 2.006 0 0 0-1.189-1.473 2.002 2.002 0 0 0-2.54.9 1.99 1.99 0 0 0-.236.946 1.966 1.966 0 0 0 .605 1.425A2.508 2.508 0 0 0 9 11.999v2.73a.494.494 0 0 0 .195.395.497.497 0 0 0 .305.105.523.523 0 0 0 .125 0 25.866 25.866 0 0 1 3.92-.645.5.5 0 0 0 .455-.5v-2.085a2.497 2.497 0 0 0-.735-1.77zM10.5 8.5a1.002 1.002 0 1 1 1.925.383 1.004 1.004 0 0 1-.924.618.997.997 0 0 1-1-1zm2.5 5.12a27.93 27.93 0 0 0-3 .5V12a1.503 1.503 0 0 1 1.5-1.5A1.503 1.503 0 0 1 13 12v1.62z"></path><path d="M16 22a1.997 1.997 0 0 0-1.848 1.235 1.998 1.998 0 0 0 2.613 2.613A2.004 2.004 0 0 0 18 24a2 2 0 0 0-2-2zm0 3a1.002 1.002 0 1 1 .383-1.925 1.004 1.004 0 0 1 .618.924.997.997 0 0 1-1 1z"></path><path d="M16 3.5c-5.815 0-12 1.4-12 4V21c0 1.12 1.155 2.1 3.34 2.835a.498.498 0 0 0 .45-.07.504.504 0 0 0 .21-.405V19a25.703 25.703 0 0 1 5.5-.925V19.5H13a1.503 1.503 0 0 0-1.5 1.5v6a1.503 1.503 0 0 0 1.5 1.5h6a1.503 1.503 0 0 0 1.5-1.5v-6a1.503 1.503 0 0 0-1.5-1.5h-.5v-1.415c1.861.105 3.705.412 5.5.915v4.35a.505.505 0 0 0 .5.5.612.612 0 0 0 .16 0C26.845 23.1 28 22.12 28 21V7.5c0-2.6-6.185-4-12-4zM7 22.645c-1.265-.5-2-1.11-2-1.645V9.185c.612.44 1.286.787 2 1.03v12.43zM19.5 21v6a.498.498 0 0 1-.5.5h-6a.498.498 0 0 1-.5-.5v-6a.498.498 0 0 1 .5-.5h6a.498.498 0 0 1 .5.5zm-5-1.5V18a1.503 1.503 0 0 1 1.5-1.5 1.503 1.503 0 0 1 1.5 1.5v1.5h-3zM27 21c0 .535-.735 1.13-2 1.645v-12.43a7.646 7.646 0 0 0 2-1.03V21zm-.075-13.21c-.255.545-1.195 1.13-2.585 1.595a.501.501 0 0 0-.34.475v8.105a27.747 27.747 0 0 0-5.685-.89A2.504 2.504 0 0 0 16 15.519a2.503 2.503 0 0 0-2.315 1.556 27.747 27.747 0 0 0-5.685.89V9.86a.5.5 0 0 0-.34-.475C6.27 8.92 5.33 8.335 5.07 7.78A.651.651 0 0 1 5 7.5c0-1.255 4.185-3 11-3s11 1.745 11 3a.654.654 0 0 1-.075.29z"></path></g></svg>