<svg xmlns="http://www.w3.org/2000/svg" viewBox="0 0 32 32"><g fill="currentColor" class="nc-icon-wrapper"><path d="M27.314 4.686A15.95 15.95 0 0 0 17.701.09 16.062 16.062 0 0 0 7.49 2.447a.468.468 0 1 0 .499.793 15.125 15.125 0 0 1 9.613-2.218 15.097 15.097 0 0 1 9.049 4.327c2.845 2.845 4.412 6.627 4.412 10.651s-1.567 7.806-4.412 10.651c-2.845 2.845-6.628 4.412-10.651 4.412s-7.806-1.567-10.651-4.412C2.504 23.806.937 20.024.937 16S2.504 8.194 5.349 5.349c.33-.33.679-.648 1.036-.945a.47.47 0 0 0-.599-.721c-.379.315-.749.653-1.1 1.003C1.664 7.708 0 11.726 0 16s1.664 8.292 4.686 11.314C7.708 30.336 11.726 32 16 32s8.292-1.664 11.314-4.686C30.336 24.292 32 20.274 32 16s-1.664-8.292-4.686-11.314z"></path><path d="M5.934 7.568a13.143 13.143 0 0 0-2.607 11.878.47.47 0 0 0 .905-.245 12.196 12.196 0 0 1-.415-2.733h10.33a1.907 1.907 0 0 0 2.362 1.372l2.082 3.652a.468.468 0 1 0 .815-.464l-2.082-3.652a1.898 1.898 0 0 0 .527-.907h3.907a.469.469 0 0 0 0-.938h-3.907a1.898 1.898 0 0 0-1.382-1.382V7.608a.469.469 0 0 0-.938 0v6.541c-.324.081-.63.248-.882.5a1.896 1.896 0 0 0-.502.882H3.817a12.23 12.23 0 0 1 1.366-5.158l1.048.597a.47.47 0 0 0 .465-.814l-1.047-.597c.301-.484.636-.948 1.005-1.388a.469.469 0 0 0-.718-.602zm9.378 7.744a.97.97 0 0 1 1.376 0 .975.975 0 0 1 0 1.376.975.975 0 0 1-1.661-.688c0-.26.101-.504.285-.688z"></path><path d="M6.87 21.204a.468.468 0 0 0-.639-.175l-1.048.598a12.277 12.277 0 0 1-.272-.552.469.469 0 0 0-.852.39 13.15 13.15 0 0 0 4.76 5.528 13.076 13.076 0 0 0 7.182 2.137c2.34 0 4.539-.616 6.444-1.694a.465.465 0 0 0 .113-.064c3.926-2.273 6.573-6.519 6.573-11.372 0-7.24-5.89-13.13-13.13-13.13a13.143 13.143 0 0 0-8.429 3.062.469.469 0 0 0 .602.718A12.2 12.2 0 0 1 9.56 5.647l.597 1.047a.468.468 0 1 0 .815-.464l-.597-1.048a12.201 12.201 0 0 1 5.158-1.366v1.205a.469.469 0 0 0 .938 0V3.816c1.854.07 3.603.556 5.157 1.368l-.596 1.046a.468.468 0 1 0 .815.464l.595-1.044a12.29 12.29 0 0 1 3.91 3.91l-1.044.595a.468.468 0 1 0 .465.814l1.046-.596a12.11 12.11 0 0 1 1.368 5.157h-1.205a.469.469 0 0 0 0 .938h1.205a12.095 12.095 0 0 1-1.368 5.157l-1.046-.596a.468.468 0 1 0-.464.814l1.045.595a12.29 12.29 0 0 1-3.91 3.91l-2.022-3.547a.468.468 0 1 0-.814.464l2.023 3.548a12.124 12.124 0 0 1-5.157 1.368v-1.205a.469.469 0 0 0-.938 0v1.206a12.146 12.146 0 0 1-5.159-1.365l.598-1.05a.468.468 0 1 0-.814-.464l-.598 1.049a12.23 12.23 0 0 1-3.912-3.913l1.048-.598a.468.468 0 0 0 .175-.639z"></path></g></svg>