<svg xmlns="http://www.w3.org/2000/svg" viewBox="0 0 20 16"><g fill="none" class="nc-icon-wrapper"><path d="M1.118 7.305l-.486.121.486-.12zm.889-1.138v-.5.5zm15.986 0v-.5.5zm.89 1.138l.485.121-.485-.12zm-1.66 6.64l-.486-.122.486.122zm-1.779 1.388v.5-.5zm-10.888 0v.5-.5zm-1.778-1.388l.485-.122-.485.122zM7.75 9.833a.5.5 0 0 0-1 0h1zm-1 1.834a.5.5 0 0 0 1 0h-1zm6.5-1.834a.5.5 0 0 0-1 0h1zm-1 1.834a.5.5 0 1 0 1 0h-1zM4.084 5.889a.5.5 0 0 0 .832.555l-.832-.555zM8.583.944A.5.5 0 1 0 7.75.389l.832.555zm6.501 5.5a.5.5 0 1 0 .832-.555l-.832.555zM12.25.389a.5.5 0 1 0-.832.555l.832-.555zM1.603 7.184a.417.417 0 0 1-.004-.187l-.978-.208c-.044.21-.04.428.011.637l.97-.242zm-.004-.187a.417.417 0 0 1 .08-.17L.89 6.21c-.132.17-.224.367-.269.578l.978.208zm.08-.17a.417.417 0 0 1 .145-.118l-.438-.899a1.417 1.417 0 0 0-.496.401l.789.616zm.145-.118a.417.417 0 0 1 .183-.042v-1c-.216 0-.428.049-.621.143l.438.899zm.183-.042h15.986v-1H2.007v1zm15.986 0c.064 0 .126.014.183.042l.439-.899a1.417 1.417 0 0 0-.621-.143v1zm.183.042a.416.416 0 0 1 .146.118l.788-.616a1.417 1.417 0 0 0-.495-.4l-.44.898zm.146.118c.038.05.066.108.079.17l.978-.208a1.417 1.417 0 0 0-.27-.578l-.788.616zm.079.17a.415.415 0 0 1-.004.187l.97.242c.053-.209.057-.427.012-.637l-.978.208zm-.003.187l-1.66 6.64.97.242 1.66-6.64-.97-.242zm-1.66 6.64a1.333 1.333 0 0 1-.473.727l.615.788c.41-.32.701-.768.828-1.273l-.97-.243zm-.473.727a1.334 1.334 0 0 1-.82.282v1c.52 0 1.025-.174 1.435-.494l-.615-.788zm-.82.282H4.555v1h10.888v-1zm-10.889 0c-.297 0-.586-.1-.82-.282l-.616.788c.41.32.916.494 1.436.494v-1zm-.82-.282c-.235-.183-.401-.44-.473-.728l-.97.243c.126.505.417.953.827 1.273l.616-.788zm-.473-.728l-1.66-6.64-.97.243 1.66 6.64.97-.243zm3.487-3.99v1.834h1V9.833h-1zm5.5 0v1.834h1V9.833h-1zM4.916 6.444l2.37-3.555.925-1.388.273-.409.073-.11.02-.028.004-.008.001-.001-.415-.278L7.75.389l-.002.003-.005.007-.019.029-.073.11-.273.409-.925 1.387-2.37 3.555.832.555zm11-.555l-2.37-3.555L12.62.947l-.273-.41-.073-.11-.02-.028a.592.592 0 0 1-.005-.01l-.417.278-.416.277.002.002.005.008.019.028.073.11.273.41a18637.014 18637.014 0 0 1 3.295 4.942l.832-.555z" fill="currentColor"></path></g></svg>