<svg xmlns="http://www.w3.org/2000/svg" viewBox="0 0 16 16"><g fill="none" class="nc-icon-wrapper"><path fill-rule="evenodd" clip-rule="evenodd" d="M12.896.146a.5.5 0 0 1 .708 0l2.25 2.25a.5.5 0 0 1 0 .708l-2.25 2.25a.5.5 0 0 1-.708-.708l1.397-1.396h-2.474a1 1 0 0 0-.841.459l-5.865 9.122a2 2 0 0 1-1.682.919H.5a.5.5 0 0 1 0-1h2.93a1.001 1.001 0 0 0 .842-.46l5.865-9.122a2.001 2.001 0 0 1 1.681-.918h2.475L12.896.854a.5.5 0 0 1 0-.708zM0 2.75a.5.5 0 0 1 .5-.5h2.931a2 2 0 0 1 1.682.918L6.599 5.48a.5.5 0 1 1-.841.54L4.272 3.71a1 1 0 0 0-.841-.459H.5a.5.5 0 0 1-.5-.5zm8.8 7.08a.5.5 0 0 1 .691.15l1.487 2.31a1.002 1.002 0 0 0 .841.46h2.474l-1.397-1.396a.5.5 0 0 1 .708-.708l2.25 2.25a.5.5 0 0 1 0 .708l-2.25 2.25a.5.5 0 0 1-.708-.708l1.397-1.396h-2.474a2 2 0 0 1-1.682-.919l-1.487-2.31a.5.5 0 0 1 .15-.692z" fill="currentColor"></path></g></svg>