<svg xmlns="http://www.w3.org/2000/svg" viewBox="0 0 20 14"><g fill="none" class="nc-icon-wrapper"><path fill-rule="evenodd" clip-rule="evenodd" d="M5.012 3.336C3.557 4.371 2.401 5.614 1.717 6.431l-.003.003A.874.874 0 0 0 1.5 7c0 .2.072.399.214.566l.003.003c.684.817 1.84 2.06 3.295 3.095C6.472 11.702 8.187 12.5 10 12.5c1.813 0 3.529-.798 4.988-1.836 1.455-1.035 2.612-2.278 3.296-3.095a.856.856 0 0 0 0-1.138c-.685-.818-1.841-2.06-3.296-3.095C13.528 2.298 11.813 1.5 10 1.5c-1.813 0-3.529.798-4.988 1.836zm-.58-.815C5.98 1.421 7.899.5 10 .5c2.103 0 4.021.921 5.568 2.021 1.55 1.103 2.769 2.415 3.483 3.268a1.855 1.855 0 0 1 0 2.422c-.714.853-1.933 2.165-3.483 3.268C14.02 12.579 12.103 13.5 10 13.5c-2.102 0-4.021-.921-5.567-2.021C2.883 10.377 1.665 9.065.95 8.212A1.873 1.873 0 0 1 .5 7c0-.445.162-.87.45-1.212.715-.853 1.933-2.165 3.483-3.267zM10 4.93c-1.317 0-2.309.968-2.309 2.071 0 1.103.992 2.071 2.31 2.071 1.317 0 2.308-.968 2.308-2.071 0-1.103-.991-2.071-2.309-2.071zM6.691 7c0-1.737 1.524-3.071 3.31-3.071 1.784 0 3.308 1.334 3.308 3.071S11.785 10.071 10 10.071c-1.785 0-3.309-1.334-3.309-3.071z" fill="currentColor"></path></g></svg>