<svg xmlns="http://www.w3.org/2000/svg" viewBox="0 0 22 22"><g fill="none" class="nc-icon-wrapper"><path d="M19.786 10.239c.357-.364.484-.898.33-1.395a1.312 1.312 0 0 0-1.053-.926L14.66 7.25a.577.577 0 0 1-.433-.329L12.26 2.758A1.292 1.292 0 0 0 11.09 2c-.5 0-.948.29-1.169.758L7.953 6.922a.578.578 0 0 1-.434.328l-4.401.668c-.495.075-.899.43-1.053.926a1.394 1.394 0 0 0 .33 1.395l3.185 3.24a.618.618 0 0 1 .165.533l-.75 4.575c-.067.403.034.795.283 1.104a1.28 1.28 0 0 0 1.608.33l3.936-2.16a.568.568 0 0 1 .536 0l3.937 2.16c.192.106.396.159.607.159.385 0 .75-.179 1-.49.25-.308.351-.7.284-1.103l-.751-4.575a.618.618 0 0 1 .166-.532l3.185-3.241z" fill="currentColor"></path></g></svg>