<svg xmlns="http://www.w3.org/2000/svg" viewBox="0 0 12 11"><g fill="none" class="nc-icon-wrapper"><path d="M9.17 6.816l2.616-2.089c.402-.33.201-.88-.302-.88l-3.32-.22c-.202 0-.403-.11-.403-.33L6.453.33a.549.549 0 0 0-1.006 0L4.34 3.298c-.1.22-.302.33-.503.33l-3.321.22c-.503 0-.704.55-.302.88L2.83 6.815c.101.11.202.22.101.44l-.805 3.188c-.1.33.402.769.805.44l2.817-1.76a.594.594 0 0 1 .604 0l2.717 1.76c.403.22.906-.11.805-.55l-.805-3.079c-.1-.11 0-.33.1-.44z" fill="currentColor"></path></g></svg>