<svg xmlns="http://www.w3.org/2000/svg" viewBox="0 0 24 24"><g fill="none" class="nc-icon-wrapper"><path fill-rule="evenodd" clip-rule="evenodd" d="M8 16.636C8 15.733 8.754 15 9.684 15h4.632c.93 0 1.684.733 1.684 1.636v6.546a.83.83 0 0 1-.842.818.83.83 0 0 1-.842-.818v-6.546H9.684v6.546a.83.83 0 0 1-.842.818.83.83 0 0 1-.842-.818v-6.546z" fill="currentColor"></path><path fill-rule="evenodd" clip-rule="evenodd" d="M3.74 11v8.938c0 .789.001 1.299.055 1.674.05.353.133.463.199.525s.184.138.561.186c.403.05.948.052 1.793.052h11.304c.845 0 1.39-.002 1.793-.052.377-.048.495-.124.561-.186.066-.062.148-.172.199-.525.054-.375.056-.885.056-1.674V11H22v8.991c0 .72 0 1.34-.071 1.838-.077.532-.25 1.043-.693 1.457-.443.414-.99.576-1.56.647C19.145 24 18.48 24 17.71 24H6.291c-.771 0-1.435 0-1.967-.067-.57-.071-1.117-.233-1.56-.647-.443-.414-.616-.925-.693-1.457C2 21.332 2 20.71 2 19.99V11h1.74z" fill="currentColor"></path><path fill-rule="evenodd" clip-rule="evenodd" d="M4.394 0h15.212c.284 0 .566 0 .805.029.272.033.578.111.86.334.281.223.43.504.528.763.086.228.154.505.223.784l1.716 6.948c.11.444.213.864.248 1.212.039.385.014.855-.306 1.27-.321.417-.765.555-1.143.61-.343.05-.77.05-1.223.05h-.162c-.634 0-1.186 0-1.636-.056-.484-.06-.95-.196-1.358-.54a2.153 2.153 0 0 1-.435-.497 2.55 2.55 0 0 1-1.121.904 2.57 2.57 0 0 1-.809.171c-.254.018-.559.018-.909.018h-.053c-.35 0-.655 0-.91-.018a2.537 2.537 0 0 1-.808-.171A2.545 2.545 0 0 1 12 10.919a2.55 2.55 0 0 1-1.113.892c-.269.11-.538.152-.808.171-.255.018-.56.018-.91.018h-.053c-.35 0-.655 0-.91-.018a2.537 2.537 0 0 1-.808-.171 2.545 2.545 0 0 1-1.121-.904 2.154 2.154 0 0 1-.435.497c-.408.344-.874.48-1.358.54C4.034 12 3.482 12 2.848 12h-.162c-.453 0-.88 0-1.223-.05-.378-.055-.822-.193-1.143-.61-.32-.415-.345-.885-.306-1.27.035-.348.139-.768.248-1.212.005-.018.01-.036.013-.053L1.97 1.948l.009-.038c.069-.279.137-.556.223-.784.097-.259.247-.54.529-.763.281-.223.587-.301.86-.334.238-.03.52-.03.804-.029zm-.61 1.732l-.001.005c-.045.12-.09.294-.172.627L1.918 9.22c-.127.516-.198.813-.22 1.023v.008l.008.001c.206.03.508.033 1.033.033h.06c.698 0 1.144-.002 1.477-.043.311-.04.419-.103.482-.156l.01-.009c.063-.054.142-.152.231-.455.096-.326.17-.772.285-1.47l.005-.03c.027-.163.056-.34.09-.473a1.29 1.29 0 0 1 .127-.325c.069-.118.302-.453.764-.46h.03c.463.007.696.342.764.46.075.13.11.26.127.325a5.992 5.992 0 0 1 .096.504l.103.629c.063.384.104.629.148.815a.96.96 0 0 0 .096.28.849.849 0 0 0 .402.345.932.932 0 0 0 .288.049c.188.013.434.014.819.014.384 0 .63 0 .819-.014a.932.932 0 0 0 .287-.05.849.849 0 0 0 .403-.345.962.962 0 0 0 .095-.279c.044-.186.085-.431.148-.815l.104-.63.005-.03c.027-.163.056-.34.09-.473a1.29 1.29 0 0 1 .127-.325c.068-.118.302-.453.764-.46h.03c.462.007.696.342.764.46.075.13.11.26.127.325.034.133.063.31.09.473l.005.03.104.63c.063.384.104.629.148.815a.962.962 0 0 0 .095.28.849.849 0 0 0 .402.345.932.932 0 0 0 .288.049c.19.013.435.014.82.014.384 0 .63 0 .818-.014a.932.932 0 0 0 .288-.05.849.849 0 0 0 .402-.345.96.96 0 0 0 .096-.279c.044-.186.085-.431.148-.815l.108-.66c.027-.163.056-.34.09-.473.017-.065.053-.195.128-.325.068-.118.301-.453.764-.46h.03c.462.007.695.342.764.46.074.13.11.26.127.325.034.133.063.31.09.473l.005.03c.115.698.19 1.144.285 1.47.089.303.168.4.23.455l.011.009c.063.053.171.117.482.155.333.042.78.044 1.478.044h.059c.525 0 .827-.002 1.033-.033h.008v-.01c-.021-.21-.093-.506-.22-1.022l-1.693-6.857a6.484 6.484 0 0 0-.172-.627l-.002-.005-.005-.001a6.248 6.248 0 0 0-.643-.017H4.433a6.25 6.25 0 0 0-.643.017h-.005zm18.521 8.636v-.003.003z" fill="currentColor"></path></g></svg>