<svg xmlns="http://www.w3.org/2000/svg" viewBox="0 0 16 16"><g fill="none" class="nc-icon-wrapper"><path fill-rule="evenodd" clip-rule="evenodd" d="M0 5.136C0 2.73 1.887.75 4.25.75c1.217 0 2.27.685 2.98 1.3.314.273.575.544.77.764.195-.22.456-.491.77-.764.71-.615 1.763-1.3 2.98-1.3C14.114.75 16 2.73 16 5.136c0 .935-.178 2.482-1.198 4.333-1.018 1.848-2.86 3.973-6.147 6.089l-.002.001a1.214 1.214 0 0 1-1.306 0l-.002-.001c-3.287-2.116-5.13-4.24-6.147-6.09C.178 7.619 0 6.072 0 5.137zm7.593-1.24l-.002-.004-.012-.015a6.433 6.433 0 0 0-.253-.314 7.419 7.419 0 0 0-.752-.758C5.925 2.243 5.104 1.75 4.25 1.75 2.472 1.75 1 3.249 1 5.136c0 .798.15 2.173 1.074 3.85.924 1.68 2.64 3.689 5.811 5.73A.215.215 0 0 0 8 14.75a.215.215 0 0 0 .115-.034c3.171-2.041 4.887-4.05 5.811-5.73C14.85 7.31 15 5.934 15 5.136c0-1.887-1.472-3.386-3.25-3.386-.853 0-1.675.493-2.324 1.055a7.419 7.419 0 0 0-1.005 1.072l-.012.015-.002.003a.5.5 0 0 1-.814 0z" fill="currentColor"></path></g></svg>