<svg xmlns="http://www.w3.org/2000/svg" width="158" height="159" viewBox="0 0 158 159" fill="none"><path fill-rule="evenodd" clip-rule="evenodd" d="M102.285 95.7727C102.291 95.7697 102.297 95.7667 102.3 95.7608L103.481 94.5725C103.847 93.9709 103.976 93.2952 104 92.4654V71.2145C103.968 70.7996 103.903 70.4381 103.797 70.118C103.499 69.1993 102.904 68.6185 102.008 68.0643L85.8815 58.6998L75.8294 69.3416V78.8958H88.1706V71.1374H94.3427V88.9863L78.1215 105.3L80.2839 106.557C81.7246 107.253 82.7439 107.075 83.9872 106.397L102.285 95.7727Z" fill="#E6AF5D"></path><path fill-rule="evenodd" clip-rule="evenodd" d="M69.6573 75.0196L85.8815 58.6998L83.7161 57.4433C82.2754 56.7469 81.2561 56.9247 80.0099 57.6034L69.3597 63.7851L61.7146 68.2273C60.3948 69.1342 60.0383 70.1091 60 71.5346V92.7855C60.0324 93.2004 60.0972 93.5619 60.2033 93.882C60.5008 94.8007 61.0959 95.3815 61.9916 95.9357L78.1244 105.306L88.1735 94.3473V85.1042H75.8294V92.8626H69.6573V75.0196Z" fill="#E6AF5D"></path><path d="M143.12 83.3391C143.12 66.8049 136.7 51.2608 125.075 39.5625L124.181 40.4606C135.576 51.9056 141.858 67.1273 141.858 83.3391C141.858 116.776 114.78 143.972 81.4878 143.972C65.4608 143.972 50.3739 137.732 39.0014 126.402L38.1072 127.3C49.7319 138.86 65.1398 145.239 81.4878 145.239C115.468 145.239 143.12 117.467 143.12 83.3391Z" fill="#E6AF5D"></path><path d="M1.28399 82.5792C1.28399 37.7432 37.5797 1.28958 82.2215 1.28958C111.065 1.28958 137.961 16.9027 152.383 42.0035L153.483 41.3587C138.832 15.8434 111.524 0 82.2215 0C36.8919 0 0 37.0524 0 82.5792C0 109.2 12.9087 134.347 34.5073 149.845L35.241 148.808C13.9864 133.564 1.28399 108.808 1.28399 82.5792Z" fill="#E6AF5D"></path><path d="M65.2791 157.716L67.3722 147.786L68.8579 148.105L66.7649 158.035L65.2791 157.716Z" fill="#E6AF5D"></path><path d="M46.6878 151.035L50.7825 141.761L52.0579 142.334L53.7296 151.234L53.8149 151.273L56.818 144.471L58.2056 145.094L54.1109 154.368L52.8265 153.792L51.1543 144.88L51.069 144.842L48.062 151.652L46.6878 151.035Z" fill="#E6AF5D"></path><path d="M40.9552 146.104L40.1867 147.171L33.8834 142.553L34.652 141.486L37.1932 143.348L42.3419 136.201L43.5668 137.099L38.418 144.245L40.9552 146.104Z" fill="#E6AF5D"></path><path d="M34.3776 129.228L26.8963 136.021L22.6729 131.291L23.6446 130.409L26.8516 134.001L29.1311 131.931L26.1445 128.586L27.1125 127.707L30.0991 131.052L32.3896 128.972L29.1431 125.336L30.1148 124.454L34.3776 129.228Z" fill="#E6AF5D"></path><path d="M26.1952 118.933L17.4767 124.009L15.6825 120.876C15.2925 120.195 15.0853 119.562 15.0608 118.977C15.0346 118.389 15.1633 117.864 15.4471 117.401C15.7279 116.94 16.1366 116.553 16.6729 116.241C17.2065 115.93 17.7409 115.77 18.2762 115.76C18.807 115.748 19.314 115.903 19.7971 116.225C20.2785 116.544 20.7142 117.044 21.1042 117.725L22.4634 120.099L21.331 120.758L20.0406 118.504C19.7949 118.075 19.5339 117.761 19.2579 117.563C18.9802 117.363 18.6889 117.267 18.3841 117.277C18.0793 117.286 17.7637 117.386 17.4373 117.576C17.1081 117.768 16.8598 117.998 16.6923 118.267C16.5231 118.534 16.4525 118.84 16.4805 119.186C16.504 119.531 16.641 119.923 16.8917 120.361L17.8454 122.026L25.4357 117.607L26.1952 118.933ZM19.7768 116.884L22.4667 112.421L23.3318 113.932L20.6174 118.352L19.7768 116.884Z" fill="#E6AF5D"></path><path d="M9.07555 105.654L18.65 102.517L19.1194 103.974L9.54493 107.111L9.07555 105.654Z" fill="#E6AF5D"></path><path d="M10.4743 85.0752C11.5433 84.9619 12.4829 85.0617 13.2932 85.3745C14.1002 85.6877 14.7464 86.1658 15.2319 86.8089C15.7138 87.4489 16.0002 88.2044 16.0909 89.0754C16.1821 89.9496 16.0581 90.7519 15.719 91.4823C15.3764 92.2098 14.841 92.8115 14.113 93.2874C13.3849 93.7633 12.488 94.0577 11.4223 94.1707C10.3533 94.284 9.41531 94.184 8.6083 93.8708C7.79804 93.5579 7.15196 93.0815 6.67006 92.4414C6.18456 91.7984 5.89625 91.0398 5.80513 90.1656C5.71436 89.2946 5.8403 88.4954 6.18296 87.7679C6.52202 87.0375 7.05557 86.4344 7.78362 85.9585C8.50841 85.4829 9.4053 85.1885 10.4743 85.0752ZM10.6315 86.5837C9.81674 86.6701 9.14457 86.8759 8.615 87.2011C8.08184 87.5235 7.69583 87.9299 7.45699 88.4204C7.21454 88.908 7.12346 89.441 7.18375 90.0194C7.24438 90.6011 7.44353 91.105 7.78121 91.5311C8.11563 91.9576 8.57699 92.2742 9.16531 92.481C9.75002 92.6848 10.4498 92.7436 11.2646 92.6572C12.0793 92.5709 12.7533 92.3665 13.2865 92.0442C13.816 91.7189 14.202 91.3125 14.4445 90.8249C14.6837 90.3377 14.773 89.8032 14.7123 89.2215C14.652 88.6431 14.4547 88.1406 14.1203 87.7142C13.7823 87.2848 13.3209 86.9682 12.7362 86.7644C12.1479 86.5576 11.4463 86.4973 10.6315 86.5837Z" fill="#E6AF5D"></path><path d="M15.6549 78.9841L5.64282 77.9229L6.01791 74.3241C6.09944 73.5419 6.30072 72.907 6.62174 72.4194C6.94312 71.9284 7.35345 71.5798 7.85274 71.3735C8.34877 71.1669 8.90478 71.0963 9.52075 71.1616C10.1335 71.2265 10.6593 71.4135 11.0983 71.7225C11.5344 72.0279 11.8541 72.4539 12.0575 73.0005C12.2611 73.5437 12.3222 74.2065 12.2407 74.9887L11.9566 77.7149L10.6562 77.577L10.9259 74.9889C10.9773 74.4959 10.949 74.0875 10.8411 73.7637C10.7335 73.4366 10.5536 73.1866 10.3014 73.0137C10.0492 72.8408 9.73575 72.7345 9.36095 72.6947C8.9829 72.6547 8.64765 72.6939 8.35521 72.8124C8.06311 72.9277 7.82746 73.1336 7.64825 73.4303C7.46613 73.7234 7.34887 74.1213 7.29646 74.6241L7.0971 76.5369L15.8136 77.4608L15.6549 78.9841ZM11.6572 73.5213L16.4343 71.5055L16.2535 73.2408L11.4815 75.2073L11.6572 73.5213Z" fill="#E6AF5D"></path><path d="M24.45 49.319L22.8204 52.1652L14.102 47.0892L15.7831 44.1529C16.2763 43.2915 16.8744 42.6533 17.5775 42.2384C18.2776 41.8218 19.0469 41.6381 19.8852 41.6874C20.7224 41.7321 21.5936 42.0181 22.4989 42.5451C23.4071 43.0739 24.0917 43.6957 24.5527 44.4106C25.0154 45.1226 25.2425 45.8958 25.2339 46.7304C25.2225 47.5632 24.9612 48.4261 24.45 49.319ZM22.4305 50.1695L23.2588 48.7228C23.6422 48.0531 23.836 47.4238 23.8403 46.8348C23.8416 46.2441 23.667 45.6998 23.3164 45.2019C22.9629 44.7022 22.4414 44.2517 21.7517 43.8502C21.0678 43.452 20.4243 43.2242 19.8214 43.167C19.22 43.1069 18.6722 43.2211 18.1779 43.5095C17.6836 43.7979 17.2529 44.2626 16.8859 44.9037L16.0109 46.4319L22.4305 50.1695Z" fill="#E6AF5D"></path><path d="M30.9385 39.8282L23.4571 33.0353L27.6804 28.3053L28.6521 29.1876L25.4451 32.7793L27.7246 34.849L30.7112 31.5041L31.6793 32.3831L28.6927 35.728L30.9831 37.8076L34.2295 34.1718L35.2012 35.0541L30.9385 39.8282Z" fill="#E6AF5D"></path><path d="M40.3207 21.2322C40.0048 20.8836 39.6179 20.7178 39.1601 20.7345C38.7004 20.7487 38.2373 20.9266 37.7706 21.2685C37.4366 21.5133 37.1861 21.7784 37.0193 22.0641C36.8505 22.3471 36.7649 22.6303 36.7626 22.9138C36.7611 23.1928 36.8441 23.4485 37.0116 23.6811C37.1523 23.8763 37.3187 24.0117 37.5109 24.0874C37.7058 24.1611 37.9121 24.1917 38.1299 24.1791C38.3485 24.162 38.567 24.1224 38.7856 24.0603C39.0022 23.9955 39.2045 23.9249 39.3925 23.8485L40.3381 23.4743C40.6441 23.3481 40.9732 23.2397 41.3252 23.1493C41.6773 23.0588 42.0345 23.0177 42.3969 23.0259C42.7592 23.0341 43.1073 23.1181 43.4412 23.2779C43.7777 23.4357 44.0789 23.6991 44.3447 24.068C44.6799 24.5332 44.8582 25.0337 44.8796 25.5695C44.9037 26.1032 44.7655 26.6395 44.465 27.1783C44.1672 27.7151 43.7002 28.2166 43.0639 28.6827C42.4541 29.1295 41.8562 29.4185 41.2702 29.5496C40.6842 29.6808 40.1362 29.6595 39.6262 29.4858C39.1143 29.3094 38.6669 28.9836 38.284 28.5084L39.5168 27.6052C39.7545 27.8845 40.0281 28.0618 40.3377 28.1373C40.648 28.2082 40.969 28.1956 41.3008 28.0995C41.6334 27.9988 41.9574 27.8329 42.2729 27.6018C42.6202 27.3473 42.8896 27.0662 43.081 26.7585C43.2732 26.4461 43.3762 26.1337 43.3901 25.8213C43.4021 25.5062 43.3117 25.2149 43.1191 24.9476C42.9438 24.7043 42.7314 24.5556 42.4818 24.5016C42.2349 24.4456 41.9582 24.4522 41.6517 24.5216C41.3478 24.589 41.0221 24.6907 40.6746 24.8269L39.5216 25.2673C38.7403 25.566 38.0336 25.6814 37.4014 25.6136C36.7719 25.5438 36.251 25.2228 35.8388 24.6507C35.4978 24.1775 35.3275 23.6712 35.3278 23.1318C35.328 22.5924 35.4752 22.0659 35.7694 21.5522C36.0617 21.0358 36.4809 20.5775 37.027 20.1774C37.5785 19.7733 38.1353 19.5145 38.6974 19.4008C39.2623 19.2852 39.7899 19.3091 40.2804 19.4726C40.7689 19.6335 41.1774 19.9306 41.5058 20.3639L40.3207 21.2322Z" fill="#E6AF5D"></path><path d="M51.5429 11.9892L55.6376 21.2634L54.25 21.8864L50.1553 12.6122L51.5429 11.9892Z" fill="#E6AF5D"></path><path d="M69.8418 9.78909C69.6869 9.51487 69.5063 9.27822 69.3002 9.07915C69.0966 8.87616 68.87 8.71526 68.6205 8.59644C68.3703 8.47439 68.0982 8.39927 67.8041 8.37108C67.5133 8.3422 67.2044 8.36281 66.8774 8.43289C66.3229 8.55175 65.8531 8.80278 65.4682 9.18597C65.0833 9.56916 64.8196 10.0666 64.6771 10.6782C64.5372 11.2859 64.5517 11.9906 64.7207 12.7922C64.8904 13.5971 65.1636 14.2497 65.5404 14.75C65.9173 15.2504 66.362 15.5959 66.8746 15.7867C67.3872 15.9775 67.932 16.0111 68.509 15.8874C69.0443 15.7727 69.4875 15.5628 69.8387 15.2578C70.193 14.9521 70.437 14.5755 70.5704 14.128C70.7065 13.6765 70.7169 13.1776 70.6017 12.6314L71.0017 12.6216L68.1841 13.2256L67.9235 11.9892L71.7941 11.1595L72.0322 12.2893C72.208 13.1232 72.1843 13.8851 71.9612 14.5748C71.7406 15.2606 71.356 15.8363 70.8075 16.3019C70.2623 16.7667 69.5922 17.0844 68.7972 17.2548C67.9061 17.4458 67.0803 17.4065 66.32 17.1371C65.5628 16.8669 64.9167 16.3922 64.3815 15.713C63.8457 15.0305 63.4674 14.1656 63.2466 13.1183C63.0797 12.3264 63.0388 11.5919 63.1239 10.9148C63.209 10.2378 63.4024 9.63721 63.704 9.11309C64.0081 8.58505 64.4033 8.14729 64.8896 7.79982C65.3784 7.44842 65.9417 7.20436 66.5796 7.06763C67.1117 6.95358 67.6236 6.92662 68.1154 6.98676C68.6104 7.04621 69.068 7.18292 69.4883 7.39688C69.9119 7.61016 70.2845 7.89179 70.6062 8.24177C70.9272 8.58851 71.1805 8.99539 71.366 9.46239L69.8418 9.78909Z" fill="#E6AF5D"></path><path d="M86.4438 5.64746V15.7993H85.0478L79.9306 8.35396H79.8372V15.7993H78.3183V5.64746H79.7242L84.8463 13.1027H84.9396V5.64746H86.4438Z" fill="#E6AF5D"></path><path d="M105.706 20.1711L109.801 10.8969L113.169 12.409C113.822 12.702 114.314 13.0533 114.646 13.4629C114.98 13.8695 115.171 14.3046 115.221 14.7684C115.273 15.2291 115.197 15.6889 114.994 16.1478C114.824 16.5342 114.61 16.8286 114.352 17.0311C114.095 17.2306 113.813 17.3573 113.506 17.4111C113.203 17.4632 112.895 17.4623 112.581 17.4085L112.541 17.499C112.84 17.6512 113.094 17.8846 113.303 18.1991C113.517 18.512 113.645 18.879 113.689 19.3001C113.732 19.7212 113.648 20.1718 113.436 20.6518C113.227 21.1258 112.928 21.5017 112.54 21.7796C112.156 22.0558 111.687 22.2013 111.131 22.2161C110.577 22.2278 109.944 22.0737 109.232 21.7538L105.706 20.1711ZM107.624 19.594L109.627 20.4933C110.291 20.7917 110.825 20.8756 111.227 20.745C111.629 20.6144 111.916 20.3544 112.088 19.9649C112.217 19.6721 112.262 19.3705 112.224 19.0601C112.185 18.7497 112.061 18.4609 111.853 18.1936C111.647 17.9277 111.359 17.7115 110.988 17.5448L108.935 16.6234L107.624 19.594ZM109.417 15.5321L111.276 16.3668C111.588 16.5065 111.894 16.5718 112.196 16.5626C112.501 16.5548 112.775 16.4751 113.017 16.3236C113.264 16.1704 113.454 15.9444 113.586 15.6455C113.755 15.2621 113.764 14.8808 113.612 14.5015C113.46 14.1223 113.109 13.809 112.558 13.5617L110.663 12.7109L109.417 15.5321Z" fill="#E6AF5D"></path><path d="M118.489 26.8448L117.184 25.8891L126.033 19.8234L127.452 20.8636L124.466 31.2239L123.162 30.2683L125.702 21.8601L125.638 21.8135L118.489 26.8448ZM121.025 23.7888L125.256 26.8889L124.505 27.9315L120.274 24.8314L121.025 23.7888Z" fill="#E6AF5D"></path><path d="M135.019 29.0698L135.991 28.1875L141.204 34.0263L140.233 34.9086L138.131 32.5546L131.621 38.4653L130.608 37.3307L137.118 31.4201L135.019 29.0698Z" fill="#E6AF5D"></path><path d="M137.491 46.1124L146.209 41.0365L146.969 42.363L143.18 44.5688L145.689 48.9518L149.478 46.746L150.24 48.0768L141.521 53.1527L140.76 51.8219L144.561 49.6086L142.052 45.2256L138.25 47.4389L137.491 46.1124Z" fill="#E6AF5D"></path><path d="M143.855 58.7415L153.429 55.6044L154.538 59.0458C154.779 59.7938 154.852 60.4564 154.755 61.0336C154.659 61.6139 154.425 62.1007 154.052 62.4939C153.682 62.8861 153.203 63.1787 152.614 63.3717C152.028 63.5637 151.472 63.6086 150.946 63.5063C150.425 63.4062 149.961 63.1482 149.555 62.7322C149.15 62.3195 148.826 61.7391 148.585 60.9911L147.745 58.384L148.989 57.9766L149.786 60.4516C149.938 60.9231 150.129 61.2845 150.358 61.5361C150.588 61.7907 150.854 61.9453 151.154 61.9999C151.454 62.0544 151.783 62.023 152.142 61.9056C152.503 61.7871 152.793 61.6138 153.013 61.3855C153.233 61.1604 153.365 60.8756 153.409 60.5311C153.458 60.1887 153.404 59.7771 153.249 59.2962L152.66 57.467L144.324 60.1982L143.855 58.7415ZM149.71 62.0923L146.159 65.8931L145.625 64.2337L149.191 60.48L149.71 62.0923Z" fill="#E6AF5D"></path><path d="M153.302 80.1293C152.233 80.2426 151.294 80.1428 150.483 79.8299C149.676 79.5167 149.03 79.0386 148.545 78.3956C148.063 77.7555 147.776 77 147.686 76.1291C147.595 75.2548 147.719 74.4525 148.058 73.7221C148.4 72.9947 148.936 72.393 149.664 71.9171C150.392 71.4411 151.289 71.1467 152.354 71.0338C153.423 70.9205 154.361 71.0204 155.168 71.3336C155.979 71.6465 156.625 72.123 157.107 72.763C157.592 73.4061 157.88 74.1647 157.971 75.0389C158.062 75.9098 157.936 76.709 157.594 77.4365C157.255 78.1669 156.721 78.7701 155.993 79.246C155.268 79.7215 154.371 80.016 153.302 80.1293ZM153.145 78.6207C153.96 78.5344 154.632 78.3286 155.162 78.0033C155.695 77.681 156.081 77.2745 156.32 76.784C156.562 76.2964 156.653 75.7634 156.593 75.185C156.532 74.6033 156.333 74.0994 155.995 73.6733C155.661 73.2469 155.2 72.9303 154.611 72.7235C154.027 72.5196 153.327 72.4609 152.512 72.5472C151.697 72.6336 151.023 72.8379 150.49 73.1603C149.961 73.4855 149.575 73.892 149.332 74.3795C149.093 74.8668 149.004 75.4012 149.064 75.983C149.125 76.5614 149.322 77.0638 149.656 77.4902C149.994 77.9196 150.456 78.2362 151.04 78.4401C151.629 78.6469 152.33 78.7071 153.145 78.6207Z" fill="#E6AF5D"></path><path d="M152.252 95.156C151.183 95.0427 150.284 94.7481 149.556 94.2722C148.831 93.7966 148.298 93.1935 147.955 92.4627C147.616 91.7356 147.492 90.9366 147.583 90.0656C147.674 89.1914 147.96 88.4326 148.443 87.7893C148.928 87.1495 149.575 86.6732 150.386 86.3604C151.196 86.0475 152.134 85.9476 153.2 86.0605C154.269 86.1738 155.166 86.4682 155.89 86.9438C156.618 87.4197 157.152 88.0212 157.492 88.7484C157.834 89.4791 157.959 90.2816 157.868 91.1558C157.778 92.0267 157.49 92.7821 157.004 93.4218C156.522 94.0652 155.876 94.5433 155.066 94.8561C154.259 95.1694 153.321 95.2693 152.252 95.156ZM152.409 93.6475C153.224 93.7338 153.924 93.6735 154.509 93.4663C155.097 93.2628 155.558 92.9462 155.893 92.5165C156.23 92.0904 156.429 91.5881 156.49 91.0097C156.55 90.428 156.459 89.8933 156.217 89.4058C155.978 88.9185 155.592 88.5121 155.059 88.1865C154.529 87.8645 153.857 87.6603 153.042 87.574C152.227 87.4876 151.526 87.5462 150.938 87.7497C150.353 87.9568 149.891 88.2735 149.554 88.6995C149.219 89.126 149.022 89.63 148.961 90.2118C148.901 90.7902 148.99 91.323 149.23 91.8102C149.472 92.3011 149.858 92.7075 150.388 93.0295C150.92 93.3551 151.594 93.5611 152.409 93.6475Z" fill="#E6AF5D"></path><path d="M155.891 101.96L155.322 103.728L146.889 104.363L146.852 104.477L153.304 109.989L152.735 111.757L143.16 108.62L143.607 107.234L150.535 109.504L150.564 109.414L144.567 104.301L144.938 103.151L152.774 102.571L152.803 102.481L145.87 100.209L146.317 98.8233L155.891 101.96Z" fill="#E6AF5D"></path><path d="M132.98 125.217L133.798 125.96L134.142 130.895C134.183 131.426 134.232 131.877 134.289 132.249C134.345 132.625 134.432 132.946 134.548 133.211C134.663 133.476 134.831 133.708 135.05 133.907C135.299 134.133 135.565 134.269 135.851 134.314C136.139 134.362 136.422 134.329 136.702 134.213C136.984 134.1 137.239 133.916 137.467 133.66C137.708 133.39 137.864 133.105 137.934 132.804C138.004 132.503 137.988 132.208 137.884 131.918C137.781 131.629 137.596 131.363 137.328 131.119L138.298 130.033C138.753 130.446 139.057 130.913 139.21 131.434C139.362 131.955 139.368 132.485 139.226 133.023C139.087 133.564 138.808 134.069 138.389 134.538C137.966 135.012 137.5 135.344 136.99 135.535C136.48 135.731 135.974 135.784 135.47 135.696C134.969 135.61 134.518 135.385 134.116 135.02C133.838 134.768 133.614 134.469 133.443 134.122C133.269 133.778 133.135 133.329 133.039 132.775C132.945 132.223 132.872 131.507 132.819 130.628L132.602 127.715L132.547 127.666L129.514 131.062L128.546 130.183L132.98 125.217Z" fill="#E6AF5D"></path><path d="M120.724 136.514C121.354 136.056 122.011 135.83 122.695 135.835C123.38 135.84 124.068 136.073 124.761 136.534C125.453 136.995 126.121 137.671 126.764 138.564C127.406 139.455 127.836 140.302 128.054 141.106C128.27 141.911 128.275 142.643 128.069 143.301C127.859 143.961 127.443 144.519 126.82 144.975C126.197 145.432 125.543 145.656 124.856 145.648C124.172 145.643 123.485 145.411 122.794 144.953C122.103 144.5 121.436 143.828 120.795 142.938C120.15 142.042 119.717 141.191 119.496 140.385C119.278 139.581 119.271 138.849 119.475 138.188C119.682 137.53 120.098 136.972 120.724 136.514ZM121.495 137.584C120.944 137.988 120.708 138.575 120.789 139.345C120.867 140.117 121.276 141.017 122.016 142.043C122.507 142.725 122.994 143.249 123.476 143.614C123.957 143.985 124.418 144.194 124.859 144.243C125.298 144.297 125.7 144.191 126.063 143.925C126.612 143.523 126.846 142.934 126.766 142.16C126.686 141.385 126.278 140.485 125.543 139.459C125.05 138.774 124.563 138.247 124.082 137.877C123.599 137.511 123.139 137.303 122.702 137.252C122.266 137.204 121.864 137.314 121.495 137.584Z" fill="#E6AF5D"></path><path d="M111.374 142.489L111.822 143.503L110.146 148.152C109.969 148.654 109.832 149.086 109.734 149.449C109.634 149.816 109.583 150.144 109.582 150.434C109.581 150.724 109.64 151.005 109.76 151.276C109.896 151.584 110.085 151.818 110.328 151.977C110.571 152.138 110.844 152.224 111.146 152.233C111.449 152.245 111.756 152.182 112.068 152.042C112.397 151.894 112.654 151.697 112.84 151.451C113.025 151.205 113.129 150.928 113.152 150.622C113.174 150.315 113.112 149.996 112.966 149.664L114.29 149.069C114.54 149.633 114.629 150.185 114.558 150.723C114.487 151.261 114.278 151.747 113.932 152.182C113.587 152.619 113.128 152.966 112.557 153.222C111.979 153.482 111.419 153.594 110.876 153.559C110.331 153.529 109.847 153.37 109.423 153.083C109 152.799 108.678 152.408 108.458 151.91C108.306 151.566 108.222 151.2 108.205 150.813C108.186 150.428 108.244 149.962 108.38 149.417C108.517 148.874 108.739 148.19 109.045 147.365L110.021 144.615L109.991 144.547L105.851 146.406L105.321 145.206L111.374 142.489Z" fill="#E6AF5D"></path><path d="M95.621 147.812C96.2813 147.671 96.8953 147.659 97.463 147.777C98.0275 147.896 98.5033 148.127 98.8904 148.47C99.2751 148.816 99.5355 149.257 99.6717 149.792L98.1619 150.116C98.0807 149.826 97.9291 149.591 97.7072 149.412C97.4827 149.237 97.2139 149.123 96.9009 149.068C96.5879 149.014 96.2551 149.024 95.9025 149.1C95.5146 149.183 95.1859 149.324 94.9165 149.524C94.6438 149.724 94.448 149.964 94.3292 150.243C94.2111 150.525 94.1858 150.826 94.2532 151.146C94.3234 151.479 94.47 151.753 94.6931 151.969C94.9136 152.189 95.201 152.336 95.5555 152.412C95.9067 152.489 96.3099 152.479 96.765 152.381L97.5968 152.203L97.8544 153.425L97.0226 153.603C96.6572 153.681 96.3506 153.816 96.1028 154.008C95.8519 154.2 95.6728 154.431 95.5654 154.701C95.4588 154.974 95.4392 155.27 95.5066 155.59C95.5714 155.897 95.6965 156.149 95.882 156.346C96.065 156.547 96.2952 156.685 96.5724 156.76C96.8465 156.837 97.1518 156.839 97.4884 156.767C97.809 156.698 98.0961 156.574 98.3497 156.395C98.6009 156.219 98.7898 156.003 98.9166 155.746C99.044 155.493 99.0822 155.212 99.0309 154.906L100.469 154.598C100.566 155.138 100.508 155.643 100.296 156.114C100.08 156.586 99.75 156.99 99.3047 157.325C98.8594 157.661 98.3355 157.893 97.7329 158.022C97.1014 158.157 96.5302 158.15 96.0194 157.999C95.506 157.852 95.081 157.6 94.7445 157.244C94.4047 156.887 94.185 156.465 94.0853 155.976C93.9649 155.421 94.0193 154.916 94.2485 154.461C94.4745 154.007 94.8299 153.659 95.3148 153.417L95.2985 153.339C94.6235 153.379 94.0618 153.226 93.6135 152.879C93.1621 152.534 92.8718 152.047 92.7429 151.419C92.6245 150.873 92.672 150.351 92.8852 149.853C93.0952 149.355 93.4352 148.926 93.9052 148.565C94.3759 148.207 94.9479 147.956 95.621 147.812Z" fill="#E6AF5D"></path></svg>