<?xml version="1.0" encoding="UTF-8"?>
<svg xmlns="http://www.w3.org/2000/svg" width="142" height="45" viewBox="0 0 142 45" fill="none">
  <path d="M49.2191 20.2309C50.494 21.2933 51.2832 22.7199 51.6019 24.4956H47.4586C47.2916 23.6609 46.9122 22.9931 46.3355 22.4923C45.7436 21.9914 44.9847 21.7334 44.0438 21.7334C43.2849 21.7334 42.7082 21.9155 42.2832 22.2646C41.8583 22.6137 41.661 23.0993 41.661 23.7064C41.661 24.1921 41.8279 24.5715 42.1618 24.8599C42.4957 25.1482 42.9207 25.3759 43.4215 25.5429C43.9223 25.7098 44.6508 25.9071 45.5918 26.1348C46.9122 26.4231 47.9746 26.7418 48.8094 27.0606C49.6289 27.3793 50.3422 27.8953 50.9341 28.5934C51.526 29.2916 51.8296 30.2326 51.8296 31.4316C51.8296 32.9189 51.2529 34.1179 50.0842 35.0437C48.9308 35.9695 47.3675 36.4248 45.3945 36.4248C43.1331 36.4248 41.3271 35.924 39.9763 34.9071C38.6104 33.8902 37.7908 32.4484 37.5024 30.5665H41.7368C41.8431 31.4164 42.2225 32.0993 42.8599 32.585C43.5126 33.0707 44.3473 33.3287 45.3945 33.3287C46.1534 33.3287 46.7149 33.1466 47.1247 32.7823C47.5193 32.4181 47.7166 31.9476 47.7166 31.3557C47.7166 30.8548 47.5497 30.445 47.2006 30.1263C46.8515 29.8076 46.4266 29.58 45.9105 29.3978C45.3945 29.2309 44.666 29.0336 43.725 28.8059C42.435 28.5176 41.3726 28.214 40.5682 27.9105C39.7638 27.6069 39.0809 27.1213 38.5041 26.4535C37.9274 25.7857 37.639 24.8599 37.639 23.6913C37.639 22.1887 38.2158 20.9594 39.3692 20.0184C40.5227 19.0774 42.1011 18.6069 44.1348 18.6069C46.2444 18.6373 47.9443 19.1685 49.2191 20.2309Z" fill="black"></path>
  <path d="M59.5396 13.022V36.2277H55.123V13.022H59.5396Z" fill="black"></path>
  <path d="M79.725 28.3813H66.9914C67.0521 29.9294 67.4771 31.0677 68.2511 31.7962C69.0251 32.5247 69.9813 32.8889 71.1347 32.8889C72.1516 32.8889 73.0167 32.6309 73.6845 32.1301C74.3675 31.6292 74.7924 30.9463 74.9897 30.0963H79.6642C79.4366 31.3105 78.9357 32.4033 78.1921 33.3594C77.4332 34.3156 76.4771 35.0744 75.2933 35.6208C74.1094 36.1672 72.8042 36.4404 71.3624 36.4404C69.6626 36.4404 68.16 36.0761 66.8548 35.3628C65.5344 34.6343 64.5175 33.6174 63.789 32.2818C63.0605 30.9463 62.6963 29.3678 62.6963 27.5466C62.6963 25.7253 63.0605 24.1469 63.789 22.7962C64.5175 21.4454 65.5496 20.4134 66.8548 19.7152C68.1752 19.0019 69.6777 18.6528 71.3624 18.6528C73.0774 18.6528 74.5799 19.0019 75.8548 19.7152C77.1449 20.4285 78.1314 21.3999 78.8295 22.6444C79.5277 23.8889 79.8767 25.3004 79.8767 26.894C79.8767 27.3189 79.8312 27.8198 79.725 28.3813ZM74.3219 23.206C73.5175 22.4775 72.531 22.1132 71.3624 22.1132C70.1634 22.1132 69.1617 22.4775 68.3573 23.206C67.5378 23.9344 67.0976 25.012 67.0066 26.4387H75.4298C75.4906 25.012 75.1263 23.9344 74.3219 23.206Z" fill="black"></path>
  <path d="M92.2917 32.4333V36.2275H89.9697C88.027 36.2275 86.5396 35.757 85.5076 34.8161C84.4756 33.8751 83.9595 32.3119 83.9595 30.1112V22.5834H81.5464V18.8498H83.9595V14.5547H88.3761V18.8498H92.2614V22.5834H88.3761V30.1719C88.3761 31.0066 88.543 31.5985 88.8769 31.9324C89.2108 32.2663 89.7724 32.4333 90.5767 32.4333H92.2917Z" fill="black"></path>
  <path d="M104.737 32.4333V36.2275H102.415C100.472 36.2275 98.9847 35.757 97.9527 34.8161C96.9206 33.8751 96.4046 32.3119 96.4046 30.1112V22.5834H93.9915V18.8498H96.4046V14.5547H100.821V18.8498H104.706V22.5834H100.821V30.1719C100.821 31.0066 100.988 31.5985 101.322 31.9324C101.656 32.2663 102.217 32.4333 103.022 32.4333H104.737Z" fill="black"></path>
  <path d="M124.087 28.3813H111.354C111.415 29.9294 111.84 31.0677 112.614 31.7962C113.388 32.5247 114.344 32.8889 115.497 32.8889C116.514 32.8889 117.379 32.6309 118.047 32.1301C118.73 31.6292 119.155 30.9463 119.352 30.0963H124.027C123.799 31.3105 123.298 32.4033 122.555 33.3594C121.796 34.3156 120.84 35.0744 119.656 35.6208C118.472 36.1672 117.167 36.4404 115.725 36.4404C114.025 36.4404 112.523 36.0761 111.217 35.3628C109.897 34.6343 108.88 33.6174 108.152 32.2818C107.423 30.9463 107.059 29.3678 107.059 27.5466C107.059 25.7253 107.423 24.1469 108.152 22.7962C108.88 21.4454 109.912 20.4134 111.217 19.7152C112.538 19.0019 114.04 18.6528 115.725 18.6528C117.44 18.6528 118.942 19.0019 120.217 19.7152C121.507 20.4285 122.494 21.3999 123.192 22.6444C123.89 23.8889 124.239 25.3004 124.239 26.894C124.239 27.3189 124.194 27.8198 124.087 28.3813ZM118.684 23.206C117.88 22.4775 116.894 22.1132 115.725 22.1132C114.526 22.1132 113.524 22.4775 112.72 23.206C111.9 23.9344 111.46 25.012 111.369 26.4387H119.808C119.853 25.012 119.489 23.9344 118.684 23.206Z" fill="black"></path>
  <path d="M134.378 19.5631C135.44 18.9257 136.639 18.6069 137.944 18.6069V23.3422H136.654C133.422 23.3422 131.798 24.8447 131.798 27.8498V36.2275H127.381V18.8498H131.798V22.1735C132.45 21.0656 133.3 20.2005 134.378 19.5631Z" fill="black"></path>
  <path d="M138.946 14.8433V15.162H138.263V17.2564H137.868V15.162H137.201V14.8433H138.946Z" fill="black"></path>
  <path d="M141.739 14.8887V17.2563H141.344V15.4806L140.661 17.2563H140.312L139.629 15.4806V17.2563H139.234V14.8887H139.705L140.494 16.7858L141.268 14.8887H141.739Z" fill="black"></path>
  <path d="M0 29.2616L4.90219 27.0609V27.0913L15.1164 22.5078L25.3457 33.6478L0 45.0002V29.2616Z" fill="#2BD8FF"></path>
  <path d="M15.1011 22.4924L4.9021 11.398V11.3524L30.263 0V15.7386L25.3608 17.9241V17.9089L15.1011 22.4924Z" fill="#2BD8FF"></path>
</svg>
