<?xml version="1.0" encoding="UTF-8"?>
<svg xmlns="http://www.w3.org/2000/svg" width="111" height="45" viewBox="0 0 111 45" fill="none">
  <path d="M28.4614 6.95399L19.4858 1.7659L1.54668 12.1299V32.8579L19.4858 43.2219L37.4371 32.8579V12.1299L28.4614 6.95399ZM19.8755 0.219215C26.2327 3.89716 32.6022 7.5751 38.9716 11.253V33.747L19.4858 45L0 33.747V11.253C6.4912 7.50203 12.9946 3.75101 19.4858 0L19.8755 0.219215Z" fill="#004097"></path>
  <path d="M19.9729 0.88916V8.63476L19.6197 7.9893C19.4127 8.06237 19.2178 8.17197 19.0229 8.28158V0.88916H19.9729Z" fill="#004097"></path>
  <path d="M14.2368 26.0745L1.01085 33.7227L0.535889 32.8824L14.2734 24.9541L14.2368 26.0745ZM37.9608 33.7227L25.8796 26.7565C26.0014 26.4764 26.0866 26.1476 26.1353 25.7944L38.4358 32.8946L37.9608 33.7227Z" fill="#004097"></path>
  <path d="M19.0474 9.18269C17.7443 10.7294 16.7944 12.1664 16.1733 13.4939C15.4913 14.9554 15.2234 16.2706 15.3817 17.4276C15.54 18.548 16.1002 19.5467 17.0745 20.4236C18.6577 21.8484 20.6428 22.6157 22.6523 23.2125C22.6523 23.2125 22.6523 23.2125 22.6645 23.2125C24.0041 23.59 26.0867 24.1137 26.5129 25.5995C26.6956 26.2206 26.586 27.0974 26.1598 27.5968C25.8553 27.9499 25.3803 28.23 24.7227 28.364C24.5644 28.4005 24.4426 28.498 24.406 28.6563C24.3573 28.8146 24.3939 28.9608 24.5035 29.0826C25.6117 30.2273 26.3668 31.433 26.6956 32.5778C26.9757 33.5277 26.9757 34.4411 26.6591 35.2571C26.3424 36.0853 25.7091 36.7794 24.747 37.2666C22.5914 38.3627 17.4642 38.3627 15.3086 37.2666C14.3465 36.7794 13.7132 36.0853 13.3966 35.2571C13.0799 34.4411 13.0799 33.5277 13.36 32.5778C13.701 31.4452 14.4439 30.2273 15.5522 29.0826C15.6618 28.9729 15.6983 28.8146 15.6496 28.6563C15.6009 28.498 15.4791 28.4005 15.333 28.364C14.4561 28.1813 13.8959 27.7429 13.628 27.2192C13.4575 26.8782 13.4087 26.5129 13.4575 26.1475C13.5062 25.8065 13.6645 25.4899 13.8959 25.1976C14.383 24.613 15.8688 24.0284 17.1719 24.0284C17.2937 24.0284 17.3911 24.0771 17.4764 24.1624C17.5616 24.2476 17.5982 24.3572 17.5982 24.479L17.5616 25.3437C17.5495 25.5629 17.379 25.7456 17.1476 25.7578C16.3925 25.7821 15.3817 26.0623 15.199 26.2815C15.1625 26.3302 15.1259 26.3789 15.1259 26.4154C15.1259 26.4276 15.1259 26.4398 15.1381 26.452C15.2112 26.5981 15.4791 26.7199 15.9906 26.7564C16.429 26.793 16.77 26.9026 17.038 27.0609C17.4277 27.3045 17.6469 27.6333 17.7321 28.0108C17.8174 28.3397 17.7809 28.6807 17.6834 28.9973C17.5616 29.3505 17.3424 29.6915 17.0867 29.9351C15.9906 30.9824 15.2599 32.0785 14.9676 33.0528C14.7971 33.6495 14.7849 34.1976 14.9554 34.6482C15.1259 35.0866 15.4913 35.4641 16.0637 35.7564C17.6834 36.5846 22.3478 36.5724 23.9676 35.7564C24.54 35.4641 24.9054 35.0866 25.0759 34.6482C25.2464 34.1976 25.2464 33.6495 25.0637 33.0528C24.7714 32.0663 24.0407 30.9824 22.9446 29.9351C22.6888 29.6915 22.4696 29.3505 22.3478 28.9973C22.2504 28.6807 22.2139 28.3397 22.2991 28.0108C22.3966 27.6333 22.6158 27.3045 23.0055 27.0609C23.2734 26.9026 23.6144 26.7808 24.0528 26.7564C26.7078 26.5616 22.7254 25.0149 22.1652 24.8444C19.9243 24.1746 17.6713 23.249 15.9419 21.6901C14.6631 20.5332 13.9202 19.1935 13.701 17.6712C13.494 16.1854 13.8106 14.5656 14.6388 12.7876C15.4791 11.0095 16.8431 9.0609 18.743 6.96618L19.0474 6.62518C19.1327 6.52775 19.2423 6.49121 19.3641 6.49121C19.4859 6.49121 19.5955 6.53993 19.6807 6.62518L19.9852 6.96618C21.8851 9.0609 23.2612 11.0095 24.0894 12.7876C24.9175 14.5535 25.2342 16.1854 25.0271 17.6712C24.8201 19.1935 24.065 20.5332 22.7863 21.6901C22.6645 21.7997 22.5305 21.9093 22.3966 22.019C22.2869 22.1164 22.1408 22.1407 21.9947 22.092C21.6658 21.9946 21.3492 21.885 21.0204 21.7632C20.8742 21.7023 20.7646 21.5805 20.7403 21.4222C20.7159 21.2639 20.7768 21.1177 20.9108 21.0203C21.1787 20.8376 21.4101 20.6428 21.6293 20.4357C22.6036 19.5589 23.1638 18.5602 23.3221 17.4398C23.4805 16.2828 23.2247 14.9675 22.5305 13.5061C21.9094 12.1786 20.9473 10.7415 19.6564 9.19486C19.5711 9.09744 19.4615 9.03654 19.3275 9.03654C19.1936 9.03654 19.1327 9.08526 19.0474 9.18269Z" fill="#004097"></path>
  <path fill-rule="evenodd" clip-rule="evenodd" d="M19.3762 9.87695C14.8945 15.2234 14.8945 18.9135 19.3762 20.9717C23.8579 18.9257 23.8579 15.2234 19.3762 9.87695Z" fill="#80BE26"></path>
  <path d="M104.529 15.9541V13.6402H106.271C107.16 13.6402 107.708 14.0299 107.708 14.785V14.8093C107.708 15.5157 107.184 15.9541 106.283 15.9541H104.529ZM101.862 20.9473H104.529V18.0367H105.674H105.698L107.635 20.9473H110.716L108.426 17.5982C109.62 17.0867 110.399 16.1124 110.399 14.6388V14.6145C110.399 13.6645 110.107 12.9216 109.547 12.3736C108.901 11.7159 107.878 11.3262 106.417 11.3262H101.874V20.9473H101.862ZM95.3099 18.743C93.8485 18.743 92.8498 17.5373 92.8498 16.149V16.1246C92.8498 14.7362 93.8241 13.5549 95.2856 13.5549C96.7592 13.5549 97.7578 14.7606 97.7578 16.149V16.1733C97.7578 17.5617 96.7835 18.743 95.3099 18.743ZM95.2856 21.1422C98.2572 21.1422 100.474 18.9013 100.474 16.1368V16.1124C100.474 13.3479 98.2693 11.1436 95.3099 11.1436C92.3383 11.1436 90.1218 13.3844 90.1218 16.149V16.1733C90.1097 18.9379 92.314 21.1422 95.2856 21.1422ZM86.0055 20.9473H88.6848V11.3262H86.0055V20.9473ZM78.7348 15.9541V13.6402H80.4764C81.3654 13.6402 81.9134 14.0299 81.9134 14.785V14.8093C81.9134 15.5157 81.3898 15.9541 80.4885 15.9541H78.7348ZM76.0677 20.9473H78.7348V18.0367H79.8796H79.904L81.8404 20.9473H84.9216L82.632 17.5982C83.8255 17.0867 84.6049 16.1124 84.6049 14.6388V14.6145C84.6049 13.6645 84.3126 12.9216 83.7524 12.3736C83.107 11.7159 82.0839 11.3262 80.6225 11.3262H76.0799V20.9473H76.0677ZM66.9094 20.9473H74.7159V18.6821H69.54V17.1598H74.1557V15.0529H69.54V13.5915H74.6428V11.3384H66.9094V20.9473ZM60.1868 20.9473H62.8539V13.6645H65.7402V11.3384H57.3005V13.6767H60.1868V20.9473ZM47.0461 20.9473H49.6888V15.674L53.793 20.9473H56.1313V11.3262H53.4885V16.4047L49.5305 11.3262H47.0461V20.9473ZM42.613 20.9473H45.2923V11.3262H42.613V20.9473Z" fill="#004097"></path>
  <path d="M86.3099 33.6616H88.9527V28.3883L93.0568 33.6616H95.3951V24.0405H92.7524V29.119L88.7943 24.0405H86.3099V33.6616ZM80.6468 33.8565C82.3884 33.8565 83.8133 33.211 84.8241 32.3707V28.0473H80.4033V29.9959H82.3031V31.165C81.9012 31.4208 81.4141 31.5669 80.7686 31.5669C79.2463 31.5669 78.1624 30.4587 78.1624 28.8998V28.8633C78.1624 27.3897 79.2341 26.2205 80.6225 26.2205C81.5724 26.2205 82.2544 26.5493 82.9486 27.1217L84.5196 25.234C83.5088 24.3572 82.3031 23.8335 80.6225 23.8335C77.6387 23.8335 75.4466 26.0378 75.4466 28.8389V28.8633C75.41 31.7983 77.6509 33.8565 80.6468 33.8565ZM71.3058 33.6616H73.9851V24.0405H71.3058V33.6616ZM66.069 33.8321C68.4073 33.8321 69.954 32.663 69.954 30.7022V30.6779C69.954 28.8754 68.5778 28.1691 66.3735 27.6819C65.046 27.3775 64.705 27.1826 64.705 26.7442V26.7198C64.705 26.3788 65.0217 26.0987 65.6671 26.0987C66.5196 26.0987 67.4817 26.4275 68.3586 27.0487L69.6861 25.161C68.6387 24.3206 67.36 23.8822 65.728 23.8822C63.4141 23.8822 62.0014 25.1731 62.0014 26.9634V26.9878C62.0014 28.9607 63.5846 29.5453 65.6306 30.0081C66.9337 30.3125 67.2504 30.5317 67.2504 30.9336V30.958C67.2504 31.3721 66.8606 31.6156 66.1543 31.6156C65.046 31.6156 63.9865 31.2137 63.0366 30.4587L61.5508 32.2367C62.7443 33.2963 64.364 33.8321 66.069 33.8321ZM53.1232 33.6616H60.9297V31.3964H55.7659V29.8741H60.3816V27.7672H55.7659V26.3058H60.8688V24.0405H53.1353V33.6616H53.1232ZM45.2801 31.299V26.4032H46.364C47.9594 26.4032 49.019 27.2922 49.019 28.8389V28.8633C49.019 30.4221 47.9594 31.299 46.364 31.299H45.2801ZM42.613 33.6616H46.2666C49.7253 33.6616 51.747 31.6035 51.747 28.8267V28.8024C51.747 26.0256 49.7497 24.0527 46.3153 24.0527H42.6008V33.6616H42.613Z" fill="#004097"></path>
</svg>
