<?xml version="1.0" encoding="UTF-8"?>
<svg xmlns="http://www.w3.org/2000/svg" width="87" height="45" viewBox="0 0 87 45" fill="none">
  <g style="mix-blend-mode:luminosity" clip-path="url(#clip0_1_1792)">
    <path d="M10.6196 25.1185L17.6994 17.1659V35.6412H10.6196V25.1185ZM20.4149 13.0442V0.921336L17.9903 0L0.33944 20.3664L0 20.7543V43.6422V45.0485H1.40625H19.0571H20.4634V43.6422V38.4052H28.9009H30.3071V36.9504V24.1002L29.9677 23.7123L20.4149 13.0442ZM20.4149 17.2144L27.4461 25.167V35.6897H20.4149V17.2144ZM17.6509 13.0442L8.19504 23.7123L7.8556 24.1002V36.9989V38.4052H9.21336H17.6509V42.236H2.76401V21.7726L17.6509 4.60668V13.0442Z" fill="black"></path>
    <path d="M41.5087 25.1669L38.7447 20.3177H37.5809V25.1669H35.0593V12.7046H39.763C40.7328 12.7046 41.5572 12.8985 42.236 13.238C42.9149 13.5774 43.4483 14.0138 43.7878 14.5957C44.1272 15.1776 44.3212 15.808 44.3212 16.5354C44.3212 17.3597 44.0787 18.0871 43.5938 18.766C43.1089 19.4449 42.43 19.8813 41.4602 20.1238L44.4667 25.1669H41.5087ZM37.5809 18.4266H39.666C40.3449 18.4266 40.8298 18.2811 41.1692 17.9416C41.5087 17.6022 41.6542 17.1658 41.6542 16.5839C41.6542 16.002 41.5087 15.5656 41.1692 15.2746C40.8298 14.9352 40.3449 14.7897 39.666 14.7897H37.5809V18.4266ZM55.1348 19.9783C55.1348 20.3177 55.1348 20.6572 55.0863 20.9481H47.861C47.9095 21.6755 48.152 22.2089 48.5884 22.6453C49.0248 23.0332 49.5582 23.2757 50.2371 23.2757C51.1585 23.2757 51.8373 22.8878 52.2253 22.0634H54.9408C54.6498 23.0332 54.1164 23.8091 53.2921 24.4395C52.4677 25.0699 51.4979 25.3608 50.2856 25.3608C49.3158 25.3608 48.4914 25.1669 47.7156 24.7304C46.9397 24.294 46.3578 23.7121 45.9214 22.9363C45.485 22.1604 45.291 21.2875 45.291 20.2692C45.291 19.2509 45.485 18.3296 45.9214 17.5537C46.3578 16.7778 46.9397 16.196 47.6671 15.7595C48.3945 15.3231 49.2673 15.1291 50.2371 15.1291C51.1585 15.1291 52.0313 15.3231 52.7587 15.7595C53.486 16.1475 54.0679 16.7294 54.5044 17.5052C54.9408 18.1841 55.1348 19.0569 55.1348 19.9783ZM52.5647 19.2994C52.5647 18.669 52.3223 18.1356 51.8858 17.7477C51.4494 17.3597 50.8675 17.1658 50.2371 17.1658C49.6067 17.1658 49.0733 17.3597 48.6854 17.7477C48.249 18.1356 48.0065 18.669 47.9095 19.2994H52.5647ZM55.7167 20.1722C55.7167 19.1539 55.9106 18.2811 56.2985 17.5052C56.6865 16.7294 57.2199 16.1475 57.9473 15.711C58.6261 15.2746 59.402 15.0807 60.2263 15.0807C60.9537 15.0807 61.6326 15.2261 62.166 15.5171C62.6994 15.808 63.1843 16.196 63.4753 16.6324V15.2261H65.9968V25.1184H63.5238V23.6636C63.1843 24.1485 62.7479 24.5365 62.2145 24.8274C61.6326 25.1184 61.0022 25.2638 60.2748 25.2638C59.4505 25.2638 58.6746 25.0699 57.9957 24.6335C57.3169 24.197 56.7835 23.6151 56.347 22.8393C55.9106 22.1119 55.7167 21.1906 55.7167 20.1722ZM63.5238 20.2207C63.5238 19.5903 63.4268 19.1054 63.1843 18.669C62.9419 18.2326 62.6024 17.8932 62.2145 17.6507C61.8266 17.4082 61.3901 17.3113 60.9052 17.3113C60.4203 17.3113 60.0324 17.4082 59.596 17.6507C59.208 17.8932 58.8686 18.1841 58.6261 18.6205C58.3837 19.0569 58.2382 19.5903 58.2382 20.1722C58.2382 20.7541 58.3837 21.2875 58.6261 21.724C58.8686 22.1604 59.208 22.4998 59.596 22.7423C59.9839 22.9847 60.4203 23.0817 60.8567 23.0817C61.3417 23.0817 61.7781 22.9847 62.166 22.7423C62.5539 22.4998 62.8934 22.1604 63.1358 21.724C63.4268 21.336 63.5238 20.8026 63.5238 20.2207ZM70.4095 11.9287V25.1669H67.888V11.9287H70.4095ZM37.5809 29.4826V32.6345H41.7996V34.6227H37.5809V37.9201H42.333V39.9567H35.0593V27.446H42.2845V29.4826H37.5809ZM47.7641 40.1022C46.9397 40.1022 46.2123 39.9567 45.582 39.6658C44.9516 39.3748 44.4182 38.9869 44.0302 38.4535C43.6423 37.9686 43.4483 37.3867 43.3998 36.8048H45.9214C45.9699 37.1927 46.1639 37.4837 46.5033 37.7746C46.8427 38.0171 47.2307 38.1625 47.7156 38.1625C48.2005 38.1625 48.5884 38.0656 48.8309 37.8716C49.1218 37.6776 49.2188 37.4352 49.2188 37.1442C49.2188 36.8048 49.0733 36.5623 48.7339 36.4169C48.3945 36.2714 47.861 36.0774 47.1822 35.8835C46.4548 35.6895 45.8244 35.4955 45.388 35.35C44.9031 35.1561 44.5151 34.8651 44.1757 34.4772C43.8363 34.0893 43.6423 33.5559 43.6423 32.877C43.6423 32.3436 43.7878 31.8102 44.1272 31.3738C44.4667 30.9373 44.9031 30.5494 45.485 30.3069C46.0669 30.0645 46.7457 29.919 47.5701 29.919C48.7339 29.919 49.7037 30.21 50.3826 30.7919C51.11 31.3738 51.4494 32.1981 51.5464 33.1679H49.1703C49.1218 32.78 48.9764 32.4406 48.6854 32.2466C48.3945 32.0041 48.0065 31.8587 47.5216 31.8587C47.0852 31.8587 46.6973 31.9556 46.4548 32.1011C46.2123 32.2466 46.0669 32.4891 46.0669 32.78C46.0669 33.1194 46.2123 33.3619 46.5518 33.5559C46.8912 33.7498 47.4246 33.8953 48.1035 34.0893C48.8309 34.2832 49.4128 34.4772 49.8977 34.6227C50.3826 34.8166 50.7705 35.1076 51.11 35.4955C51.4494 35.8835 51.6434 36.4169 51.6434 37.0957C51.6434 37.6776 51.4979 38.1625 51.1585 38.6475C50.819 39.0839 50.3826 39.4718 49.8007 39.7143C49.2673 40.0052 48.5884 40.1022 47.7641 40.1022ZM56.0561 32.1011V36.9018C56.0561 37.2412 56.1531 37.4837 56.2985 37.6291C56.444 37.7746 56.735 37.8716 57.1229 37.8716H58.2867V40.0052H56.735C54.6013 40.0052 53.583 38.9869 53.583 36.9503V32.1981H52.3707V30.0645H53.5345V27.5914H56.0561V30.0645H58.2867V32.1011H56.0561ZM58.8201 34.9621C58.8201 33.9438 59.0141 33.071 59.402 32.2951C59.7899 31.5192 60.3233 30.9373 61.0507 30.5009C61.7296 30.0645 62.5054 29.8705 63.3298 29.8705C64.0572 29.8705 64.7361 30.016 65.2695 30.3069C65.8029 30.5979 66.2878 30.9858 66.5787 31.4222V30.0645H69.1003V39.9567H66.5787V38.502C66.2393 38.9869 65.8029 39.3748 65.2695 39.6658C64.6876 39.9567 64.0572 40.1022 63.3298 40.1022C62.5054 40.1022 61.7296 39.9082 61.0507 39.4718C60.3718 39.0354 59.8384 38.4535 59.402 37.6776C59.0141 36.9018 58.8201 35.9804 58.8201 34.9621ZM66.6272 35.0106C66.6272 34.3802 66.5302 33.8953 66.2878 33.4589C66.0453 33.0225 65.7059 32.683 65.3179 32.4406C64.93 32.1981 64.4936 32.1011 64.0087 32.1011C63.5238 32.1011 63.1358 32.1981 62.6994 32.4406C62.3115 32.683 61.972 32.974 61.7296 33.4104C61.4871 33.8468 61.3417 34.3802 61.3417 34.9621C61.3417 35.544 61.4871 36.0774 61.7296 36.5138C61.972 36.9503 62.3115 37.2897 62.6994 37.5322C63.0873 37.7746 63.5238 37.8716 63.9602 37.8716C64.4451 37.8716 64.8815 37.7746 65.2695 37.5322C65.6574 37.2897 65.9968 36.9503 66.2393 36.5138C66.5302 36.1259 66.6272 35.641 66.6272 35.0106ZM73.9009 32.1011V36.9018C73.9009 37.2412 73.9979 37.4837 74.1434 37.6291C74.2888 37.7746 74.5798 37.8716 74.9677 37.8716H76.1315V40.0052H74.5798C72.4462 40.0052 71.4279 38.9869 71.4279 36.9503V32.1981H70.2641V30.0645H71.4279V27.5914H73.9494V30.0645H76.18V32.1011H73.9009ZM86.5572 34.8166C86.5572 35.1561 86.5572 35.4955 86.5087 35.7865H79.2835C79.332 36.5138 79.5744 37.0472 80.0108 37.4837C80.4473 37.8716 80.9807 38.1141 81.6595 38.1141C82.5809 38.1141 83.2598 37.7261 83.6477 36.9018H86.3632C86.0723 37.8716 85.5388 38.6475 84.7145 39.2778C83.8901 39.9082 82.9203 40.1992 81.708 40.1992C80.7382 40.1992 79.9138 40.0052 79.138 39.5688C78.3621 39.1324 77.7802 38.5505 77.3438 37.7746C76.9074 36.9988 76.7134 36.1259 76.7134 35.1076C76.7134 34.0893 76.9074 33.1679 77.3438 32.3921C77.7802 31.6162 78.3621 31.0343 79.0895 30.5979C79.8169 30.1615 80.6897 29.9675 81.6595 29.9675C82.5809 29.9675 83.4537 30.1615 84.1811 30.5979C84.9085 30.9858 85.4904 31.5677 85.9268 32.3436C86.3632 32.974 86.5572 33.8468 86.5572 34.8166ZM83.9871 34.0893C83.9871 33.4589 83.7447 32.9255 83.3082 32.5375C82.8718 32.1496 82.2899 31.9557 81.6595 31.9557C81.0291 31.9557 80.4957 32.1496 80.1078 32.5375C79.6714 32.9255 79.4289 33.4589 79.332 34.0893H83.9871Z" fill="black"></path>
  </g>
  <defs>
    <clipPath id="clip0_1_1792">
      <rect width="86.5571" height="45" fill="white"></rect>
    </clipPath>
  </defs>
</svg>
