<?xml version="1.0" encoding="UTF-8"?>
<svg xmlns="http://www.w3.org/2000/svg" width="125" height="45" viewBox="0 0 125 45" fill="none">
  <path d="M37.4368 27.3869V11.4624H40.855V27.3869H37.4368Z" fill="#162B36"></path>
  <path d="M55.2547 21.6351V27.3969H51.8364V21.6862C51.8364 21.195 51.7341 20.7447 51.5294 20.3353C51.3247 19.9259 51.0382 19.5984 50.6697 19.3528C50.3013 19.1072 49.8612 18.9844 49.3597 18.9844C48.8685 18.9844 48.4489 19.1072 48.1214 19.3528C47.7837 19.5984 47.538 19.9259 47.3641 20.3353C47.1901 20.7447 47.1082 21.195 47.1082 21.6862V27.3969H43.7002V16.0165H47.1184V17.0604C47.4766 16.651 47.886 16.3235 48.3568 16.0676C48.8276 15.822 49.37 15.689 49.984 15.689C51.0791 15.689 52.0104 15.9551 52.7984 16.4872C53.5865 17.0194 54.1903 17.7358 54.6099 18.6364C55.0295 19.5473 55.2444 20.54 55.2547 21.6351Z" fill="#162B36"></path>
  <path d="M61.1496 27.5918C60.5765 27.5406 60.0239 27.4178 59.4917 27.2131C58.9595 27.0187 58.4887 26.7423 58.0691 26.4046C57.6495 26.0669 57.322 25.6473 57.0764 25.156L59.942 23.9279C60.0136 24.0098 60.1262 24.1121 60.2593 24.2452C60.3923 24.368 60.5663 24.4806 60.7812 24.5829C60.9859 24.6853 61.2418 24.7262 61.5385 24.7262C61.733 24.7262 61.9275 24.7057 62.1117 24.6648C62.2959 24.6239 62.4494 24.5522 62.562 24.4396C62.6745 24.3373 62.736 24.1838 62.736 23.9996C62.736 23.7846 62.6541 23.6311 62.5006 23.5186C62.3471 23.406 62.1526 23.3241 61.9377 23.2832C61.7125 23.232 61.5078 23.1911 61.3236 23.1604C60.6482 23.058 60.0034 22.8431 59.3791 22.5156C58.7651 22.1983 58.2534 21.7685 57.8645 21.2568C57.4653 20.7348 57.2709 20.131 57.2709 19.4351C57.2709 18.6573 57.4653 17.9818 57.8645 17.4087C58.2636 16.8356 58.7855 16.4058 59.4405 16.0987C60.0955 15.7917 60.7915 15.6382 61.5488 15.6382C62.4392 15.6382 63.2579 15.8224 64.0152 16.1806C64.7726 16.549 65.3866 17.071 65.8779 17.7464L63.1965 19.343C63.1044 19.2304 62.9918 19.1178 62.8588 18.995C62.7257 18.8824 62.5722 18.7801 62.4085 18.688C62.2345 18.5959 62.0503 18.5447 61.8558 18.5242C61.5897 18.5038 61.3543 18.514 61.1496 18.5549C60.945 18.5959 60.771 18.6778 60.6584 18.8006C60.5356 18.9234 60.4742 19.1076 60.4742 19.343C60.4742 19.5579 60.5765 19.7216 60.7914 19.824C61.0064 19.9263 61.2418 19.998 61.5078 20.0389C61.7739 20.0798 61.9889 20.131 62.1526 20.1822C62.8076 20.3971 63.4216 20.6734 63.9948 21.0112C64.5679 21.3489 65.0387 21.7685 65.3866 22.2495C65.7346 22.7305 65.9086 23.3036 65.8779 23.9586C65.8779 24.716 65.6527 25.3812 65.1922 25.9645C64.7419 26.5377 64.1483 26.9777 63.4319 27.2745C62.7155 27.5611 61.9479 27.6737 61.1496 27.5918Z" fill="#162B36"></path>
  <path d="M74.188 19.4246H72.2538V27.3868H68.8355V19.4246H67.3516V16.0063H68.8355V12.4346H72.2538V16.0063H74.188V19.4246Z" fill="#162B36"></path>
  <path d="M77.1559 14.6043C76.6749 14.6043 76.2655 14.4405 75.9278 14.113C75.59 13.7856 75.4263 13.3762 75.4263 12.8952C75.4263 12.4142 75.59 12.015 75.9278 11.6875C76.2655 11.36 76.6749 11.1963 77.1559 11.1963C77.6369 11.1963 78.036 11.36 78.3635 11.6875C78.691 12.015 78.8547 12.4244 78.8547 12.8952C78.8547 13.3762 78.691 13.7856 78.3635 14.113C78.036 14.4405 77.6369 14.6043 77.1559 14.6043ZM75.4365 16.0166H78.8547V27.3971H75.4365V16.0166Z" fill="#162B36"></path>
  <path d="M89.2323 19.4246H87.298V27.3868H83.89V19.4246H82.406V16.0063H83.89V12.4346H87.298V16.0063H89.2323V19.4246Z" fill="#162B36"></path>
  <path d="M91.2791 21.7478V16.0166H94.6973V21.7068C94.6973 22.2083 94.7996 22.6586 95.0043 23.068C95.209 23.4774 95.4956 23.8049 95.864 24.0505C96.2324 24.2961 96.6725 24.4189 97.174 24.4189C97.6652 24.4189 98.0848 24.2961 98.4123 24.0505C98.7501 23.8049 98.9957 23.4774 99.1697 23.068C99.3436 22.6586 99.4255 22.2083 99.4255 21.7068V16.0166H102.844V27.3971H99.4255V26.3532C99.0775 26.7523 98.6682 27.0696 98.1872 27.3357C97.7164 27.5915 97.174 27.7246 96.5497 27.7246C95.4546 27.7246 94.5233 27.4585 93.7353 26.9263C92.9472 26.3941 92.3434 25.6777 91.9238 24.7669C91.494 23.8458 91.2791 22.8428 91.2791 21.7478Z" fill="#162B36"></path>
  <path d="M111.819 19.4246H109.885V27.3868H106.477V19.4246H104.993V16.0063H106.477V12.4346H109.885V16.0063H111.819V19.4246Z" fill="#162B36"></path>
  <path d="M118.533 27.6835C117.489 27.6835 116.537 27.4174 115.667 26.875C114.808 26.3326 114.122 25.6162 113.61 24.7053C113.099 23.7945 112.843 22.7915 112.843 21.6862C112.843 20.8573 112.986 20.0795 113.283 19.3631C113.58 18.6364 113.989 18.0019 114.511 17.4493C115.033 16.8966 115.637 16.4668 116.322 16.1597C117.008 15.8527 117.745 15.689 118.533 15.689C119.444 15.689 120.273 15.8834 121.03 16.2826C121.788 16.6817 122.422 17.2241 122.944 17.8996C123.466 18.575 123.834 19.3426 124.049 20.192C124.264 21.0415 124.295 21.9216 124.121 22.8222H116.537C116.64 23.0883 116.783 23.3237 116.967 23.5489C117.141 23.7638 117.366 23.9378 117.622 24.0708C117.888 24.2039 118.185 24.2653 118.533 24.2755C118.871 24.2857 119.178 24.2141 119.464 24.0606C119.751 23.9071 119.997 23.7024 120.211 23.4465L123.691 24.255C123.231 25.2682 122.535 26.087 121.624 26.7317C120.703 27.3662 119.669 27.6835 118.533 27.6835ZM116.404 20.3251H120.672C120.57 19.9976 120.406 19.711 120.191 19.4654C119.976 19.2198 119.73 19.0151 119.444 18.8718C119.157 18.7285 118.85 18.6569 118.533 18.6569C118.216 18.6569 117.909 18.7285 117.632 18.8718C117.346 19.0151 117.1 19.2095 116.896 19.4654C116.681 19.711 116.517 19.9976 116.404 20.3251Z" fill="#162B36"></path>
  <path d="M46.9444 33.2407H47.4971L45.7982 37.9075H45.2455L45.8084 36.3519L44.6929 33.2407H45.266L46.0745 35.6355L46.9444 33.2407Z" fill="#162B36"></path>
  <path d="M50.987 36.4337C50.7004 36.4337 50.4446 36.362 50.2092 36.2085C49.9738 36.0652 49.7896 35.8606 49.6463 35.6149C49.503 35.3693 49.4314 35.093 49.4314 34.7962C49.4314 34.571 49.4723 34.3561 49.5542 34.1617C49.6361 33.9672 49.7487 33.7932 49.8919 33.6397C50.0352 33.4862 50.199 33.3736 50.3832 33.2918C50.5674 33.2099 50.7721 33.1689 50.987 33.1689C51.2736 33.1689 51.5294 33.2406 51.7648 33.3941C52.0002 33.5374 52.1844 33.7421 52.3277 33.9877C52.471 34.2333 52.5426 34.5096 52.5426 34.8167C52.5426 35.0418 52.5017 35.2567 52.4198 35.4512C52.3379 35.6456 52.2253 35.8196 52.0821 35.9731C51.9388 36.1266 51.775 36.2392 51.5908 36.3211C51.4066 36.3927 51.2019 36.4337 50.987 36.4337ZM50.987 35.9117C51.1815 35.9117 51.3554 35.8606 51.5192 35.7582C51.6727 35.6559 51.7955 35.5228 51.8876 35.3488C51.9797 35.1749 52.0207 35.0009 52.0207 34.7962C52.0207 34.5915 51.9695 34.4073 51.8774 34.2333C51.7853 34.0593 51.6625 33.9263 51.5089 33.8239C51.3554 33.7216 51.1815 33.6704 50.987 33.6704C50.7926 33.6704 50.6186 33.7216 50.4651 33.8239C50.3115 33.9263 50.1887 34.0593 50.0966 34.2333C50.0045 34.4073 49.9636 34.5915 49.9636 34.786C49.9636 34.9906 50.0147 35.1851 50.1069 35.3488C50.199 35.5228 50.3218 35.6559 50.4855 35.748C50.6288 35.8606 50.8028 35.9117 50.987 35.9117Z" fill="#162B36"></path>
  <path d="M54.5894 34.8884V33.2407H55.1113V34.8782C55.1113 35.0727 55.1522 35.2466 55.2341 35.4104C55.316 35.5639 55.4286 35.6969 55.5616 35.7891C55.7049 35.8812 55.8584 35.9323 56.0324 35.9323C56.2064 35.9323 56.3599 35.8812 56.4929 35.7891C56.626 35.6969 56.7283 35.5639 56.8102 35.4104C56.8818 35.2466 56.9228 35.0727 56.9228 34.8782V33.2407H57.4447V36.3519H56.9228V35.8709C56.8102 36.0449 56.6771 36.178 56.5134 36.2803C56.3496 36.3826 56.1654 36.4338 55.9607 36.4338C55.6844 36.4338 55.449 36.3622 55.2443 36.2189C55.0397 36.0756 54.8759 35.8914 54.7633 35.656C54.661 35.4309 54.5996 35.1648 54.5894 34.8884Z" fill="#162B36"></path>
  <path d="M61.4668 33.7523C61.4156 33.7216 61.3542 33.7011 61.3031 33.6806C61.2417 33.6602 61.1803 33.6602 61.1086 33.6602C60.9346 33.6602 60.7811 33.7113 60.6481 33.8034C60.515 33.8956 60.4127 34.0184 60.3308 34.1821C60.2592 34.3459 60.2182 34.5198 60.2182 34.7143V36.3518H59.6963V33.2406H60.2182V33.7216C60.3308 33.5476 60.4741 33.4145 60.6378 33.3122C60.8016 33.2099 60.9858 33.1587 61.1905 33.1587C61.2621 33.1587 61.3235 33.1587 61.3849 33.1689C61.4463 33.1792 61.5078 33.1894 61.5589 33.2099L61.4668 33.7523Z" fill="#162B36"></path>
  <path d="M68.1089 33.7628H67.4028V36.352H66.8808V33.7628H66.3486V33.2408H66.8808V32.2686H67.4028V33.2408H68.1089V33.7628Z" fill="#162B36"></path>
  <path d="M72.6938 33.2405H73.2158V36.3518H72.6938L72.6734 35.8298C72.571 36.014 72.438 36.1573 72.2742 36.2699C72.1002 36.3825 71.8956 36.4336 71.6704 36.4336C71.4452 36.4336 71.2303 36.3927 71.0256 36.3006C70.8312 36.2187 70.647 36.0959 70.4935 35.9424C70.3399 35.7889 70.2274 35.6149 70.1353 35.4102C70.0534 35.2158 70.0125 35.0008 70.0125 34.7655C70.0125 34.5403 70.0534 34.3356 70.1353 34.1412C70.2171 33.9467 70.3297 33.7727 70.4832 33.6192C70.6265 33.4759 70.8005 33.3531 70.9949 33.2712C71.1894 33.1894 71.3941 33.1484 71.6192 33.1484C71.8649 33.1484 72.0798 33.2098 72.264 33.3224C72.4482 33.435 72.6017 33.5885 72.7143 33.7727L72.6938 33.2405ZM71.6704 35.9219C71.8751 35.9219 72.0593 35.8707 72.2026 35.7684C72.3561 35.6661 72.4687 35.5228 72.5403 35.3488C72.6222 35.1748 72.6529 34.9804 72.6427 34.7655C72.6324 34.5608 72.5813 34.3663 72.4994 34.2026C72.4073 34.0388 72.2947 33.9058 72.1412 33.8034C71.9877 33.7011 71.8137 33.6602 71.609 33.6602C71.4043 33.6602 71.2201 33.7113 71.0461 33.8137C70.8824 33.916 70.7493 34.0593 70.6572 34.2333C70.5651 34.4073 70.5242 34.6017 70.5242 34.8166C70.5344 35.0213 70.5958 35.2055 70.6981 35.3795C70.8005 35.5433 70.9438 35.6763 71.1075 35.7786C71.2917 35.8707 71.476 35.9219 71.6704 35.9219Z" fill="#162B36"></path>
  <path d="M77.8824 33.2406H78.4044V36.4542C78.4044 36.6588 78.3634 36.8533 78.2713 37.0273C78.1792 37.2013 78.0667 37.3548 77.9131 37.4878C77.7596 37.6209 77.5959 37.7232 77.4014 37.7948C77.207 37.8665 77.0125 37.9074 76.8078 37.9074C76.5929 37.9074 76.3882 37.8563 76.1836 37.7641C75.9789 37.672 75.8049 37.539 75.6514 37.3752C75.4979 37.2115 75.3955 37.0375 75.3239 36.8328L75.8049 36.6179C75.8458 36.7612 75.9175 36.8942 76.0198 37.0068C76.1221 37.1194 76.245 37.2115 76.378 37.2831C76.511 37.3548 76.6543 37.3855 76.7976 37.3855C76.9307 37.3855 77.0637 37.365 77.1967 37.3138C77.3196 37.2627 77.4424 37.2013 77.5447 37.1194C77.6471 37.0375 77.7289 36.9352 77.7903 36.8226C77.8517 36.71 77.8824 36.5872 77.8824 36.4542V35.8401C77.7801 36.0141 77.6368 36.1676 77.4628 36.2699C77.2889 36.3825 77.0842 36.4337 76.859 36.4337C76.6441 36.4337 76.4292 36.3928 76.245 36.3109C76.0505 36.229 75.8868 36.1062 75.7332 35.9629C75.59 35.8094 75.4774 35.6354 75.3955 35.441C75.3136 35.2465 75.2727 35.0316 75.2727 34.8064C75.2727 34.5813 75.3136 34.3664 75.3955 34.1719C75.4774 33.9775 75.59 33.8035 75.7332 33.65C75.8765 33.4965 76.0505 33.3839 76.245 33.302C76.4394 33.2201 76.6441 33.1792 76.859 33.1792C77.0842 33.1792 77.2889 33.2304 77.4628 33.3429C77.6368 33.4555 77.7801 33.5988 77.8824 33.783V33.2406ZM76.859 35.922C77.0637 35.922 77.2377 35.8708 77.381 35.7685C77.5242 35.6661 77.6471 35.5228 77.7289 35.3591C77.8108 35.1851 77.8517 35.0009 77.8517 34.7962C77.8517 34.5915 77.8108 34.3971 77.7289 34.2333C77.6471 34.0593 77.5345 33.9263 77.381 33.824C77.2377 33.7216 77.0637 33.6704 76.859 33.6704C76.6646 33.6704 76.4906 33.7216 76.3268 33.824C76.1631 33.9263 76.0403 34.0593 75.9379 34.2333C75.8458 34.4073 75.7946 34.5915 75.7946 34.8064C75.7946 35.0111 75.8458 35.2056 75.9379 35.3796C76.03 35.5535 76.1631 35.6866 76.3268 35.7889C76.4906 35.8708 76.6748 35.922 76.859 35.922Z" fill="#162B36"></path>
  <path d="M80.697 36.3519V31.6851H81.219V36.3519H80.697Z" fill="#162B36"></path>
  <path d="M83.7775 32.6674C83.6957 32.6674 83.624 32.6367 83.5728 32.5855C83.5217 32.5343 83.491 32.4627 83.491 32.3808C83.491 32.2989 83.5217 32.2375 83.5728 32.1761C83.624 32.1249 83.6957 32.0942 83.7775 32.0942C83.8594 32.0942 83.931 32.1249 83.9822 32.1761C84.0334 32.2273 84.0641 32.2989 84.0641 32.3808C84.0641 32.4627 84.0334 32.5241 83.9822 32.5855C83.9208 32.6469 83.8594 32.6674 83.7775 32.6674ZM83.5114 33.2405H84.0334V36.3517H83.5114V33.2405Z" fill="#162B36"></path>
  <path d="M89.2323 34.6938V36.3518H88.7104V34.7143C88.7104 34.5198 88.6694 34.3458 88.5875 34.1821C88.5057 34.0183 88.3931 33.8955 88.2601 33.8034C88.1168 33.7113 87.9633 33.6602 87.7893 33.6602C87.6153 33.6602 87.4618 33.7113 87.3287 33.8034C87.1957 33.8955 87.0934 34.0286 87.0115 34.1821C86.9398 34.3356 86.8989 34.5198 86.8989 34.7143V36.3518H86.377V33.2405H86.8989V33.7216C87.0115 33.5476 87.1445 33.4043 87.3185 33.302C87.4823 33.1996 87.6665 33.1484 87.8712 33.1484C88.1372 33.1484 88.3726 33.2201 88.5773 33.3634C88.782 33.5066 88.9458 33.6909 89.0583 33.9262C89.1709 34.1616 89.2323 34.4175 89.2323 34.6938Z" fill="#162B36"></path>
  <path d="M92.7836 36.4337C92.4971 36.4337 92.2412 36.362 92.0058 36.2085C91.7704 36.0652 91.5862 35.8606 91.4429 35.6149C91.2997 35.3693 91.228 35.093 91.228 34.7962C91.228 34.571 91.269 34.3561 91.3508 34.1617C91.4327 33.9672 91.5453 33.7932 91.6886 33.6397C91.8318 33.4862 91.9956 33.3736 92.1798 33.2918C92.364 33.2099 92.5687 33.1689 92.7836 33.1689C93.019 33.1689 93.2339 33.2201 93.4284 33.3122C93.6228 33.4043 93.7968 33.5374 93.9299 33.7011C94.0731 33.8649 94.1755 34.0593 94.2471 34.2845C94.3188 34.5096 94.3392 34.745 94.3188 35.0009H91.7807C91.8011 35.1749 91.8625 35.3386 91.9547 35.4717C92.0468 35.6047 92.1593 35.7173 92.3026 35.7991C92.4459 35.881 92.5994 35.922 92.7734 35.922C92.9576 35.922 93.1316 35.8708 93.2851 35.7787C93.4386 35.6866 93.5614 35.5535 93.6535 35.3795L94.1857 35.5024C94.0629 35.7787 93.8685 36.0038 93.6228 36.1778C93.3772 36.3416 93.0907 36.4337 92.7836 36.4337ZM91.7704 34.571H93.7968C93.7764 34.3971 93.7252 34.2333 93.6331 34.09C93.541 33.9467 93.4182 33.8342 93.2646 33.7421C93.1214 33.65 92.9576 33.609 92.7836 33.609C92.6096 33.609 92.4459 33.65 92.3026 33.7318C92.1593 33.8137 92.0365 33.9365 91.9444 34.0798C91.8523 34.2333 91.7909 34.3971 91.7704 34.571Z" fill="#162B36"></path>
  <path d="M102.179 34.6939V36.3416H101.657V34.7041C101.657 34.5097 101.616 34.3357 101.534 34.172C101.452 34.0082 101.35 33.8854 101.206 33.7933C101.073 33.7012 100.92 33.65 100.756 33.65C100.582 33.65 100.429 33.7012 100.306 33.7933C100.173 33.8854 100.081 34.0082 100.009 34.172C99.9374 34.3357 99.9067 34.5097 99.9067 34.7041V36.3416H99.3745V31.6748H99.8965V33.6705C99.9988 33.4863 100.122 33.3532 100.275 33.2713C100.429 33.1895 100.603 33.1485 100.807 33.1485C101.084 33.1485 101.319 33.2202 101.524 33.3635C101.728 33.5067 101.892 33.691 102.005 33.9263C102.107 34.1617 102.168 34.4176 102.179 34.6939Z" fill="#162B36"></path>
  <path d="M105.658 36.4337C105.372 36.4337 105.116 36.362 104.881 36.2085C104.645 36.0652 104.461 35.8606 104.318 35.6149C104.174 35.3693 104.103 35.093 104.103 34.7962C104.103 34.571 104.144 34.3561 104.226 34.1617C104.307 33.9672 104.42 33.7932 104.563 33.6397C104.707 33.4862 104.87 33.3736 105.055 33.2918C105.239 33.2099 105.443 33.1689 105.658 33.1689C105.894 33.1689 106.109 33.2201 106.303 33.3122C106.498 33.4043 106.672 33.5374 106.805 33.7011C106.948 33.8649 107.05 34.0593 107.122 34.2845C107.194 34.5096 107.214 34.745 107.194 35.0009H104.655C104.676 35.1749 104.737 35.3386 104.829 35.4717C104.922 35.6047 105.034 35.7173 105.177 35.7991C105.321 35.881 105.474 35.922 105.648 35.922C105.832 35.922 106.006 35.8708 106.16 35.7787C106.313 35.6866 106.436 35.5535 106.528 35.3795L107.06 35.5024C106.938 35.7787 106.743 36.0038 106.498 36.1778C106.252 36.3416 105.965 36.4337 105.658 36.4337ZM104.645 34.571H106.672C106.651 34.3971 106.6 34.2333 106.508 34.09C106.416 33.9467 106.293 33.8342 106.139 33.7421C105.996 33.65 105.832 33.609 105.658 33.609C105.484 33.609 105.321 33.65 105.177 33.7318C105.034 33.8137 104.911 33.9365 104.819 34.0798C104.727 34.2333 104.666 34.3971 104.645 34.571Z" fill="#162B36"></path>
  <path d="M111.042 33.7523C110.99 33.7216 110.929 33.7011 110.878 33.6806C110.816 33.6602 110.755 33.6602 110.683 33.6602C110.509 33.6602 110.356 33.7113 110.223 33.8034C110.09 33.8956 109.987 34.0184 109.906 34.1821C109.824 34.3459 109.793 34.5198 109.793 34.7143V36.3518H109.271V33.2406H109.793V33.7216C109.906 33.5476 110.049 33.4145 110.213 33.3122C110.376 33.2099 110.561 33.1587 110.765 33.1587C110.837 33.1587 110.898 33.1587 110.96 33.1689C111.021 33.1792 111.082 33.1894 111.134 33.2099L111.042 33.7523Z" fill="#162B36"></path>
  <path d="M114.449 36.4337C114.163 36.4337 113.907 36.362 113.672 36.2085C113.436 36.0652 113.252 35.8606 113.109 35.6149C112.965 35.3693 112.894 35.093 112.894 34.7962C112.894 34.571 112.935 34.3561 113.017 34.1617C113.098 33.9672 113.211 33.7932 113.354 33.6397C113.498 33.4862 113.661 33.3736 113.846 33.2918C114.03 33.2099 114.234 33.1689 114.449 33.1689C114.685 33.1689 114.9 33.2201 115.094 33.3122C115.289 33.4043 115.463 33.5374 115.596 33.7011C115.739 33.8649 115.841 34.0593 115.913 34.2845C115.985 34.5096 116.005 34.745 115.985 35.0009H113.446C113.467 35.1749 113.528 35.3386 113.62 35.4717C113.713 35.6047 113.825 35.7173 113.968 35.7991C114.112 35.881 114.265 35.922 114.439 35.922C114.623 35.922 114.797 35.8708 114.951 35.7787C115.104 35.6866 115.227 35.5535 115.319 35.3795L115.851 35.5024C115.729 35.7787 115.534 36.0038 115.289 36.1778C115.043 36.3416 114.767 36.4337 114.449 36.4337ZM113.436 34.571H115.463C115.442 34.3971 115.391 34.2333 115.299 34.09C115.207 33.9467 115.084 33.8342 114.93 33.7421C114.787 33.65 114.623 33.609 114.449 33.609C114.275 33.609 114.112 33.65 113.968 33.7318C113.825 33.8137 113.702 33.9365 113.61 34.0798C113.518 34.2333 113.467 34.3971 113.436 34.571Z" fill="#162B36"></path>
  <path d="M11.4828 5.98704V11.7387H0V0L11.4828 5.98704Z" fill="#8B1731"></path>
  <path d="M11.4828 18.8413V39.013L0 45.0001V18.8413H11.4828Z" fill="#8B1731"></path>
  <path d="M18.5854 5.98704L24.3269 0V45L18.5854 39.013V5.98704Z" fill="#8B1731"></path>
</svg>
