<?xml version="1.0" encoding="UTF-8"?>
<svg xmlns="http://www.w3.org/2000/svg" width="162" height="38" viewBox="0 0 162 38" fill="none">
  <path fill-rule="evenodd" clip-rule="evenodd" d="M29.912 29.9309H8.08209H0V38.0001H38V23.9601L29.912 18.0246V29.9309Z" fill="#E6AF5D"></path>
  <path fill-rule="evenodd" clip-rule="evenodd" d="M29.912 18.0246L38 13.9457L19 0L0 13.9457V21.8675L8.08209 29.9309V18.0245L19 10.0143L29.912 18.0246Z" fill="#E6AF5D"></path>
  <path fill-rule="evenodd" clip-rule="evenodd" d="M22.917 23.0935V26.3235H19.6735V23.0935H22.917ZM19.6735 18.5137H22.9111V21.7496H19.6735V18.5137ZM18.3206 23.0935V26.3235H15.083V23.0935H18.3206ZM15.083 18.5137H18.3206V21.7496H15.083V18.5137Z" fill="#E6AF5D"></path>
  <path fill-rule="evenodd" clip-rule="evenodd" d="M156.095 22.3364C157.215 22.3364 158.155 21.9567 158.909 21.1973C159.671 20.4379 160.051 19.4923 160.051 18.3681C160.051 17.2364 159.671 16.2983 158.909 15.5389C158.148 14.7794 157.207 14.3997 156.095 14.3997C154.99 14.3997 154.057 14.7794 153.303 15.5389C152.541 16.2983 152.161 17.2438 152.161 18.3681C152.161 19.4998 152.541 20.4453 153.303 21.1973C154.057 21.9567 154.99 22.3364 156.095 22.3364ZM160.275 22.5375C159.126 23.6691 157.737 24.235 156.095 24.235C154.452 24.235 153.064 23.6691 151.922 22.5375C150.78 21.4058 150.212 20.0135 150.212 18.3681C150.212 16.7152 150.78 15.3304 151.922 14.1987C153.064 13.067 154.452 12.5012 156.095 12.5012C157.737 12.5012 159.126 13.067 160.275 14.1987C161.425 15.3304 162 16.7152 162 18.3681C162 20.0135 161.425 21.4058 160.275 22.5375ZM139.149 21.1303C139.91 21.8897 140.858 22.2694 141.986 22.2694C143.113 22.2694 144.068 21.8897 144.822 21.1303C145.584 20.3709 145.964 19.4253 145.964 18.3011C145.964 17.1843 145.584 16.2536 144.822 15.4942C144.061 14.7348 143.113 14.3551 141.986 14.3551C140.858 14.3551 139.903 14.7348 139.149 15.4942C138.387 16.2536 138.007 17.1917 138.007 18.3011C138.007 19.4328 138.387 20.3709 139.149 21.1303ZM145.964 12.7915H147.891V23.4681C147.891 25.121 147.331 26.4016 146.211 27.3174C145.091 28.2331 143.755 28.6873 142.187 28.6873C140.933 28.6873 139.858 28.4565 138.947 27.9874C138.036 27.5184 137.35 26.8483 136.894 25.9697L138.596 25.0093C139.208 26.2601 140.425 26.8855 142.239 26.8855C143.404 26.8855 144.315 26.5803 144.979 25.9697C145.643 25.3592 145.972 24.5254 145.972 23.4681V21.8823C144.987 23.3713 143.591 24.1084 141.769 24.1084C140.171 24.1084 138.828 23.5426 137.723 22.4109C136.618 21.2792 136.066 19.9093 136.066 18.2862C136.066 16.6631 136.618 15.2932 137.723 14.1689C138.828 13.0447 140.171 12.4863 141.769 12.4863C143.605 12.4863 145.001 13.2234 145.972 14.6975V12.7915H145.964ZM128.481 22.3364C129.601 22.3364 130.534 21.9567 131.303 21.1973C132.064 20.4379 132.445 19.4923 132.445 18.3681C132.445 17.2364 132.064 16.2983 131.303 15.5389C130.541 14.7794 129.601 14.3997 128.481 14.3997C127.376 14.3997 126.443 14.7794 125.689 15.5389C124.927 16.2983 124.547 17.2438 124.547 18.3681C124.547 19.4998 124.927 20.4453 125.689 21.1973C126.45 21.9567 127.376 22.3364 128.481 22.3364ZM132.661 22.5375C131.512 23.6691 130.123 24.235 128.481 24.235C126.839 24.235 125.45 23.6691 124.308 22.5375C123.166 21.4058 122.598 20.0135 122.598 18.3681C122.598 16.7152 123.166 15.3304 124.308 14.1987C125.45 13.067 126.839 12.5012 128.481 12.5012C130.123 12.5012 131.512 13.067 132.661 14.1987C133.811 15.3304 134.386 16.7152 134.386 18.3681C134.386 20.0135 133.811 21.4058 132.661 22.5375ZM115.043 21.9791H121.792V23.9372H112.968V8.33179H115.043V21.9791ZM102.009 17.3183H107.713C107.548 16.5589 107.212 15.993 106.697 15.6208C106.182 15.2485 105.6 15.0624 104.943 15.0624C104.167 15.0624 103.525 15.2559 103.017 15.6505C102.509 16.0526 102.173 16.6035 102.009 17.3183ZM102.054 19.5519C102.442 20.9516 103.495 21.6515 105.204 21.6515C106.309 21.6515 107.145 21.2792 107.713 20.5347L110.042 21.8748C108.937 23.4681 107.317 24.2573 105.167 24.2573C103.316 24.2573 101.837 23.6989 100.718 22.5821C99.5978 21.4653 99.0379 20.0656 99.0379 18.3681C99.0379 16.6929 99.5904 15.2857 100.695 14.1689C101.8 13.0521 103.211 12.4863 104.943 12.4863C106.585 12.4863 107.937 13.0521 109.004 14.1838C110.072 15.3155 110.602 16.7078 110.602 18.3755C110.602 18.7478 110.564 19.1424 110.49 19.5593H102.054V19.5519ZM92.1475 15.9558C92.1475 16.2536 92.3416 16.4919 92.7373 16.678C93.1329 16.8641 93.6107 17.0279 94.1781 17.1694C94.7454 17.3108 95.3128 17.4895 95.8801 17.7054C96.4475 17.9214 96.9253 18.2787 97.3209 18.785C97.7166 19.2913 97.9107 19.9242 97.9107 20.6761C97.9107 21.8227 97.4852 22.7013 96.6267 23.3192C95.7682 23.9372 94.7006 24.2424 93.4166 24.2424C91.1173 24.2424 89.5571 23.3564 88.721 21.5919L91.2218 20.1847C91.5503 21.1526 92.2819 21.6366 93.4166 21.6366C94.4468 21.6366 94.9619 21.3164 94.9619 20.6761C94.9619 20.3783 94.7678 20.1401 94.3722 19.9539C93.9765 19.7678 93.4987 19.604 92.9314 19.4551C92.364 19.3062 91.7967 19.1201 91.2368 18.8967C90.6694 18.6733 90.1916 18.3234 89.796 17.8395C89.4003 17.3555 89.2062 16.7524 89.2062 16.0228C89.2062 14.9209 89.6093 14.0572 90.423 13.4244C91.2368 12.7915 92.2446 12.4788 93.4539 12.4788C94.3647 12.4788 95.1933 12.6799 95.9324 13.0893C96.6789 13.4988 97.2687 14.0796 97.6942 14.839L95.2381 16.1792C94.8798 15.4197 94.2826 15.04 93.4539 15.04C93.0807 15.04 92.7746 15.1219 92.5282 15.2857C92.2744 15.457 92.1475 15.6803 92.1475 15.9558ZM84.0552 12.7915H86.9368V23.9372H84.0552V22.6864C83.3535 23.7287 82.2411 24.2499 80.7257 24.2499C79.5014 24.2499 78.4936 23.8404 77.6948 23.0214C76.896 22.2024 76.5004 21.0782 76.5004 19.6338V12.7915H79.3819V19.2839C79.3819 20.0284 79.5835 20.5942 79.9866 20.9888C80.3897 21.3834 80.9273 21.577 81.5991 21.577C82.3457 21.577 82.9429 21.3462 83.3908 20.8846C83.8387 20.423 84.0627 19.7306 84.0627 18.8148V12.7915H84.0552ZM66.5641 20.5719C67.1389 21.1526 67.8556 21.443 68.7216 21.443C69.5875 21.443 70.3117 21.1526 70.894 20.5719C71.4763 19.9912 71.7674 19.2541 71.7674 18.3606C71.7674 17.4672 71.4763 16.7301 70.894 16.1568C70.3117 15.5761 69.5875 15.2857 68.7216 15.2857C67.8556 15.2857 67.1389 15.5761 66.5641 16.1568C65.9893 16.7376 65.7056 17.4746 65.7056 18.3606C65.6982 19.2615 65.9893 19.9986 66.5641 20.5719ZM72.9245 22.5449C71.7749 23.684 70.3789 24.2499 68.7216 24.2499C67.0718 24.2499 65.6683 23.684 64.5336 22.5449C63.3914 21.4058 62.824 20.0135 62.824 18.3606C62.824 16.7078 63.3914 15.3155 64.5336 14.1838C65.6758 13.0521 67.0718 12.4788 68.7216 12.4788C70.3789 12.4788 71.7749 13.0447 72.9245 14.1838C74.0742 15.3229 74.649 16.7152 74.649 18.3606C74.649 20.0135 74.0667 21.4132 72.9245 22.5449ZM57.561 8.33179H60.6218V23.9372H57.561V17.4746H51.7531V23.9372H48.6699V8.33179H51.7531V14.5337H57.5685V8.33179H57.561Z" fill="#E6AF5D"></path>
  <path fill-rule="evenodd" clip-rule="evenodd" d="M138.261 35.4103H140.523V36.4229H137.201V31.0697H140.485V32.0674H138.261V33.2065H140.291V34.1967H138.261V35.4103ZM131.221 32.045V33.6309H132.311C132.512 33.6309 132.684 33.549 132.826 33.4001C132.968 33.2437 133.042 33.0576 133.042 32.8342C133.042 32.6183 132.968 32.4322 132.826 32.2758C132.684 32.1195 132.512 32.045 132.311 32.045H131.221ZM133.11 36.4154L132.027 34.5541H131.228V36.4154H130.168V31.0622H132.318C132.811 31.0622 133.237 31.2335 133.587 31.5834C133.938 31.9333 134.11 32.3503 134.11 32.8417C134.11 33.1693 134.013 33.482 133.826 33.7649C133.64 34.0478 133.386 34.2637 133.072 34.4052L134.259 36.4229H133.11V36.4154ZM124.823 35.4103H127.085V36.4229H123.763V31.0697H127.048V32.0674H124.823V33.2065H126.854V34.1967H124.823V35.4103ZM119.381 31.0622H120.434V36.4154H119.381V34.1967H117.388V36.4154H116.328V31.0622H117.388V33.1916H119.381V31.0622ZM110.02 31.0622H111.08V36.4154H110.273L107.974 33.1395V36.4154H106.914V31.0622H107.72L110.02 34.3233V31.0622ZM100.785 34.4648H102.293L101.517 32.2758L100.785 34.4648ZM102.987 36.4154L102.644 35.4475H100.434L100.113 36.4154H98.9711L100.852 31.0622H102.166L104.062 36.4154H102.987ZM96.5673 33.5415V33.951C96.5673 34.7179 96.3209 35.3359 95.8282 35.8124C95.3355 36.2889 94.7009 36.5197 93.9246 36.5197C93.0959 36.5197 92.4091 36.2516 91.8642 35.7156C91.3192 35.1795 91.043 34.5243 91.043 33.75C91.043 32.9682 91.3117 32.3056 91.8492 31.7695C92.3867 31.226 93.0586 30.958 93.8574 30.958C94.3575 30.958 94.8129 31.0697 95.231 31.3005C95.6416 31.5239 95.97 31.8291 96.194 32.2088L95.2907 32.73C95.1638 32.5141 94.9697 32.3354 94.7084 32.1939C94.4471 32.0599 94.1635 31.9855 93.8424 31.9855C93.3273 31.9855 92.9093 32.1567 92.5808 32.4843C92.2523 32.8193 92.0881 33.2437 92.0881 33.75C92.0881 34.2563 92.2523 34.6732 92.5883 35.0008C92.9242 35.3284 93.3647 35.4922 93.9171 35.4922C94.3277 35.4922 94.6636 35.4029 94.9324 35.2242C95.2011 35.0455 95.3803 34.7923 95.4848 34.4796H93.8574V33.549H96.5673V33.5415ZM84.1899 35.0008C84.5183 35.3284 84.9364 35.4922 85.4216 35.4922C85.9143 35.4922 86.3249 35.3284 86.6609 35.0008C86.9893 34.6732 87.161 34.2488 87.161 33.7426C87.161 33.2363 86.9968 32.8119 86.6609 32.4769C86.3249 32.1493 85.9143 31.978 85.4216 31.978C84.9289 31.978 84.5183 32.1418 84.1899 32.4769C83.8539 32.8119 83.6897 33.2288 83.6897 33.7426C83.6972 34.2488 83.8614 34.6658 84.1899 35.0008ZM87.4074 35.7156C86.8624 36.2516 86.2055 36.5197 85.4291 36.5197C84.6527 36.5197 83.9958 36.2516 83.4583 35.7156C82.9208 35.1795 82.652 34.5169 82.652 33.7351C82.652 32.9534 82.9208 32.2982 83.4583 31.7621C83.9958 31.226 84.6527 30.958 85.4291 30.958C86.2055 30.958 86.8699 31.226 87.4074 31.7621C87.9524 32.2982 88.2211 32.9608 88.2211 33.7351C88.2211 34.5169 87.9449 35.1795 87.4074 35.7156ZM78.2401 35.4103H80.2855V36.4229H77.18V31.0697H78.2401V35.4103ZM72.2455 36.5197C71.7155 36.5197 71.2675 36.4005 70.9017 36.1623C70.5359 35.924 70.2821 35.6039 70.1328 35.1944L71.0361 34.6658C71.2451 35.2093 71.6557 35.4848 72.2679 35.4848C72.5665 35.4848 72.783 35.4326 72.9174 35.321C73.0592 35.2167 73.1264 35.0753 73.1264 34.9189C73.1264 34.7328 73.0443 34.5839 72.8726 34.4796C72.7009 34.3754 72.4023 34.2637 71.9693 34.1372C71.7304 34.0627 71.5288 33.9957 71.3571 33.9212C71.1929 33.8468 71.0212 33.75 70.8569 33.6309C70.6927 33.5118 70.5658 33.3628 70.4762 33.1767C70.3866 32.9906 70.3493 32.7821 70.3493 32.5364C70.3493 32.0525 70.521 31.6653 70.8644 31.3749C71.2078 31.0846 71.6259 30.9431 72.1111 30.9431C72.5441 30.9431 72.9248 31.0474 73.2607 31.2633C73.5892 31.4717 73.843 31.7695 74.0297 32.1493L73.1413 32.663C72.9248 32.2014 72.5814 31.978 72.1111 31.978C71.8946 31.978 71.7155 32.0301 71.596 32.1269C71.4691 32.2237 71.4094 32.3577 71.4094 32.5141C71.4094 32.6853 71.4766 32.8193 71.6184 32.9236C71.7602 33.0278 72.029 33.1395 72.4247 33.2661C72.5889 33.3182 72.7158 33.3554 72.7979 33.3852C72.8875 33.415 72.9995 33.4596 73.1413 33.5118C73.2832 33.5713 73.4026 33.6234 73.4772 33.6755C73.5594 33.7277 73.6489 33.7947 73.7535 33.884C73.858 33.9734 73.9326 34.0627 73.9849 34.1521C74.0371 34.2488 74.0894 34.3531 74.1193 34.4871C74.1566 34.6137 74.179 34.7626 74.179 34.9115C74.179 35.4029 73.9998 35.7975 73.634 36.0878C73.2906 36.3782 72.8278 36.5197 72.2455 36.5197Z" fill="#E6AF5D"></path>
</svg>
