<?xml version="1.0" encoding="UTF-8"?>
<svg xmlns="http://www.w3.org/2000/svg" width="98" height="35" viewBox="0 0 98 35" fill="none">
  <g clip-path="url(#clip0_456_188)">
    <path fill-rule="evenodd" clip-rule="evenodd" d="M23.1063 30.498L28.2058 27.5542C28.2098 27.5522 28.2137 27.5502 28.2157 27.5463L29.0037 26.7583C29.2474 26.3594 29.3338 25.9113 29.3496 25.3611V18.4202V16.6103V11.269C29.3279 10.9939 29.2847 10.7542 29.214 10.5419C29.0155 9.93272 28.6185 9.54756 28.0211 9.18007L22.0097 5.70963L17.2639 2.97021L10.5588 10.0271V16.3627H18.7908V11.2179H22.9078V23.054L12.0877 33.8721L13.5301 34.7053C14.4911 35.1672 15.171 35.0492 16.0003 34.5992L22.0117 31.1288L23.1063 30.498Z" fill="#E6AF5D"></path>
    <path fill-rule="evenodd" clip-rule="evenodd" d="M6.44175 13.7925L10.5587 9.67554L17.2638 2.97046L15.8194 2.13724C14.8585 1.67543 14.1785 1.79334 13.3473 2.24336L7.33785 5.71184L6.24327 6.34265L1.14371 9.2884C0.263329 9.88974 0.0255469 10.5363 0 11.4815V18.4224V20.2362V25.5736C0.0216166 25.8487 0.0648498 26.0884 0.135595 26.3007C0.334075 26.9099 0.731034 27.295 1.32844 27.6625L7.33982 31.133L12.0896 33.8763L18.7927 26.6092V20.4799H10.5587V25.6247H6.44175V13.7925Z" fill="#E6AF5D"></path>
  </g>
  <path d="M38.329 27.5263H34V17.1184C34 13.9868 34.829 11.7763 36.3947 10.3026C38.0526 8.82895 39.9868 8 42.1974 8C44.4079 8 46.3421 8.73684 48 10.3026C49.6579 11.7763 50.4868 14.0789 50.4868 17.1184V27.5263H46.1579V17.1184C46.1579 13.8947 44.5921 12.1447 42.2895 12.1447C39.8947 12.1447 38.421 13.8026 38.421 17.1184V27.5263H38.329Z" fill="#332F2C"></path>
  <path d="M54.181 0.759868C55.1942 -0.253289 56.9441 -0.253289 57.9573 0.759868C58.9705 1.77303 58.9705 3.52303 57.9573 4.53618C56.9441 5.54934 55.1942 5.54934 54.181 4.53618C53.1679 3.52303 53.1679 1.77303 54.181 0.759868ZM53.9968 27.9309V8.58882L58.3257 11.9967V27.9309H53.9968Z" fill="#332F2C"></path>
  <path d="M75.1578 8.28955V12.4343H72.9473C68.6183 12.4343 66.1315 14.4606 66.1315 17.9606C66.1315 21.3685 68.6183 23.4869 72.9473 23.4869H75.1578V27.6317H72.9473C69.4473 27.6317 66.592 26.7106 64.6578 24.8685C62.7236 23.0264 61.7104 20.7238 61.7104 17.9606C61.7104 15.1974 62.6315 12.8948 64.6578 11.0527C66.592 9.2106 69.3552 8.28955 72.9473 8.28955H75.1578Z" fill="#332F2C"></path>
  <path d="M92.7535 20.4403L92.4772 21.085C92.1087 22.0061 90.8193 23.3876 88.8851 23.8482C86.5824 24.4929 84.0035 23.5718 82.714 21.4534L97.0824 17.585C96.714 15.7429 96.2535 11.8745 92.0166 9.47975C89.8061 8.19027 87.4114 8.00606 84.8324 8.6508C82.1614 9.38764 80.1351 10.8613 78.7535 13.2561C77.3719 15.6508 77.0035 18.1376 77.7403 20.7166C78.4772 23.3876 79.9508 25.414 82.3456 26.7955C84.7403 28.1771 87.2272 28.4534 89.8982 27.7166C92.4772 27.0719 94.5035 25.3218 95.4245 23.9403C95.8851 23.2034 96.2535 22.4666 96.6219 21.6376C96.8061 21.085 96.9903 20.6245 97.0824 20.3482H92.7535V20.4403ZM81.793 17.6771C81.8851 15.3745 83.3587 13.4403 85.9377 12.7034C88.5166 12.0587 91.0956 13.164 91.9245 14.914L81.793 17.6771Z" fill="#332F2C"></path>
  <defs>
    <clipPath id="clip0_456_188">
      <rect width="29.3494" height="33.1579" fill="white" transform="translate(0 1.84229)"></rect>
    </clipPath>
  </defs>
</svg>
