<?xml version="1.0" encoding="UTF-8"?>
<svg xmlns="http://www.w3.org/2000/svg" width="98" height="35" viewBox="0 0 98 35" fill="none">
  <g clip-path="url(#clip0_456_435)">
    <path fill-rule="evenodd" clip-rule="evenodd" d="M23.106 30.498L28.2056 27.5542C28.2095 27.5522 28.2135 27.5502 28.2154 27.5463L29.0034 26.7583C29.2471 26.3594 29.3336 25.9113 29.3493 25.3611V18.4202V16.6103V11.269C29.3277 10.9939 29.2845 10.7542 29.2137 10.5419C29.0152 9.93272 28.6183 9.54756 28.0209 9.18007L22.0095 5.70963L17.2637 2.97021L10.5586 10.0271V16.3627H18.7906V11.2179H22.9076V23.054L12.0875 33.8721L13.5299 34.7053C14.4908 35.1672 15.1708 35.0492 16.0001 34.5992L22.0115 31.1288L23.106 30.498Z" fill="white"></path>
    <path fill-rule="evenodd" clip-rule="evenodd" d="M6.44175 13.7925L10.5587 9.67554L17.2638 2.97046L15.8194 2.13724C14.8585 1.67543 14.1785 1.79334 13.3473 2.24336L7.33785 5.71184L6.24327 6.34265L1.14371 9.2884C0.263329 9.88974 0.0255469 10.5363 0 11.4815V18.4224V20.2362V25.5736C0.0216166 25.8487 0.0648498 26.0884 0.135595 26.3007C0.334075 26.9099 0.731034 27.295 1.32844 27.6625L7.33982 31.133L12.0896 33.8763L18.7927 26.6092V20.4799H10.5587V25.6247H6.44175V13.7925Z" fill="white"></path>
  </g>
  <path d="M38.4081 27.8159H34.0791V17.408C34.0791 14.2764 34.9081 12.0659 36.4738 10.5922C38.1317 9.1185 40.0659 8.28955 42.2765 8.28955C44.487 8.28955 46.4212 9.02639 48.0791 10.5922C49.737 12.0659 50.5659 14.3685 50.5659 17.408V27.8159H46.237V17.408C46.237 14.1843 44.6712 12.4343 42.3686 12.4343C39.9738 12.4343 38.5001 14.0922 38.5001 17.408V27.8159H38.4081Z" fill="white"></path>
  <path d="M54.1808 0.759868C55.1939 -0.253289 56.9439 -0.253289 57.9571 0.759868C58.9702 1.77303 58.9702 3.52303 57.9571 4.53618C56.9439 5.54934 55.1939 5.54934 54.1808 4.53618C53.1676 3.52303 53.1676 1.77303 54.1808 0.759868ZM53.9965 27.9309V8.58882L58.3255 11.9967V27.9309H53.9965Z" fill="white"></path>
  <path d="M75.1583 8.28955V12.4343H72.9478C68.6188 12.4343 66.132 14.4606 66.132 17.9606C66.132 21.3685 68.6188 23.4869 72.9478 23.4869H75.1583V27.6317H72.9478C69.4478 27.6317 66.5925 26.7106 64.6583 24.8685C62.7241 23.0264 61.7109 20.7238 61.7109 17.9606C61.7109 15.1974 62.632 12.8948 64.6583 11.0527C66.5925 9.2106 69.3557 8.28955 72.9478 8.28955H75.1583Z" fill="white"></path>
  <path d="M92.7532 20.4403L92.4769 21.085C92.1085 22.0061 90.819 23.3876 88.8848 23.8482C86.5822 24.4929 84.0032 23.5718 82.7138 21.4534L97.0822 17.585C96.7138 15.7429 96.2532 11.8745 92.0164 9.47975C89.8059 8.19027 87.4111 8.00606 84.8322 8.6508C82.1611 9.38764 80.1348 10.8613 78.7532 13.2561C77.3717 15.6508 77.0032 18.1376 77.7401 20.7166C78.4769 23.3876 79.9506 25.414 82.3453 26.7955C84.7401 28.1771 87.2269 28.4534 89.898 27.7166C92.4769 27.0719 94.5032 25.3218 95.4243 23.9403C95.8848 23.2034 96.2532 22.4666 96.6216 21.6376C96.8059 21.085 96.9901 20.6245 97.0822 20.3482H92.7532V20.4403ZM81.7927 17.6771C81.8848 15.3745 83.3585 13.4403 85.9374 12.7034C88.5164 12.0587 91.0953 13.164 91.9243 14.914L81.7927 17.6771Z" fill="white"></path>
  <defs>
    <clipPath id="clip0_456_435">
      <rect width="29.3494" height="33.1579" fill="white" transform="translate(0 1.84229)"></rect>
    </clipPath>
  </defs>
</svg>
