<?xml version="1.0" encoding="UTF-8"?>
<svg xmlns="http://www.w3.org/2000/svg" width="98" height="35" viewBox="0 0 98 35" fill="none">
  <g clip-path="url(#clip0_12_292)">
    <path fill-rule="evenodd" clip-rule="evenodd" d="M23.1062 30.4975L28.2057 27.5537C28.2097 27.5517 28.2136 27.5498 28.2155 27.5458L29.0036 26.7578C29.2472 26.3589 29.3337 25.9108 29.3494 25.3606V18.4197V16.6098V11.2685C29.3278 10.9934 29.2846 10.7537 29.2138 10.5414C29.0154 9.93224 28.6184 9.54707 28.021 9.17958L22.0096 5.70914L17.2638 2.96973L10.5587 10.0266V16.3622H18.7907V11.2174H22.9077V23.0535L12.0876 33.8716L13.53 34.7049C14.491 35.1667 15.1709 35.0488 16.0002 34.5987L22.0116 31.1283L23.1062 30.4975Z" fill="#E6AF5D"></path>
    <path fill-rule="evenodd" clip-rule="evenodd" d="M6.44175 13.792L10.5587 9.67505L17.2638 2.96998L15.8194 2.13675C14.8585 1.67494 14.1785 1.79285 13.3473 2.24287L7.33785 5.71135L6.24327 6.34216L1.14371 9.28792C0.263329 9.88925 0.0255469 10.5358 0 11.481V18.4219V20.2357V25.5731C0.0216166 25.8482 0.0648498 26.0879 0.135595 26.3002C0.334075 26.9094 0.731034 27.2945 1.32844 27.662L7.33982 31.1325L12.0896 33.8758L18.7927 26.6087V20.4794H10.5587V25.6242H6.44175V13.792Z" fill="#E6AF5D"></path>
  </g>
  <path d="M38.4078 27.8164H34.0788V17.4085C34.0788 14.2769 34.9078 12.0664 36.4736 10.5927C38.1315 9.11899 40.0657 8.29004 42.2762 8.29004C44.4867 8.29004 46.4209 9.02688 48.0788 10.5927C49.7367 12.0664 50.5657 14.369 50.5657 17.4085V27.8164H46.2367V17.4085C46.2367 14.1848 44.6709 12.4348 42.3683 12.4348C39.9736 12.4348 38.4999 14.0927 38.4999 17.4085V27.8164H38.4078Z" fill="white"></path>
  <path d="M54.181 0.759868C55.1942 -0.253289 56.9442 -0.253289 57.9573 0.759868C58.9705 1.77303 58.9705 3.52303 57.9573 4.53618C56.9442 5.54934 55.1942 5.54934 54.181 4.53618C53.1679 3.52303 53.1679 1.77303 54.181 0.759868ZM53.9968 27.9309V8.58882L58.3258 11.9967V27.9309H53.9968Z" fill="white"></path>
  <path d="M75.1579 8.29004V12.4348H72.9474C68.6184 12.4348 66.1316 14.4611 66.1316 17.9611C66.1316 21.369 68.6184 23.4874 72.9474 23.4874H75.1579V27.6321H72.9474C69.4474 27.6321 66.5921 26.7111 64.6579 24.869C62.7237 23.0269 61.7105 20.7242 61.7105 17.9611C61.7105 15.1979 62.6316 12.8953 64.6579 11.0532C66.5921 9.21109 69.3553 8.29004 72.9474 8.29004H75.1579Z" fill="white"></path>
  <path d="M92.7535 20.4408L92.4772 21.0855C92.1088 22.0065 90.8193 23.3881 88.8851 23.8487C86.5825 24.4934 84.0035 23.5723 82.714 21.4539L97.0824 17.5855C96.714 15.7434 96.2535 11.875 92.0167 9.48023C89.8061 8.19076 87.4114 8.00655 84.8325 8.65129C82.1614 9.38813 80.1351 10.8618 78.7535 13.2565C77.3719 15.6513 77.0035 18.1381 77.7403 20.7171C78.4772 23.3881 79.9509 25.4144 82.3456 26.796C84.7403 28.1776 87.2272 28.4539 89.8982 27.7171C92.4772 27.0723 94.5035 25.3223 95.4246 23.9408C95.8851 23.2039 96.2535 22.4671 96.6219 21.6381C96.8061 21.0855 96.9903 20.625 97.0824 20.3487H92.7535V20.4408ZM81.793 17.6776C81.8851 15.375 83.3588 13.4408 85.9377 12.7039C88.5167 12.0592 91.0956 13.1644 91.9246 14.9144L81.793 17.6776Z" fill="white"></path>
  <defs>
    <clipPath id="clip0_12_292">
      <rect width="29.3494" height="33.1579" fill="white" transform="translate(0 1.8418)"></rect>
    </clipPath>
  </defs>
</svg>
